<?xml version="1.0" encoding="UTF-8" standalone="no"?>
<!DOCTYPE svg PUBLIC "-//W3C//DTD SVG 1.1//EN"
 "http://www.w3.org/Graphics/SVG/1.1/DTD/svg11.dtd">
<!-- Generated by graphviz version 2.40.1 (20161225.0304)
 -->
<!-- Title: main/include/callbacks.h Pages: 1 -->
<svg width="202pt" height="84pt"
 viewBox="0.00 0.00 201.50 84.00" xmlns="http://www.w3.org/2000/svg" xmlns:xlink="http://www.w3.org/1999/xlink">
<g id="graph0" class="graph" transform="scale(1 1) rotate(0) translate(4 80)">
<title>main/include/callbacks.h</title>
<polygon fill="#ffffff" stroke="transparent" points="-4,4 -4,-80 197.5,-80 197.5,4 -4,4"/>
<!-- Node9 -->
<g id="node1" class="node">
<title>Node9</title>
<g id="a_node1"><a xlink:title=" ">
<polygon fill="#bfbfbf" stroke="#000000" points="33.5,-56.5 33.5,-75.5 170.5,-75.5 170.5,-56.5 33.5,-56.5"/>
<text text-anchor="middle" x="102" y="-63.5" font-family="Helvetica,sans-Serif" font-size="10.00" fill="#000000">main/include/callbacks.h</text>
</a>
</g>
</g>
<!-- Node10 -->
<g id="node2" class="node">
<title>Node10</title>
<g id="a_node2"><a xlink:href="callbacks_8c.html" target="_top" xlink:title=" ">
<polygon fill="#ffffff" stroke="#000000" points="0,-.5 0,-19.5 98,-19.5 98,-.5 0,-.5"/>
<text text-anchor="middle" x="49" y="-7.5" font-family="Helvetica,sans-Serif" font-size="10.00" fill="#000000">main/callbacks.c</text>
</a>
</g>
</g>
<!-- Node9&#45;&gt;Node10 -->
<g id="edge1" class="edge">
<title>Node9&#45;&gt;Node10</title>
<path fill="none" stroke="#191970" d="M85.7104,-48.7884C76.6438,-39.2085 65.6946,-27.6396 58.1261,-19.6427"/>
<polygon fill="#191970" stroke="#191970" points="83.3522,-51.3884 92.7681,-56.2455 88.4363,-46.5767 83.3522,-51.3884"/>
</g>
<!-- Node11 -->
<g id="node3" class="node">
<title>Node11</title>
<g id="a_node3"><a xlink:href="main_8c.html" target="_top" xlink:title=" ">
<polygon fill="#ffffff" stroke="#000000" points="116.5,-.5 116.5,-19.5 193.5,-19.5 193.5,-.5 116.5,-.5"/>
<text text-anchor="middle" x="155" y="-7.5" font-family="Helvetica,sans-Serif" font-size="10.00" fill="#000000">main/main.c</text>
</a>
</g>
</g>
<!-- Node9&#45;&gt;Node11 -->
<g id="edge2" class="edge">
<title>Node9&#45;&gt;Node11</title>
<path fill="none" stroke="#191970" d="M118.2896,-48.7884C127.3562,-39.2085 138.3054,-27.6396 145.8739,-19.6427"/>
<polygon fill="#191970" stroke="#191970" points="115.5637,-46.5767 111.2319,-56.2455 120.6478,-51.3884 115.5637,-46.5767"/>
</g>
</g>
</svg>
