<?xml version="1.0" encoding="UTF-8" standalone="no"?>
<!DOCTYPE svg PUBLIC "-//W3C//DTD SVG 1.1//EN"
 "http://www.w3.org/Graphics/SVG/1.1/DTD/svg11.dtd">
<!-- Generated by graphviz version 2.40.1 (20161225.0304)
 -->
<!-- Title: callback_on_error Pages: 1 -->
<svg width="249pt" height="28pt"
 viewBox="0.00 0.00 249.00 28.00" xmlns="http://www.w3.org/2000/svg" xmlns:xlink="http://www.w3.org/1999/xlink">
<g id="graph0" class="graph" transform="scale(1 1) rotate(0) translate(4 24)">
<title>callback_on_error</title>
<polygon fill="#ffffff" stroke="transparent" points="-4,4 -4,-24 245,-24 245,4 -4,4"/>
<!-- Node2 -->
<g id="node1" class="node">
<title>Node2</title>
<g id="a_node1"><a xlink:title=" ">
<polygon fill="#bfbfbf" stroke="#000000" points="0,-.5 0,-19.5 103,-19.5 103,-.5 0,-.5"/>
<text text-anchor="middle" x="51.5" y="-7.5" font-family="Helvetica,sans-Serif" font-size="10.00" fill="#000000">callback_on_error</text>
</a>
</g>
</g>
<!-- Node3 -->
<g id="node2" class="node">
<title>Node3</title>
<g id="a_node2"><a xlink:href="util_8h.html#afa5226e3fd497fe3c633a50329764239" target="_top" xlink:title=" ">
<polygon fill="#ffffff" stroke="#000000" points="139,-.5 139,-19.5 171,-19.5 171,-.5 139,-.5"/>
<text text-anchor="middle" x="155" y="-7.5" font-family="Helvetica,sans-Serif" font-size="10.00" fill="#000000">die</text>
</a>
</g>
</g>
<!-- Node2&#45;&gt;Node3 -->
<g id="edge1" class="edge">
<title>Node2&#45;&gt;Node3</title>
<path fill="none" stroke="#191970" d="M103.25,-10C112.0435,-10 120.8369,-10 128.6148,-10"/>
<polygon fill="#191970" stroke="#191970" points="128.8282,-13.5001 138.8281,-10 128.8281,-6.5001 128.8282,-13.5001"/>
</g>
<!-- Node4 -->
<g id="node3" class="node">
<title>Node4</title>
<g id="a_node3"><a xlink:href="utp__packedsockaddr_8h.html#a67423ac652e0a466cb0ce0dba17ee261" target="_top" xlink:title=" ">
<polygon fill="#ffffff" stroke="#000000" points="207,-.5 207,-19.5 241,-19.5 241,-.5 207,-.5"/>
<text text-anchor="middle" x="224" y="-7.5" font-family="Helvetica,sans-Serif" font-size="10.00" fill="#000000">fmt</text>
</a>
</g>
</g>
<!-- Node3&#45;&gt;Node4 -->
<g id="edge2" class="edge">
<title>Node3&#45;&gt;Node4</title>
<path fill="none" stroke="#191970" d="M171.0034,-10C178.5887,-10 187.8676,-10 196.5292,-10"/>
<polygon fill="#191970" stroke="#191970" points="196.633,-13.5001 206.6329,-10 196.6329,-6.5001 196.633,-13.5001"/>
</g>
</g>
</svg>
