<?xml version="1.0" encoding="UTF-8" standalone="no"?>
<!DOCTYPE svg PUBLIC "-//W3C//DTD SVG 1.1//EN"
 "http://www.w3.org/Graphics/SVG/1.1/DTD/svg11.dtd">
<!-- Generated by graphviz version 2.40.1 (20161225.0304)
 -->
<!-- Title: main/callbacks.c Pages: 1 -->
<svg width="625pt" height="252pt"
 viewBox="0.00 0.00 625.00 252.00" xmlns="http://www.w3.org/2000/svg" xmlns:xlink="http://www.w3.org/1999/xlink">
<g id="graph0" class="graph" transform="scale(1 1) rotate(0) translate(4 248)">
<title>main/callbacks.c</title>
<polygon fill="#ffffff" stroke="transparent" points="-4,4 -4,-248 621,-248 621,4 -4,4"/>
<!-- Node0 -->
<g id="node1" class="node">
<title>Node0</title>
<g id="a_node1"><a xlink:title=" ">
<polygon fill="#bfbfbf" stroke="#000000" points="269.5,-224.5 269.5,-243.5 367.5,-243.5 367.5,-224.5 269.5,-224.5"/>
<text text-anchor="middle" x="318.5" y="-231.5" font-family="Helvetica,sans-Serif" font-size="10.00" fill="#000000">main/callbacks.c</text>
</a>
</g>
</g>
<!-- Node1 -->
<g id="node2" class="node">
<title>Node1</title>
<g id="a_node2"><a xlink:href="netdb_8h.html" target="_top" xlink:title=" ">
<polygon fill="#ffffff" stroke="#000000" points="0,-168.5 0,-187.5 53,-187.5 53,-168.5 0,-168.5"/>
<text text-anchor="middle" x="26.5" y="-175.5" font-family="Helvetica,sans-Serif" font-size="10.00" fill="#000000">netdb.h</text>
</a>
</g>
</g>
<!-- Node0&#45;&gt;Node1 -->
<g id="edge1" class="edge">
<title>Node0&#45;&gt;Node1</title>
<path fill="none" stroke="#191970" d="M269.2763,-225.8472C218.5482,-217.242 137.2558,-202.8857 67.5,-188 66.0669,-187.6942 64.6075,-187.3751 63.1347,-187.0467"/>
<polygon fill="#191970" stroke="#191970" points="63.8865,-183.6283 53.3551,-184.7861 62.3099,-190.4485 63.8865,-183.6283"/>
</g>
<!-- Node2 -->
<g id="node3" class="node">
<title>Node2</title>
<g id="a_node3"><a xlink:title=" ">
<polygon fill="#ffffff" stroke="#bfbfbf" points="119,-112.5 119,-131.5 172,-131.5 172,-112.5 119,-112.5"/>
<text text-anchor="middle" x="145.5" y="-119.5" font-family="Helvetica,sans-Serif" font-size="10.00" fill="#000000">stdint.h</text>
</a>
</g>
</g>
<!-- Node0&#45;&gt;Node2 -->
<g id="edge2" class="edge">
<title>Node0&#45;&gt;Node2</title>
<path fill="none" stroke="#191970" d="M269.2494,-230.6492C211.6014,-225.5817 121.3319,-213.6863 100.5,-188 87.2124,-171.616 105.6023,-151.4009 122.7167,-137.6918"/>
<polygon fill="#191970" stroke="#191970" points="125.0032,-140.3509 130.8715,-131.5297 120.783,-134.7661 125.0032,-140.3509"/>
</g>
<!-- Node3 -->
<g id="node4" class="node">
<title>Node3</title>
<g id="a_node4"><a xlink:title=" ">
<polygon fill="#ffffff" stroke="#bfbfbf" points="365.5,-168.5 365.5,-187.5 415.5,-187.5 415.5,-168.5 365.5,-168.5"/>
<text text-anchor="middle" x="390.5" y="-175.5" font-family="Helvetica,sans-Serif" font-size="10.00" fill="#000000">stdio.h</text>
</a>
</g>
</g>
<!-- Node0&#45;&gt;Node3 -->
<g id="edge3" class="edge">
<title>Node0&#45;&gt;Node3</title>
<path fill="none" stroke="#191970" d="M331.0414,-224.2455C341.7787,-215.8943 357.4473,-203.7076 370.0047,-193.9408"/>
<polygon fill="#191970" stroke="#191970" points="372.3575,-196.5449 378.1023,-187.6427 368.0599,-191.0194 372.3575,-196.5449"/>
</g>
<!-- Node4 -->
<g id="node5" class="node">
<title>Node4</title>
<g id="a_node5"><a xlink:title=" ">
<polygon fill="#ffffff" stroke="#bfbfbf" points="434,-168.5 434,-187.5 487,-187.5 487,-168.5 434,-168.5"/>
<text text-anchor="middle" x="460.5" y="-175.5" font-family="Helvetica,sans-Serif" font-size="10.00" fill="#000000">stdlib.h</text>
</a>
</g>
</g>
<!-- Node0&#45;&gt;Node4 -->
<g id="edge4" class="edge">
<title>Node0&#45;&gt;Node4</title>
<path fill="none" stroke="#191970" d="M342.9107,-224.3733C366.1142,-215.2226 401.2038,-201.3844 427.0142,-191.2057"/>
<polygon fill="#191970" stroke="#191970" points="428.3892,-194.4258 436.4079,-187.5011 425.8211,-187.9139 428.3892,-194.4258"/>
</g>
<!-- Node5 -->
<g id="node6" class="node">
<title>Node5</title>
<g id="a_node6"><a xlink:title=" ">
<polygon fill="#ffffff" stroke="#bfbfbf" points="505,-168.5 505,-187.5 558,-187.5 558,-168.5 505,-168.5"/>
<text text-anchor="middle" x="531.5" y="-175.5" font-family="Helvetica,sans-Serif" font-size="10.00" fill="#000000">string.h</text>
</a>
</g>
</g>
<!-- Node0&#45;&gt;Node5 -->
<g id="edge5" class="edge">
<title>Node0&#45;&gt;Node5</title>
<path fill="none" stroke="#191970" d="M356.4224,-224.4968C390.3949,-215.9174 441.8295,-202.7664 494.8515,-188.408"/>
<polygon fill="#191970" stroke="#191970" points="496.0343,-191.7136 504.7665,-185.7137 494.1986,-184.9585 496.0343,-191.7136"/>
</g>
<!-- Node6 -->
<g id="node7" class="node">
<title>Node6</title>
<g id="a_node7"><a xlink:href="socket_8h.html" target="_top" xlink:title=" ">
<polygon fill="#ffffff" stroke="#000000" points="299,-.5 299,-19.5 376,-19.5 376,-.5 299,-.5"/>
<text text-anchor="middle" x="337.5" y="-7.5" font-family="Helvetica,sans-Serif" font-size="10.00" fill="#000000">sys/socket.h</text>
</a>
</g>
</g>
<!-- Node0&#45;&gt;Node6 -->
<g id="edge6" class="edge">
<title>Node0&#45;&gt;Node6</title>
<path fill="none" stroke="#191970" d="M319.3164,-224.375C322.191,-190.4851 331.8821,-76.2317 335.8177,-29.8332"/>
<polygon fill="#191970" stroke="#191970" points="339.3288,-29.8492 336.6866,-19.5891 332.3539,-29.2575 339.3288,-29.8492"/>
</g>
<!-- Node7 -->
<g id="node8" class="node">
<title>Node7</title>
<g id="a_node8"><a xlink:href="types_8h.html" target="_top" xlink:title=" ">
<polygon fill="#ffffff" stroke="#000000" points="109.5,-168.5 109.5,-187.5 181.5,-187.5 181.5,-168.5 109.5,-168.5"/>
<text text-anchor="middle" x="145.5" y="-175.5" font-family="Helvetica,sans-Serif" font-size="10.00" fill="#000000">sys/types.h</text>
</a>
</g>
</g>
<!-- Node0&#45;&gt;Node7 -->
<g id="edge7" class="edge">
<title>Node0&#45;&gt;Node7</title>
<path fill="none" stroke="#191970" d="M288.7602,-224.3733C259.993,-215.0613 216.23,-200.8953 184.6444,-190.671"/>
<polygon fill="#191970" stroke="#191970" points="185.4436,-187.251 174.8517,-187.5011 183.2878,-193.9107 185.4436,-187.251"/>
</g>
<!-- Node8 -->
<g id="node9" class="node">
<title>Node8</title>
<g id="a_node9"><a xlink:href="utp_8h.html" target="_top" xlink:title=" ">
<polygon fill="#ffffff" stroke="#000000" points="219,-112.5 219,-131.5 260,-131.5 260,-112.5 219,-112.5"/>
<text text-anchor="middle" x="239.5" y="-119.5" font-family="Helvetica,sans-Serif" font-size="10.00" fill="#000000">utp.h</text>
</a>
</g>
</g>
<!-- Node0&#45;&gt;Node8 -->
<g id="edge9" class="edge">
<title>Node0&#45;&gt;Node8</title>
<path fill="none" stroke="#191970" d="M313.4684,-224.2588C306.4963,-211.0704 293.2003,-187.0001 279.5,-168 272.3508,-158.0852 263.5103,-147.7534 255.96,-139.399"/>
<polygon fill="#191970" stroke="#191970" points="258.3008,-136.7743 248.9502,-131.7926 253.1533,-141.5181 258.3008,-136.7743"/>
</g>
<!-- Node14 -->
<g id="node15" class="node">
<title>Node14</title>
<g id="a_node15"><a xlink:href="callbacks_8h.html" target="_top" xlink:title=" ">
<polygon fill="#ffffff" stroke="#000000" points="200,-168.5 200,-187.5 271,-187.5 271,-168.5 200,-168.5"/>
<text text-anchor="middle" x="235.5" y="-175.5" font-family="Helvetica,sans-Serif" font-size="10.00" fill="#000000">callbacks.h</text>
</a>
</g>
</g>
<!-- Node0&#45;&gt;Node14 -->
<g id="edge16" class="edge">
<title>Node0&#45;&gt;Node14</title>
<path fill="none" stroke="#191970" d="M304.0425,-224.2455C291.4268,-215.7337 272.9056,-203.2375 258.2955,-193.3801"/>
<polygon fill="#191970" stroke="#191970" points="260.0391,-190.3343 249.7918,-187.6427 256.1239,-196.1371 260.0391,-190.3343"/>
</g>
<!-- Node15 -->
<g id="node16" class="node">
<title>Node15</title>
<g id="a_node16"><a xlink:href="util_8h.html" target="_top" xlink:title=" ">
<polygon fill="#ffffff" stroke="#000000" points="576,-168.5 576,-187.5 617,-187.5 617,-168.5 576,-168.5"/>
<text text-anchor="middle" x="596.5" y="-175.5" font-family="Helvetica,sans-Serif" font-size="10.00" fill="#000000">util.h</text>
</a>
</g>
</g>
<!-- Node0&#45;&gt;Node15 -->
<g id="edge19" class="edge">
<title>Node0&#45;&gt;Node15</title>
<path fill="none" stroke="#191970" d="M367.6432,-227.1402C416.0424,-219.8903 492.1633,-207.1687 565.8042,-188.1823"/>
<polygon fill="#191970" stroke="#191970" points="566.9197,-191.5082 575.7054,-185.587 565.1447,-184.737 566.9197,-191.5082"/>
</g>
<!-- Node7&#45;&gt;Node2 -->
<g id="edge8" class="edge">
<title>Node7&#45;&gt;Node2</title>
<path fill="none" stroke="#191970" d="M145.5,-168.2455C145.5,-160.9382 145.5,-150.6944 145.5,-141.7046"/>
<polygon fill="#191970" stroke="#191970" points="149.0001,-141.6426 145.5,-131.6427 142.0001,-141.6427 149.0001,-141.6426"/>
</g>
<!-- Node9 -->
<g id="node10" class="node">
<title>Node9</title>
<g id="a_node10"><a xlink:title=" ">
<polygon fill="#ffffff" stroke="#bfbfbf" points="136.5,-56.5 136.5,-75.5 192.5,-75.5 192.5,-56.5 136.5,-56.5"/>
<text text-anchor="middle" x="164.5" y="-63.5" font-family="Helvetica,sans-Serif" font-size="10.00" fill="#000000">stdarg.h</text>
</a>
</g>
</g>
<!-- Node8&#45;&gt;Node9 -->
<g id="edge10" class="edge">
<title>Node8&#45;&gt;Node9</title>
<path fill="none" stroke="#191970" d="M226.436,-112.2455C215.1438,-103.814 198.6155,-91.4729 185.4729,-81.6598"/>
<polygon fill="#191970" stroke="#191970" points="187.5211,-78.8211 177.4143,-75.6427 183.3331,-84.4301 187.5211,-78.8211"/>
</g>
<!-- Node10 -->
<g id="node11" class="node">
<title>Node10</title>
<g id="a_node11"><a xlink:href="utp__types_8h.html" target="_top" xlink:title=" ">
<polygon fill="#ffffff" stroke="#000000" points="210.5,-56.5 210.5,-75.5 284.5,-75.5 284.5,-56.5 210.5,-56.5"/>
<text text-anchor="middle" x="247.5" y="-63.5" font-family="Helvetica,sans-Serif" font-size="10.00" fill="#000000">utp_types.h</text>
</a>
</g>
</g>
<!-- Node8&#45;&gt;Node10 -->
<g id="edge11" class="edge">
<title>Node8&#45;&gt;Node10</title>
<path fill="none" stroke="#191970" d="M240.8935,-112.2455C241.9374,-104.9382 243.4008,-94.6944 244.6851,-85.7046"/>
<polygon fill="#191970" stroke="#191970" points="248.173,-86.0372 246.1225,-75.6427 241.2434,-85.0472 248.173,-86.0372"/>
</g>
<!-- Node10&#45;&gt;Node6 -->
<g id="edge15" class="edge">
<title>Node10&#45;&gt;Node6</title>
<path fill="none" stroke="#191970" d="M263.1768,-56.2455C276.9856,-47.6534 297.3193,-35.0014 313.2292,-25.1018"/>
<polygon fill="#191970" stroke="#191970" points="315.3613,-27.8974 322.0028,-19.6427 311.6632,-21.954 315.3613,-27.8974"/>
</g>
<!-- Node11 -->
<g id="node12" class="node">
<title>Node11</title>
<g id="a_node12"><a xlink:href="in_8h.html" target="_top" xlink:title=" ">
<polygon fill="#ffffff" stroke="#000000" points="46.5,-.5 46.5,-19.5 118.5,-19.5 118.5,-.5 46.5,-.5"/>
<text text-anchor="middle" x="82.5" y="-7.5" font-family="Helvetica,sans-Serif" font-size="10.00" fill="#000000">netinet/in.h</text>
</a>
</g>
</g>
<!-- Node10&#45;&gt;Node11 -->
<g id="edge12" class="edge">
<title>Node10&#45;&gt;Node11</title>
<path fill="none" stroke="#191970" d="M219.1355,-56.3733C191.8173,-47.1016 150.3204,-33.0178 120.2262,-22.804"/>
<polygon fill="#191970" stroke="#191970" points="121.0887,-19.4008 110.4944,-19.5011 118.839,-26.0294 121.0887,-19.4008"/>
</g>
<!-- Node12 -->
<g id="node13" class="node">
<title>Node12</title>
<g id="a_node13"><a xlink:title=" ">
<polygon fill="#ffffff" stroke="#bfbfbf" points="137,-.5 137,-19.5 206,-19.5 206,-.5 137,-.5"/>
<text text-anchor="middle" x="171.5" y="-7.5" font-family="Helvetica,sans-Serif" font-size="10.00" fill="#000000">arpa/inet.h</text>
</a>
</g>
</g>
<!-- Node10&#45;&gt;Node12 -->
<g id="edge13" class="edge">
<title>Node10&#45;&gt;Node12</title>
<path fill="none" stroke="#191970" d="M234.2618,-56.2455C222.819,-47.814 206.0704,-35.4729 192.7525,-25.6598"/>
<polygon fill="#191970" stroke="#191970" points="194.7133,-22.757 184.5865,-19.6427 190.5609,-28.3924 194.7133,-22.757"/>
</g>
<!-- Node13 -->
<g id="node14" class="node">
<title>Node13</title>
<g id="a_node14"><a xlink:title=" ">
<polygon fill="#ffffff" stroke="#bfbfbf" points="224.5,-.5 224.5,-19.5 280.5,-19.5 280.5,-.5 224.5,-.5"/>
<text text-anchor="middle" x="252.5" y="-7.5" font-family="Helvetica,sans-Serif" font-size="10.00" fill="#000000">unistd.h</text>
</a>
</g>
</g>
<!-- Node10&#45;&gt;Node13 -->
<g id="edge14" class="edge">
<title>Node10&#45;&gt;Node13</title>
<path fill="none" stroke="#191970" d="M248.3709,-56.2455C249.0234,-48.9382 249.938,-38.6944 250.7407,-29.7046"/>
<polygon fill="#191970" stroke="#191970" points="254.2358,-29.9143 251.639,-19.6427 247.2635,-29.2918 254.2358,-29.9143"/>
</g>
<!-- Node14&#45;&gt;Node2 -->
<g id="edge17" class="edge">
<title>Node14&#45;&gt;Node2</title>
<path fill="none" stroke="#191970" d="M219.8232,-168.2455C206.0144,-159.6534 185.6807,-147.0014 169.7708,-137.1018"/>
<polygon fill="#191970" stroke="#191970" points="171.3368,-133.954 160.9972,-131.6427 167.6387,-139.8974 171.3368,-133.954"/>
</g>
<!-- Node14&#45;&gt;Node8 -->
<g id="edge18" class="edge">
<title>Node14&#45;&gt;Node8</title>
<path fill="none" stroke="#191970" d="M236.1967,-168.2455C236.7187,-160.9382 237.4504,-150.6944 238.0925,-141.7046"/>
<polygon fill="#191970" stroke="#191970" points="241.5898,-141.8667 238.8112,-131.6427 234.6076,-141.3679 241.5898,-141.8667"/>
</g>
</g>
</svg>
