<?xml version="1.0" encoding="UTF-8" standalone="no"?>
<!DOCTYPE svg PUBLIC "-//W3C//DTD SVG 1.1//EN"
 "http://www.w3.org/Graphics/SVG/1.1/DTD/svg11.dtd">
<!-- Generated by graphviz version 2.40.1 (20161225.0304)
 -->
<!-- Title: Array::Init Pages: 1 -->
<svg width="223pt" height="137pt"
 viewBox="0.00 0.00 223.00 137.00" xmlns="http://www.w3.org/2000/svg" xmlns:xlink="http://www.w3.org/1999/xlink">
<g id="graph0" class="graph" transform="scale(1 1) rotate(0) translate(4 133)">
<title>Array::Init</title>
<polygon fill="#ffffff" stroke="transparent" points="-4,4 -4,-133 219,-133 219,4 -4,4"/>
<!-- Node27 -->
<g id="node1" class="node">
<title>Node27</title>
<g id="a_node1"><a xlink:title=" ">
<polygon fill="#bfbfbf" stroke="#000000" points="151,-55 151,-74 215,-74 215,-55 151,-55"/>
<text text-anchor="middle" x="183" y="-62" font-family="Helvetica,sans-Serif" font-size="10.00" fill="#000000">Array::Init</text>
</a>
</g>
</g>
<!-- Node28 -->
<g id="node2" class="node">
<title>Node28</title>
<g id="a_node2"><a xlink:href="classArray.html#ab70f6698d63b2f42e312a47044c24838" target="_top" xlink:title=" ">
<polygon fill="#ffffff" stroke="#000000" points="0,-98.5 0,-128.5 115,-128.5 115,-98.5 0,-98.5"/>
<text text-anchor="start" x="8" y="-116.5" font-family="Helvetica,sans-Serif" font-size="10.00" fill="#000000">Array&lt; UTPSocket *</text>
<text text-anchor="middle" x="57.5" y="-105.5" font-family="Helvetica,sans-Serif" font-size="10.00" fill="#000000"> &gt;::Array</text>
</a>
</g>
</g>
<!-- Node27&#45;&gt;Node28 -->
<g id="edge1" class="edge">
<title>Node27&#45;&gt;Node28</title>
<path fill="none" stroke="#191970" d="M148.8546,-77.8317C132.5942,-84.1804 113.0734,-91.802 96.2585,-98.3672"/>
<polygon fill="#191970" stroke="#191970" points="150.4622,-80.9614 158.5044,-74.064 147.9163,-74.4408 150.4622,-80.9614"/>
</g>
<!-- Node29 -->
<g id="node3" class="node">
<title>Node29</title>
<g id="a_node3"><a xlink:href="classArray.html#ad0a1ac75a7cff2b2d835b7b416d864fb" target="_top" xlink:title=" ">
<polygon fill="#ffffff" stroke="#000000" points="0,-49.5 0,-79.5 115,-79.5 115,-49.5 0,-49.5"/>
<text text-anchor="start" x="8" y="-67.5" font-family="Helvetica,sans-Serif" font-size="10.00" fill="#000000">Array&lt; UTPSocket *</text>
<text text-anchor="middle" x="57.5" y="-56.5" font-family="Helvetica,sans-Serif" font-size="10.00" fill="#000000"> &gt;::Resize</text>
</a>
</g>
</g>
<!-- Node27&#45;&gt;Node29 -->
<g id="edge2" class="edge">
<title>Node27&#45;&gt;Node29</title>
<path fill="none" stroke="#191970" d="M140.6005,-64.5C132.3832,-64.5 123.6438,-64.5 115.0361,-64.5"/>
<polygon fill="#191970" stroke="#191970" points="140.6807,-68.0001 150.6806,-64.5 140.6806,-61.0001 140.6807,-68.0001"/>
</g>
<!-- Node30 -->
<g id="node4" class="node">
<title>Node30</title>
<g id="a_node4"><a xlink:href="classArray.html#aa2a002a32adf64d0eaaf975499c656c4" target="_top" xlink:title=" ">
<polygon fill="#ffffff" stroke="#000000" points="0,-.5 0,-30.5 115,-30.5 115,-.5 0,-.5"/>
<text text-anchor="start" x="8" y="-18.5" font-family="Helvetica,sans-Serif" font-size="10.00" fill="#000000">Array&lt; UTPSocket *</text>
<text text-anchor="middle" x="57.5" y="-7.5" font-family="Helvetica,sans-Serif" font-size="10.00" fill="#000000"> &gt;::Free</text>
</a>
</g>
</g>
<!-- Node27&#45;&gt;Node30 -->
<g id="edge3" class="edge">
<title>Node27&#45;&gt;Node30</title>
<path fill="none" stroke="#191970" d="M148.8546,-51.1683C132.5942,-44.8196 113.0734,-37.198 96.2585,-30.6328"/>
<polygon fill="#191970" stroke="#191970" points="147.9163,-54.5592 158.5044,-54.936 150.4622,-48.0386 147.9163,-54.5592"/>
</g>
</g>
</svg>
