<?xml version="1.0" encoding="UTF-8" standalone="no"?>
<!DOCTYPE svg PUBLIC "-//W3C//DTD SVG 1.1//EN"
 "http://www.w3.org/Graphics/SVG/1.1/DTD/svg11.dtd">
<!-- Generated by graphviz version 2.40.1 (20161225.0304)
 -->
<!-- Title: Array::Resize Pages: 1 -->
<svg width="239pt" height="137pt"
 viewBox="0.00 0.00 239.00 137.00" xmlns="http://www.w3.org/2000/svg" xmlns:xlink="http://www.w3.org/1999/xlink">
<g id="graph0" class="graph" transform="scale(1 1) rotate(0) translate(4 133)">
<title>Array::Resize</title>
<polygon fill="#ffffff" stroke="transparent" points="-4,4 -4,-133 235,-133 235,4 -4,4"/>
<!-- Node46 -->
<g id="node1" class="node">
<title>Node46</title>
<g id="a_node1"><a xlink:title=" ">
<polygon fill="#bfbfbf" stroke="#000000" points="151,-55 151,-74 231,-74 231,-55 151,-55"/>
<text text-anchor="middle" x="191" y="-62" font-family="Helvetica,sans-Serif" font-size="10.00" fill="#000000">Array::Resize</text>
</a>
</g>
</g>
<!-- Node47 -->
<g id="node2" class="node">
<title>Node47</title>
<g id="a_node2"><a xlink:href="classArray.html#ad92d30ee3cabdf14f87809b231a4efdb" target="_top" xlink:title=" ">
<polygon fill="#ffffff" stroke="#000000" points="0,-98.5 0,-128.5 115,-128.5 115,-98.5 0,-98.5"/>
<text text-anchor="start" x="8" y="-116.5" font-family="Helvetica,sans-Serif" font-size="10.00" fill="#000000">Array&lt; UTPSocket *</text>
<text text-anchor="middle" x="57.5" y="-105.5" font-family="Helvetica,sans-Serif" font-size="10.00" fill="#000000"> &gt;::Init</text>
</a>
</g>
</g>
<!-- Node46&#45;&gt;Node47 -->
<g id="edge1" class="edge">
<title>Node46&#45;&gt;Node47</title>
<path fill="none" stroke="#191970" d="M155.1253,-77.6675C137.6559,-84.0795 116.5678,-91.8197 98.4681,-98.463"/>
<polygon fill="#191970" stroke="#191970" points="156.7613,-80.7954 164.9429,-74.064 154.3493,-74.2241 156.7613,-80.7954"/>
</g>
<!-- Node48 -->
<g id="node3" class="node">
<title>Node48</title>
<g id="a_node3"><a xlink:href="classArray.html#af8eb0146e25e15330de197d4a652dd37" target="_top" xlink:title=" ">
<polygon fill="#ffffff" stroke="#000000" points="0,-49.5 0,-79.5 115,-79.5 115,-49.5 0,-49.5"/>
<text text-anchor="start" x="8" y="-67.5" font-family="Helvetica,sans-Serif" font-size="10.00" fill="#000000">Array&lt; UTPSocket *</text>
<text text-anchor="middle" x="57.5" y="-56.5" font-family="Helvetica,sans-Serif" font-size="10.00" fill="#000000"> &gt;::Grow</text>
</a>
</g>
</g>
<!-- Node46&#45;&gt;Node48 -->
<g id="edge2" class="edge">
<title>Node46&#45;&gt;Node48</title>
<path fill="none" stroke="#191970" d="M140.6824,-64.5C132.3947,-64.5 123.7467,-64.5 115.2938,-64.5"/>
<polygon fill="#191970" stroke="#191970" points="140.9456,-68.0001 150.9456,-64.5 140.9456,-61.0001 140.9456,-68.0001"/>
</g>
<!-- Node49 -->
<g id="node4" class="node">
<title>Node49</title>
<g id="a_node4"><a xlink:href="classArray.html#aff27889b8f5bab701db961502dd28b08" target="_top" xlink:title=" ">
<polygon fill="#ffffff" stroke="#000000" points="0,-.5 0,-30.5 115,-30.5 115,-.5 0,-.5"/>
<text text-anchor="start" x="8" y="-18.5" font-family="Helvetica,sans-Serif" font-size="10.00" fill="#000000">Array&lt; UTPSocket *</text>
<text text-anchor="middle" x="57.5" y="-7.5" font-family="Helvetica,sans-Serif" font-size="10.00" fill="#000000"> &gt;::Compact</text>
</a>
</g>
</g>
<!-- Node46&#45;&gt;Node49 -->
<g id="edge3" class="edge">
<title>Node46&#45;&gt;Node49</title>
<path fill="none" stroke="#191970" d="M155.1253,-51.3325C137.6559,-44.9205 116.5678,-37.1803 98.4681,-30.537"/>
<polygon fill="#191970" stroke="#191970" points="154.3493,-54.7759 164.9429,-54.936 156.7613,-48.2046 154.3493,-54.7759"/>
</g>
</g>
</svg>
