<?xml version="1.0" encoding="UTF-8" standalone="no"?>
<!DOCTYPE svg PUBLIC "-//W3C//DTD SVG 1.1//EN"
 "http://www.w3.org/Graphics/SVG/1.1/DTD/svg11.dtd">
<!-- Generated by graphviz version 2.40.1 (20161225.0304)
 -->
<!-- Title: include Pages: 1 -->
<svg width="166pt" height="148pt"
 viewBox="0.00 0.00 166.00 148.00" xmlns="http://www.w3.org/2000/svg" xmlns:xlink="http://www.w3.org/1999/xlink">
<g id="graph0" class="graph" transform="scale(1 1) rotate(0) translate(4 144)">
<title>include</title>
<polygon fill="#ffffff" stroke="transparent" points="-4,4 -4,-144 162,-144 162,4 -4,4"/>
<g id="clust1" class="cluster">
<title>clusterdir_d44c64559bbebec7f509842c48db8b23</title>
<g id="a_clust1"><a xlink:href="dir_d44c64559bbebec7f509842c48db8b23.html" target="_top">
<polygon fill="#eeeeff" stroke="#000000" points="8,-8 8,-132 150,-132 150,-8 8,-8"/>
</a>
</g>
</g>
<!-- dir_d44c64559bbebec7f509842c48db8b23 -->
<g id="node1" class="node">
<title>dir_d44c64559bbebec7f509842c48db8b23</title>
<text text-anchor="middle" x="79" y="-103.5" font-family="Helvetica,sans-Serif" font-size="10.00" fill="#000000">include</text>
</g>
<!-- dir_d0a04a149c821e4e65be9315f86ccf56 -->
<g id="node2" class="node">
<title>dir_d0a04a149c821e4e65be9315f86ccf56</title>
<g id="a_node2"><a xlink:href="dir_d0a04a149c821e4e65be9315f86ccf56.html" target="_top" xlink:title="netinet">
<polygon fill="#ffffff" stroke="#000000" points="70,-52 16,-52 16,-16 70,-16 70,-52"/>
<text text-anchor="middle" x="43" y="-31.5" font-family="Helvetica,sans-Serif" font-size="10.00" fill="#000000">netinet</text>
</a>
</g>
</g>
<!-- dir_d44c64559bbebec7f509842c48db8b23&#45;&gt;dir_d0a04a149c821e4e65be9315f86ccf56 -->
<g id="edge2" class="edge">
<title>dir_d44c64559bbebec7f509842c48db8b23&#45;&gt;dir_d0a04a149c821e4e65be9315f86ccf56</title>
<path fill="none" stroke="#000000" d="M69.9157,-87.8314C65.9385,-79.8771 61.1845,-70.369 56.7861,-61.5723"/>
<polygon fill="#000000" stroke="#000000" points="59.8093,-59.7923 52.2066,-52.4133 53.5483,-62.9228 59.8093,-59.7923"/>
<g id="a_edge2&#45;headlabel"><a xlink:href="dir_000000_000001.html" target="_top" xlink:title="1">
<text text-anchor="middle" x="63.9563" y="-59.2377" font-family="Helvetica,sans-Serif" font-size="10.00" fill="#000000">1</text>
</a>
</g>
</g>
<!-- dir_317ea3797c15f4a1d9c156bc812661ca -->
<g id="node3" class="node">
<title>dir_317ea3797c15f4a1d9c156bc812661ca</title>
<g id="a_node3"><a xlink:href="dir_317ea3797c15f4a1d9c156bc812661ca.html" target="_top" xlink:title="sys">
<polygon fill="#ffffff" stroke="#000000" points="142,-52 88,-52 88,-16 142,-16 142,-52"/>
<text text-anchor="middle" x="115" y="-31.5" font-family="Helvetica,sans-Serif" font-size="10.00" fill="#000000">sys</text>
</a>
</g>
</g>
<!-- dir_d44c64559bbebec7f509842c48db8b23&#45;&gt;dir_317ea3797c15f4a1d9c156bc812661ca -->
<g id="edge1" class="edge">
<title>dir_d44c64559bbebec7f509842c48db8b23&#45;&gt;dir_317ea3797c15f4a1d9c156bc812661ca</title>
<path fill="none" stroke="#000000" d="M88.0843,-87.8314C92.0615,-79.8771 96.8155,-70.369 101.2139,-61.5723"/>
<polygon fill="#000000" stroke="#000000" points="104.4517,-62.9228 105.7934,-52.4133 98.1907,-59.7923 104.4517,-62.9228"/>
<g id="a_edge1&#45;headlabel"><a xlink:href="dir_000000_000002.html" target="_top" xlink:title="1">
<text text-anchor="middle" x="105.3837" y="-64.9077" font-family="Helvetica,sans-Serif" font-size="10.00" fill="#000000">1</text>
</a>
</g>
</g>
</g>
</svg>
