<?xml version="1.0" encoding="UTF-8" standalone="no"?>
<!DOCTYPE svg PUBLIC "-//W3C//DTD SVG 1.1//EN"
 "http://www.w3.org/Graphics/SVG/1.1/DTD/svg11.dtd">
<!-- Generated by graphviz version 2.40.1 (20161225.0304)
 -->
<!-- Title: include/netinet/in.h Pages: 1 -->
<!--zoomable 252 -->
<svg id="main" version="1.1" xmlns="http://www.w3.org/2000/svg" xmlns:xlink="http://www.w3.org/1999/xlink" xml:space="preserve" onload="init(evt)">
<style type="text/css"><![CDATA[
.edge:hover path { stroke: red; }
.edge:hover polygon { stroke: red; fill: red; }
]]></style>
<script type="text/javascript"><![CDATA[
var edges = document.getElementsByTagName('g');
if (edges && edges.length) {
  for (var i=0;i<edges.length;i++) {
    if (edges[i].id.substr(0,4)=='edge') {
      edges[i].setAttribute('class','edge');
    }
  }
}
]]></script>
        <defs>
                <circle id="rim" cx="0" cy="0" r="7"/>
                <circle id="rim2" cx="0" cy="0" r="3.5"/>
                <g id="zoomPlus">
                        <use xlink:href="#rim" fill="#404040">
                                <set attributeName="fill" to="#808080" begin="zoomplus.mouseover" end="zoomplus.mouseout"/>
                        </use>
                        <path d="M-4,0h8M0,-4v8" fill="none" stroke="white" stroke-width="1.5" pointer-events="none"/>
                </g>
                <g id="zoomMin">
                        <use xlink:href="#rim" fill="#404040">
                                <set attributeName="fill" to="#808080" begin="zoomminus.mouseover" end="zoomminus.mouseout"/>
                        </use>
                        <path d="M-4,0h8" fill="none" stroke="white" stroke-width="1.5" pointer-events="none"/>
                </g>
                <g id="dirArrow">
                        <path fill="none" stroke="white" stroke-width="1.5" d="M0,-3.0v7 M-2.5,-0.5L0,-3.0L2.5,-0.5"/>
                </g>
               <g id="resetDef">
                       <use xlink:href="#rim2" fill="#404040">
                               <set attributeName="fill" to="#808080" begin="reset.mouseover" end="reset.mouseout"/>
                       </use>
               </g>
        </defs>

<script type="text/javascript">
var viewWidth = 778;
var viewHeight = 252;
var sectionId = 'dynsection-0';
</script>
<script xlink:href="svgpan.js"/>
<svg id="graph" class="graph">
<g id="viewport">
<title>include/netinet/in.h</title>
<polygon fill="#ffffff" stroke="transparent" points="-4,4 -4,-248 773.5,-248 773.5,4 -4,4"/>
<!-- Node1 -->
<g id="node1" class="node">
<title>Node1</title>
<g id="a_node1"><a xlink:title=" ">
<polygon fill="#bfbfbf" stroke="#000000" points="474.5,-224.5 474.5,-243.5 584.5,-243.5 584.5,-224.5 474.5,-224.5"/>
<text text-anchor="middle" x="529.5" y="-231.5" font-family="Helvetica,sans-Serif" font-size="10.00" fill="#000000">include/netinet/in.h</text>
</a>
</g>
</g>
<!-- Node2 -->
<g id="node2" class="node">
<title>Node2</title>
<g id="a_node2"><a xlink:href="utp__types_8h.html" target="_top" xlink:title=" ">
<polygon fill="#ffffff" stroke="#000000" points="473.5,-168.5 473.5,-187.5 585.5,-187.5 585.5,-168.5 473.5,-168.5"/>
<text text-anchor="middle" x="529.5" y="-175.5" font-family="Helvetica,sans-Serif" font-size="10.00" fill="#000000">include/utp_types.h</text>
</a>
</g>
</g>
<!-- Node1&#45;&gt;Node2 -->
<g id="edge1" class="edge">
<title>Node1&#45;&gt;Node2</title>
<path fill="none" stroke="#191970" d="M529.5,-214.1575C529.5,-205.155 529.5,-194.9199 529.5,-187.6427"/>
<polygon fill="#191970" stroke="#191970" points="526.0001,-214.2455 529.5,-224.2455 533.0001,-214.2456 526.0001,-214.2455"/>
</g>
<!-- Node3 -->
<g id="node3" class="node">
<title>Node3</title>
<g id="a_node3"><a xlink:href="utp_8h.html" target="_top" xlink:title=" ">
<polygon fill="#ffffff" stroke="#000000" points="229.5,-112.5 229.5,-131.5 309.5,-131.5 309.5,-112.5 229.5,-112.5"/>
<text text-anchor="middle" x="269.5" y="-119.5" font-family="Helvetica,sans-Serif" font-size="10.00" fill="#000000">include/utp.h</text>
</a>
</g>
</g>
<!-- Node2&#45;&gt;Node3 -->
<g id="edge2" class="edge">
<title>Node2&#45;&gt;Node3</title>
<path fill="none" stroke="#191970" d="M475.2425,-166.3138C425.9325,-155.6931 354.2961,-140.2638 309.8703,-130.6951"/>
<polygon fill="#191970" stroke="#191970" points="474.587,-169.7528 485.0998,-168.4369 476.061,-162.9097 474.587,-169.7528"/>
</g>
<!-- Node10 -->
<g id="node10" class="node">
<title>Node10</title>
<g id="a_node10"><a xlink:href="utp__templates_8h.html" target="_top" xlink:title=" ">
<polygon fill="#ffffff" stroke="#000000" points="415.5,-112.5 415.5,-131.5 549.5,-131.5 549.5,-112.5 415.5,-112.5"/>
<text text-anchor="middle" x="482.5" y="-119.5" font-family="Helvetica,sans-Serif" font-size="10.00" fill="#000000">include/utp_templates.h</text>
</a>
</g>
</g>
<!-- Node2&#45;&gt;Node10 -->
<g id="edge13" class="edge">
<title>Node2&#45;&gt;Node10</title>
<path fill="none" stroke="#191970" d="M514.8128,-160.5004C506.8204,-150.9775 497.2375,-139.5596 490.593,-131.6427"/>
<polygon fill="#191970" stroke="#191970" points="512.2036,-162.8358 521.3132,-168.2455 517.5654,-158.3357 512.2036,-162.8358"/>
</g>
<!-- Node11 -->
<g id="node11" class="node">
<title>Node11</title>
<g id="a_node11"><a xlink:href="utp__hash_8h.html" target="_top" xlink:title=" ">
<polygon fill="#ffffff" stroke="#000000" points="523.5,-56.5 523.5,-75.5 631.5,-75.5 631.5,-56.5 523.5,-56.5"/>
<text text-anchor="middle" x="577.5" y="-63.5" font-family="Helvetica,sans-Serif" font-size="10.00" fill="#000000">include/utp_hash.h</text>
</a>
</g>
</g>
<!-- Node2&#45;&gt;Node11 -->
<g id="edge17" class="edge">
<title>Node2&#45;&gt;Node11</title>
<path fill="none" stroke="#191970" d="M542.6153,-159.8445C548.0955,-151.6398 554.1792,-141.6391 558.5,-132 567.0839,-112.8502 572.8454,-88.8361 575.6081,-75.6973"/>
<polygon fill="#191970" stroke="#191970" points="539.6246,-158.0155 536.8106,-168.2298 545.3801,-161.9998 539.6246,-158.0155"/>
</g>
<!-- Node12 -->
<g id="node12" class="node">
<title>Node12</title>
<g id="a_node12"><a xlink:href="utp__packedsockaddr_8h.html" target="_top" xlink:title=" ">
<polygon fill="#ffffff" stroke="#000000" points="605.5,-112.5 605.5,-131.5 769.5,-131.5 769.5,-112.5 605.5,-112.5"/>
<text text-anchor="middle" x="687.5" y="-119.5" font-family="Helvetica,sans-Serif" font-size="10.00" fill="#000000">include/utp_packedsockaddr.h</text>
</a>
</g>
</g>
<!-- Node2&#45;&gt;Node12 -->
<g id="edge18" class="edge">
<title>Node2&#45;&gt;Node12</title>
<path fill="none" stroke="#191970" d="M566.3955,-164.9231C595.2787,-154.686 634.7706,-140.6889 660.6933,-131.5011"/>
<polygon fill="#191970" stroke="#191970" points="564.9174,-161.7336 556.6612,-168.3733 567.2559,-168.3314 564.9174,-161.7336"/>
</g>
<!-- Node4 -->
<g id="node4" class="node">
<title>Node4</title>
<g id="a_node4"><a xlink:href="utp__callbacks_8h.html" target="_top" xlink:title=" ">
<polygon fill="#ffffff" stroke="#000000" points="298,-56.5 298,-75.5 429,-75.5 429,-56.5 298,-56.5"/>
<text text-anchor="middle" x="363.5" y="-63.5" font-family="Helvetica,sans-Serif" font-size="10.00" fill="#000000">include/utp_callbacks.h</text>
</a>
</g>
</g>
<!-- Node3&#45;&gt;Node4 -->
<g id="edge3" class="edge">
<title>Node3&#45;&gt;Node4</title>
<path fill="none" stroke="#191970" d="M294.6005,-107.0465C311.326,-97.0824 332.8168,-84.2794 347.3141,-75.6427"/>
<polygon fill="#191970" stroke="#191970" points="292.6732,-104.1206 285.8736,-112.2455 296.2559,-110.1343 292.6732,-104.1206"/>
</g>
<!-- Node5 -->
<g id="node5" class="node">
<title>Node5</title>
<g id="a_node5"><a xlink:href="utp__internal_8h.html" target="_top" xlink:title=" ">
<polygon fill="#ffffff" stroke="#000000" points="415.5,-.5 415.5,-19.5 537.5,-19.5 537.5,-.5 415.5,-.5"/>
<text text-anchor="middle" x="476.5" y="-7.5" font-family="Helvetica,sans-Serif" font-size="10.00" fill="#000000">include/utp_internal.h</text>
</a>
</g>
</g>
<!-- Node3&#45;&gt;Node5 -->
<g id="edge6" class="edge">
<title>Node3&#45;&gt;Node5</title>
<path fill="none" stroke="#191970" d="M319.66,-112.7466C362.4633,-104.0681 419.944,-90.3145 438.5,-76 457.5533,-61.3018 468.7216,-34.1441 473.5862,-19.6717"/>
<polygon fill="#191970" stroke="#191970" points="318.8005,-109.3489 309.6761,-114.7337 320.1669,-116.2143 318.8005,-109.3489"/>
</g>
<!-- Node6 -->
<g id="node6" class="node">
<title>Node6</title>
<g id="a_node6"><a xlink:href="callbacks_8c.html" target="_top" xlink:title=" ">
<polygon fill="#ffffff" stroke="#000000" points="158.5,-.5 158.5,-19.5 256.5,-19.5 256.5,-.5 158.5,-.5"/>
<text text-anchor="middle" x="207.5" y="-7.5" font-family="Helvetica,sans-Serif" font-size="10.00" fill="#000000">main/callbacks.c</text>
</a>
</g>
</g>
<!-- Node3&#45;&gt;Node6 -->
<g id="edge7" class="edge">
<title>Node3&#45;&gt;Node6</title>
<path fill="none" stroke="#191970" d="M266.3497,-102.2954C263.5808,-88.6513 258.6814,-70.4225 250.5,-56 242.4091,-41.7371 229.0369,-28.3956 219.3501,-19.7927"/>
<polygon fill="#191970" stroke="#191970" points="262.971,-103.2792 268.1998,-112.4938 269.8586,-102.0297 262.971,-103.2792"/>
</g>
<!-- Node7 -->
<g id="node7" class="node">
<title>Node7</title>
<g id="a_node7"><a xlink:href="callbacks_8h.html" target="_top" xlink:title=" ">
<polygon fill="#ffffff" stroke="#000000" points="18,-56.5 18,-75.5 155,-75.5 155,-56.5 18,-56.5"/>
<text text-anchor="middle" x="86.5" y="-63.5" font-family="Helvetica,sans-Serif" font-size="10.00" fill="#000000">main/include/callbacks.h</text>
</a>
</g>
</g>
<!-- Node3&#45;&gt;Node7 -->
<g id="edge8" class="edge">
<title>Node3&#45;&gt;Node7</title>
<path fill="none" stroke="#191970" d="M228.075,-109.3235C194.5144,-99.0536 147.966,-84.8093 117.5483,-75.5011"/>
<polygon fill="#191970" stroke="#191970" points="227.4547,-112.7938 238.0412,-112.3733 229.5031,-106.1002 227.4547,-112.7938"/>
</g>
<!-- Node8 -->
<g id="node8" class="node">
<title>Node8</title>
<g id="a_node8"><a xlink:href="main_8c.html" target="_top" xlink:title=" ">
<polygon fill="#ffffff" stroke="#000000" points="0,-.5 0,-19.5 77,-19.5 77,-.5 0,-.5"/>
<text text-anchor="middle" x="38.5" y="-7.5" font-family="Helvetica,sans-Serif" font-size="10.00" fill="#000000">main/main.c</text>
</a>
</g>
</g>
<!-- Node3&#45;&gt;Node8 -->
<g id="edge11" class="edge">
<title>Node3&#45;&gt;Node8</title>
<path fill="none" stroke="#191970" d="M219.3023,-120.5456C151.1729,-117.3927 34.8742,-107.429 8.5,-76 -5.9017,-58.8381 14.2278,-33.6337 27.8311,-19.8679"/>
<polygon fill="#191970" stroke="#191970" points="219.254,-124.0467 229.3951,-120.9793 219.5546,-117.0531 219.254,-124.0467"/>
</g>
<!-- Node9 -->
<g id="node9" class="node">
<title>Node9</title>
<g id="a_node9"><a xlink:href="util_8c.html" target="_top" xlink:title=" ">
<polygon fill="#ffffff" stroke="#000000" points="173.5,-56.5 173.5,-75.5 241.5,-75.5 241.5,-56.5 173.5,-56.5"/>
<text text-anchor="middle" x="207.5" y="-63.5" font-family="Helvetica,sans-Serif" font-size="10.00" fill="#000000">main/util.c</text>
</a>
</g>
</g>
<!-- Node3&#45;&gt;Node9 -->
<g id="edge12" class="edge">
<title>Node3&#45;&gt;Node9</title>
<path fill="none" stroke="#191970" d="M251.0779,-105.3607C240.3519,-95.6727 227.2066,-83.7995 218.1758,-75.6427"/>
<polygon fill="#191970" stroke="#191970" points="248.9334,-108.14 258.7004,-112.2455 253.6254,-102.9453 248.9334,-108.14"/>
</g>
<!-- Node4&#45;&gt;Node5 -->
<g id="edge4" class="edge">
<title>Node4&#45;&gt;Node5</title>
<path fill="none" stroke="#191970" d="M386.8371,-51.46C405.8531,-41.4388 432.4174,-28.3993 451.7973,-19.6427"/>
<polygon fill="#191970" stroke="#191970" points="385.0738,-48.434 377.9163,-56.2455 388.3829,-54.6025 385.0738,-48.434"/>
</g>
<!-- Node5&#45;&gt;Node4 -->
<g id="edge5" class="edge">
<title>Node5&#45;&gt;Node4</title>
<path fill="none" stroke="#191970" d="M453.6273,-24.2951C434.5698,-34.354 407.7085,-47.545 388.1674,-56.3733"/>
<polygon fill="#191970" stroke="#191970" points="455.3945,-27.3188 462.5454,-19.5011 452.0801,-21.1532 455.3945,-27.3188"/>
</g>
<!-- Node7&#45;&gt;Node6 -->
<g id="edge9" class="edge">
<title>Node7&#45;&gt;Node6</title>
<path fill="none" stroke="#191970" d="M116.5104,-52.1109C138.4525,-41.9559 167.6388,-28.4482 186.9708,-19.5011"/>
<polygon fill="#191970" stroke="#191970" points="114.9058,-48.9968 107.3006,-56.3733 117.8459,-55.3494 114.9058,-48.9968"/>
</g>
<!-- Node7&#45;&gt;Node8 -->
<g id="edge10" class="edge">
<title>Node7&#45;&gt;Node8</title>
<path fill="none" stroke="#191970" d="M71.5003,-48.5004C63.3378,-38.9775 53.5511,-27.5596 46.7651,-19.6427"/>
<polygon fill="#191970" stroke="#191970" points="68.9737,-50.9307 78.139,-56.2455 74.2885,-46.3752 68.9737,-50.9307"/>
</g>
<!-- Node10&#45;&gt;Node5 -->
<g id="edge14" class="edge">
<title>Node10&#45;&gt;Node5</title>
<path fill="none" stroke="#191970" d="M481.443,-102.2702C480.1428,-77.9985 477.9878,-37.7725 477.0103,-19.5249"/>
<polygon fill="#191970" stroke="#191970" points="477.9584,-102.6525 481.9884,-112.4509 484.9484,-102.278 477.9584,-102.6525"/>
</g>
<!-- Node10&#45;&gt;Node11 -->
<g id="edge15" class="edge">
<title>Node10&#45;&gt;Node11</title>
<path fill="none" stroke="#191970" d="M507.8676,-107.0465C524.771,-97.0824 546.4904,-84.2794 561.1419,-75.6427"/>
<polygon fill="#191970" stroke="#191970" points="505.8851,-104.1522 499.0477,-112.2455 509.4398,-110.1825 505.8851,-104.1522"/>
</g>
<!-- Node11&#45;&gt;Node5 -->
<g id="edge16" class="edge">
<title>Node11&#45;&gt;Node5</title>
<path fill="none" stroke="#191970" d="M551.0281,-51.3225C532.9875,-41.3198 509.6123,-28.3593 493.8913,-19.6427"/>
<polygon fill="#191970" stroke="#191970" points="549.4643,-54.4574 559.9071,-56.2455 552.8587,-48.3354 549.4643,-54.4574"/>
</g>
<!-- Node12&#45;&gt;Node5 -->
<g id="edge19" class="edge">
<title>Node12&#45;&gt;Node5</title>
<path fill="none" stroke="#191970" d="M678.5365,-103.0264C670.5571,-88.1271 657.5172,-67.9627 640.5,-56 610.2604,-34.7423 570.4511,-23.2768 537.6271,-17.1091"/>
<polygon fill="#191970" stroke="#191970" points="675.6058,-104.9872 683.239,-112.3346 681.8538,-101.8307 675.6058,-104.9872"/>
</g>
</g>
</svg>
        <g id="navigator" transform="translate(0 0)" fill="#404254">
                <rect fill="#f2f5e9" fill-opacity="0.5" stroke="#606060" stroke-width=".5" x="0" y="0" width="60" height="60"/>
                <use id="zoomplus" xlink:href="#zoomPlus" x="17" y="9" onmousedown="handleZoom(evt,'in')"/>
                <use id="zoomminus" xlink:href="#zoomMin" x="42" y="9" onmousedown="handleZoom(evt,'out')"/>
                <use id="reset" xlink:href="#resetDef" x="30" y="36" onmousedown="handleReset()"/>
                <g id="arrowUp" xlink:href="#dirArrow" transform="translate(30 24)" onmousedown="handlePan(0,-1)">
                  <use xlink:href="#rim" fill="#404040">
                        <set attributeName="fill" to="#808080" begin="arrowUp.mouseover" end="arrowUp.mouseout"/>
                  </use>
                  <path fill="none" stroke="white" stroke-width="1.5" d="M0,-3.0v7 M-2.5,-0.5L0,-3.0L2.5,-0.5"/>
                </g>
                <g id="arrowRight" xlink:href="#dirArrow" transform="rotate(90) translate(36 -43)" onmousedown="handlePan(1,0)">
                  <use xlink:href="#rim" fill="#404040">
                        <set attributeName="fill" to="#808080" begin="arrowRight.mouseover" end="arrowRight.mouseout"/>
                  </use>
                  <path fill="none" stroke="white" stroke-width="1.5" d="M0,-3.0v7 M-2.5,-0.5L0,-3.0L2.5,-0.5"/>
                </g>
                <g id="arrowDown" xlink:href="#dirArrow" transform="rotate(180) translate(-30 -48)" onmousedown="handlePan(0,1)">
                  <use xlink:href="#rim" fill="#404040">
                        <set attributeName="fill" to="#808080" begin="arrowDown.mouseover" end="arrowDown.mouseout"/>
                  </use>
                  <path fill="none" stroke="white" stroke-width="1.5" d="M0,-3.0v7 M-2.5,-0.5L0,-3.0L2.5,-0.5"/>
                </g>
                <g id="arrowLeft" xlink:href="#dirArrow" transform="rotate(270) translate(-36 17)" onmousedown="handlePan(-1,0)">
                  <use xlink:href="#rim" fill="#404040">
                        <set attributeName="fill" to="#808080" begin="arrowLeft.mouseover" end="arrowLeft.mouseout"/>
                  </use>
                  <path fill="none" stroke="white" stroke-width="1.5" d="M0,-3.0v7 M-2.5,-0.5L0,-3.0L2.5,-0.5"/>
                </g>
        </g>
        <svg viewBox="0 0 15 15" width="100%" height="30px" preserveAspectRatio="xMaxYMin meet">
         <g id="arrow_out" transform="scale(0.3 0.3)">
          <a xlink:href="in_8h__dep__incl_org.svg" target="_base">
           <rect id="button" ry="5" rx="5" y="6" x="6" height="38" width="38"
                fill="#f2f5e9" fill-opacity="0.5" stroke="#606060" stroke-width="1.0"/>
           <path id="arrow"
             d="M 11.500037,31.436501 C 11.940474,20.09759 22.043105,11.32322 32.158766,21.979434 L 37.068811,17.246167 C 37.068811,17.246167 37.088388,32 37.088388,32 L 22.160133,31.978069 C 22.160133,31.978069 26.997745,27.140456 26.997745,27.140456 C 18.528582,18.264221 13.291696,25.230495 11.500037,31.436501 z"
             style="fill:#404040;"/>
          </a>
         </g>
        </svg>
</svg>
