<?xml version="1.0" encoding="UTF-8" standalone="no"?>
<!DOCTYPE svg PUBLIC "-//W3C//DTD SVG 1.1//EN"
 "http://www.w3.org/Graphics/SVG/1.1/DTD/svg11.dtd">
<!-- Generated by graphviz version 2.40.1 (20161225.0304)
 -->
<!-- Title: main/main.c Pages: 1 -->
<svg width="756pt" height="252pt"
 viewBox="0.00 0.00 756.00 252.00" xmlns="http://www.w3.org/2000/svg" xmlns:xlink="http://www.w3.org/1999/xlink">
<g id="graph0" class="graph" transform="scale(1 1) rotate(0) translate(4 248)">
<title>main/main.c</title>
<polygon fill="#ffffff" stroke="transparent" points="-4,4 -4,-248 752,-248 752,4 -4,4"/>
<!-- Node0 -->
<g id="node1" class="node">
<title>Node0</title>
<g id="a_node1"><a xlink:title=" ">
<polygon fill="#bfbfbf" stroke="#000000" points="360,-224.5 360,-243.5 437,-243.5 437,-224.5 360,-224.5"/>
<text text-anchor="middle" x="398.5" y="-231.5" font-family="Helvetica,sans-Serif" font-size="10.00" fill="#000000">main/main.c</text>
</a>
</g>
</g>
<!-- Node1 -->
<g id="node2" class="node">
<title>Node1</title>
<g id="a_node2"><a xlink:title=" ">
<polygon fill="#ffffff" stroke="#bfbfbf" points="0,-168.5 0,-187.5 51,-187.5 51,-168.5 0,-168.5"/>
<text text-anchor="middle" x="25.5" y="-175.5" font-family="Helvetica,sans-Serif" font-size="10.00" fill="#000000">errno.h</text>
</a>
</g>
</g>
<!-- Node0&#45;&gt;Node1 -->
<g id="edge1" class="edge">
<title>Node0&#45;&gt;Node1</title>
<path fill="none" stroke="#191970" d="M359.7892,-230.6686C298.2817,-224.959 174.3745,-211.7613 60.9066,-188.0536"/>
<polygon fill="#191970" stroke="#191970" points="61.5225,-184.6064 51.0136,-185.9538 60.069,-191.4539 61.5225,-184.6064"/>
</g>
<!-- Node2 -->
<g id="node3" class="node">
<title>Node2</title>
<g id="a_node3"><a xlink:href="netdb_8h.html" target="_top" xlink:title=" ">
<polygon fill="#ffffff" stroke="#000000" points="69,-168.5 69,-187.5 122,-187.5 122,-168.5 69,-168.5"/>
<text text-anchor="middle" x="95.5" y="-175.5" font-family="Helvetica,sans-Serif" font-size="10.00" fill="#000000">netdb.h</text>
</a>
</g>
</g>
<!-- Node0&#45;&gt;Node2 -->
<g id="edge2" class="edge">
<title>Node0&#45;&gt;Node2</title>
<path fill="none" stroke="#191970" d="M359.7938,-228.5776C309.5238,-221.2622 218.8977,-207.1455 131.9245,-187.9114"/>
<polygon fill="#191970" stroke="#191970" points="132.684,-184.4948 122.161,-185.7268 131.1555,-191.3259 132.684,-184.4948"/>
</g>
<!-- Node3 -->
<g id="node4" class="node">
<title>Node3</title>
<g id="a_node4"><a xlink:href="poll_8h.html" target="_top" xlink:title=" ">
<polygon fill="#ffffff" stroke="#000000" points="140.5,-168.5 140.5,-187.5 184.5,-187.5 184.5,-168.5 140.5,-168.5"/>
<text text-anchor="middle" x="162.5" y="-175.5" font-family="Helvetica,sans-Serif" font-size="10.00" fill="#000000">poll.h</text>
</a>
</g>
</g>
<!-- Node0&#45;&gt;Node3 -->
<g id="edge3" class="edge">
<title>Node0&#45;&gt;Node3</title>
<path fill="none" stroke="#191970" d="M359.6611,-225.6086C319.2728,-216.7558 254.2729,-202.1525 198.5,-188 197.2268,-187.6769 195.9298,-187.3424 194.6207,-187.0002"/>
<polygon fill="#191970" stroke="#191970" points="195.1088,-183.5073 184.543,-184.2916 193.2918,-190.2674 195.1088,-183.5073"/>
</g>
<!-- Node4 -->
<g id="node5" class="node">
<title>Node4</title>
<g id="a_node5"><a xlink:title=" ">
<polygon fill="#ffffff" stroke="#bfbfbf" points="250,-112.5 250,-131.5 303,-131.5 303,-112.5 250,-112.5"/>
<text text-anchor="middle" x="276.5" y="-119.5" font-family="Helvetica,sans-Serif" font-size="10.00" fill="#000000">stdint.h</text>
</a>
</g>
</g>
<!-- Node0&#45;&gt;Node4 -->
<g id="edge4" class="edge">
<title>Node0&#45;&gt;Node4</title>
<path fill="none" stroke="#191970" d="M359.8671,-228.7983C315.551,-221.9468 246.9902,-208.3338 231.5,-188 218.789,-171.3143 236.8059,-151.3066 253.6784,-137.7267"/>
<polygon fill="#191970" stroke="#191970" points="255.8778,-140.4514 261.7297,-131.6193 251.6473,-134.8744 255.8778,-140.4514"/>
</g>
<!-- Node5 -->
<g id="node6" class="node">
<title>Node5</title>
<g id="a_node6"><a xlink:title=" ">
<polygon fill="#ffffff" stroke="#bfbfbf" points="496.5,-168.5 496.5,-187.5 546.5,-187.5 546.5,-168.5 496.5,-168.5"/>
<text text-anchor="middle" x="521.5" y="-175.5" font-family="Helvetica,sans-Serif" font-size="10.00" fill="#000000">stdio.h</text>
</a>
</g>
</g>
<!-- Node0&#45;&gt;Node5 -->
<g id="edge5" class="edge">
<title>Node0&#45;&gt;Node5</title>
<path fill="none" stroke="#191970" d="M419.6445,-224.3733C439.3892,-215.3838 469.0698,-201.8706 491.3055,-191.7471"/>
<polygon fill="#191970" stroke="#191970" points="492.9806,-194.8302 500.6315,-187.5011 490.08,-188.4594 492.9806,-194.8302"/>
</g>
<!-- Node6 -->
<g id="node7" class="node">
<title>Node6</title>
<g id="a_node7"><a xlink:title=" ">
<polygon fill="#ffffff" stroke="#bfbfbf" points="565,-168.5 565,-187.5 618,-187.5 618,-168.5 565,-168.5"/>
<text text-anchor="middle" x="591.5" y="-175.5" font-family="Helvetica,sans-Serif" font-size="10.00" fill="#000000">stdlib.h</text>
</a>
</g>
</g>
<!-- Node0&#45;&gt;Node6 -->
<g id="edge6" class="edge">
<title>Node0&#45;&gt;Node6</title>
<path fill="none" stroke="#191970" d="M431.6779,-224.3733C466.0106,-214.4114 519.4891,-198.8944 554.9989,-188.591"/>
<polygon fill="#191970" stroke="#191970" points="556.3251,-191.8506 564.9537,-185.7026 554.3745,-185.1279 556.3251,-191.8506"/>
</g>
<!-- Node7 -->
<g id="node8" class="node">
<title>Node7</title>
<g id="a_node8"><a xlink:title=" ">
<polygon fill="#ffffff" stroke="#bfbfbf" points="636,-168.5 636,-187.5 689,-187.5 689,-168.5 636,-168.5"/>
<text text-anchor="middle" x="662.5" y="-175.5" font-family="Helvetica,sans-Serif" font-size="10.00" fill="#000000">string.h</text>
</a>
</g>
</g>
<!-- Node0&#45;&gt;Node7 -->
<g id="edge7" class="edge">
<title>Node0&#45;&gt;Node7</title>
<path fill="none" stroke="#191970" d="M437.1998,-227.2038C480.8476,-219.3235 554.1415,-205.4456 625.7201,-188.3051"/>
<polygon fill="#191970" stroke="#191970" points="626.9089,-191.6185 635.8055,-185.8651 625.2629,-184.8148 626.9089,-191.6185"/>
</g>
<!-- Node8 -->
<g id="node9" class="node">
<title>Node8</title>
<g id="a_node9"><a xlink:href="socket_8h.html" target="_top" xlink:title=" ">
<polygon fill="#ffffff" stroke="#000000" points="430,-.5 430,-19.5 507,-19.5 507,-.5 430,-.5"/>
<text text-anchor="middle" x="468.5" y="-7.5" font-family="Helvetica,sans-Serif" font-size="10.00" fill="#000000">sys/socket.h</text>
</a>
</g>
</g>
<!-- Node0&#45;&gt;Node8 -->
<g id="edge8" class="edge">
<title>Node0&#45;&gt;Node8</title>
<path fill="none" stroke="#191970" d="M405.6908,-224.2555C412.0134,-215.2614 421.0361,-201.3208 426.5,-188 449.0275,-133.0792 461.0515,-63.4414 465.8987,-29.8737"/>
<polygon fill="#191970" stroke="#191970" points="469.4182,-29.9728 467.3193,-19.5879 462.484,-29.015 469.4182,-29.9728"/>
</g>
<!-- Node9 -->
<g id="node10" class="node">
<title>Node9</title>
<g id="a_node10"><a xlink:href="types_8h.html" target="_top" xlink:title=" ">
<polygon fill="#ffffff" stroke="#000000" points="240.5,-168.5 240.5,-187.5 312.5,-187.5 312.5,-168.5 240.5,-168.5"/>
<text text-anchor="middle" x="276.5" y="-175.5" font-family="Helvetica,sans-Serif" font-size="10.00" fill="#000000">sys/types.h</text>
</a>
</g>
</g>
<!-- Node0&#45;&gt;Node9 -->
<g id="edge9" class="edge">
<title>Node0&#45;&gt;Node9</title>
<path fill="none" stroke="#191970" d="M377.5275,-224.3733C357.9433,-215.3838 328.5039,-201.8706 306.449,-191.7471"/>
<polygon fill="#191970" stroke="#191970" points="307.7473,-188.4919 297.1989,-187.5011 304.8271,-194.8538 307.7473,-188.4919"/>
</g>
<!-- Node10 -->
<g id="node11" class="node">
<title>Node10</title>
<g id="a_node11"><a xlink:href="utp_8h.html" target="_top" xlink:title=" ">
<polygon fill="#ffffff" stroke="#000000" points="350,-112.5 350,-131.5 391,-131.5 391,-112.5 350,-112.5"/>
<text text-anchor="middle" x="370.5" y="-119.5" font-family="Helvetica,sans-Serif" font-size="10.00" fill="#000000">utp.h</text>
</a>
</g>
</g>
<!-- Node0&#45;&gt;Node10 -->
<g id="edge11" class="edge">
<title>Node0&#45;&gt;Node10</title>
<path fill="none" stroke="#191970" d="M403.3867,-224.317C409.3155,-211.1945 417.6798,-187.1987 410.5,-168 406.3851,-156.9969 398.3185,-146.8874 390.5006,-138.9652"/>
<polygon fill="#191970" stroke="#191970" points="392.5985,-136.1329 382.9212,-131.82 387.7968,-141.2264 392.5985,-136.1329"/>
</g>
<!-- Node16 -->
<g id="node17" class="node">
<title>Node16</title>
<g id="a_node17"><a xlink:href="callbacks_8h.html" target="_top" xlink:title=" ">
<polygon fill="#ffffff" stroke="#000000" points="331,-168.5 331,-187.5 402,-187.5 402,-168.5 331,-168.5"/>
<text text-anchor="middle" x="366.5" y="-175.5" font-family="Helvetica,sans-Serif" font-size="10.00" fill="#000000">callbacks.h</text>
</a>
</g>
</g>
<!-- Node0&#45;&gt;Node16 -->
<g id="edge18" class="edge">
<title>Node0&#45;&gt;Node16</title>
<path fill="none" stroke="#191970" d="M392.926,-224.2455C388.5669,-216.617 382.3789,-205.7881 377.0867,-196.5267"/>
<polygon fill="#191970" stroke="#191970" points="380.0104,-194.5886 372.0101,-187.6427 373.9327,-198.0616 380.0104,-194.5886"/>
</g>
<!-- Node17 -->
<g id="node18" class="node">
<title>Node17</title>
<g id="a_node18"><a xlink:href="util_8h.html" target="_top" xlink:title=" ">
<polygon fill="#ffffff" stroke="#000000" points="707,-168.5 707,-187.5 748,-187.5 748,-168.5 707,-168.5"/>
<text text-anchor="middle" x="727.5" y="-175.5" font-family="Helvetica,sans-Serif" font-size="10.00" fill="#000000">util.h</text>
</a>
</g>
</g>
<!-- Node0&#45;&gt;Node17 -->
<g id="edge21" class="edge">
<title>Node0&#45;&gt;Node17</title>
<path fill="none" stroke="#191970" d="M437.2961,-230.3068C493.0398,-224.5108 599.0488,-211.6653 696.9719,-188.0592"/>
<polygon fill="#191970" stroke="#191970" points="697.848,-191.4481 706.7253,-185.665 696.1792,-184.6499 697.848,-191.4481"/>
</g>
<!-- Node9&#45;&gt;Node4 -->
<g id="edge10" class="edge">
<title>Node9&#45;&gt;Node4</title>
<path fill="none" stroke="#191970" d="M276.5,-168.2455C276.5,-160.9382 276.5,-150.6944 276.5,-141.7046"/>
<polygon fill="#191970" stroke="#191970" points="280.0001,-141.6426 276.5,-131.6427 273.0001,-141.6427 280.0001,-141.6426"/>
</g>
<!-- Node11 -->
<g id="node12" class="node">
<title>Node11</title>
<g id="a_node12"><a xlink:title=" ">
<polygon fill="#ffffff" stroke="#bfbfbf" points="267.5,-56.5 267.5,-75.5 323.5,-75.5 323.5,-56.5 267.5,-56.5"/>
<text text-anchor="middle" x="295.5" y="-63.5" font-family="Helvetica,sans-Serif" font-size="10.00" fill="#000000">stdarg.h</text>
</a>
</g>
</g>
<!-- Node10&#45;&gt;Node11 -->
<g id="edge12" class="edge">
<title>Node10&#45;&gt;Node11</title>
<path fill="none" stroke="#191970" d="M357.436,-112.2455C346.1438,-103.814 329.6155,-91.4729 316.4729,-81.6598"/>
<polygon fill="#191970" stroke="#191970" points="318.5211,-78.8211 308.4143,-75.6427 314.3331,-84.4301 318.5211,-78.8211"/>
</g>
<!-- Node12 -->
<g id="node13" class="node">
<title>Node12</title>
<g id="a_node13"><a xlink:href="utp__types_8h.html" target="_top" xlink:title=" ">
<polygon fill="#ffffff" stroke="#000000" points="341.5,-56.5 341.5,-75.5 415.5,-75.5 415.5,-56.5 341.5,-56.5"/>
<text text-anchor="middle" x="378.5" y="-63.5" font-family="Helvetica,sans-Serif" font-size="10.00" fill="#000000">utp_types.h</text>
</a>
</g>
</g>
<!-- Node10&#45;&gt;Node12 -->
<g id="edge13" class="edge">
<title>Node10&#45;&gt;Node12</title>
<path fill="none" stroke="#191970" d="M371.8935,-112.2455C372.9374,-104.9382 374.4008,-94.6944 375.6851,-85.7046"/>
<polygon fill="#191970" stroke="#191970" points="379.173,-86.0372 377.1225,-75.6427 372.2434,-85.0472 379.173,-86.0372"/>
</g>
<!-- Node12&#45;&gt;Node8 -->
<g id="edge17" class="edge">
<title>Node12&#45;&gt;Node8</title>
<path fill="none" stroke="#191970" d="M394.1768,-56.2455C407.9856,-47.6534 428.3193,-35.0014 444.2292,-25.1018"/>
<polygon fill="#191970" stroke="#191970" points="446.3613,-27.8974 453.0028,-19.6427 442.6632,-21.954 446.3613,-27.8974"/>
</g>
<!-- Node13 -->
<g id="node14" class="node">
<title>Node13</title>
<g id="a_node14"><a xlink:href="in_8h.html" target="_top" xlink:title=" ">
<polygon fill="#ffffff" stroke="#000000" points="177.5,-.5 177.5,-19.5 249.5,-19.5 249.5,-.5 177.5,-.5"/>
<text text-anchor="middle" x="213.5" y="-7.5" font-family="Helvetica,sans-Serif" font-size="10.00" fill="#000000">netinet/in.h</text>
</a>
</g>
</g>
<!-- Node12&#45;&gt;Node13 -->
<g id="edge14" class="edge">
<title>Node12&#45;&gt;Node13</title>
<path fill="none" stroke="#191970" d="M350.1355,-56.3733C322.8173,-47.1016 281.3204,-33.0178 251.2262,-22.804"/>
<polygon fill="#191970" stroke="#191970" points="252.0887,-19.4008 241.4944,-19.5011 249.839,-26.0294 252.0887,-19.4008"/>
</g>
<!-- Node14 -->
<g id="node15" class="node">
<title>Node14</title>
<g id="a_node15"><a xlink:title=" ">
<polygon fill="#ffffff" stroke="#bfbfbf" points="268,-.5 268,-19.5 337,-19.5 337,-.5 268,-.5"/>
<text text-anchor="middle" x="302.5" y="-7.5" font-family="Helvetica,sans-Serif" font-size="10.00" fill="#000000">arpa/inet.h</text>
</a>
</g>
</g>
<!-- Node12&#45;&gt;Node14 -->
<g id="edge15" class="edge">
<title>Node12&#45;&gt;Node14</title>
<path fill="none" stroke="#191970" d="M365.2618,-56.2455C353.819,-47.814 337.0704,-35.4729 323.7525,-25.6598"/>
<polygon fill="#191970" stroke="#191970" points="325.7133,-22.757 315.5865,-19.6427 321.5609,-28.3924 325.7133,-22.757"/>
</g>
<!-- Node15 -->
<g id="node16" class="node">
<title>Node15</title>
<g id="a_node16"><a xlink:title=" ">
<polygon fill="#ffffff" stroke="#bfbfbf" points="355.5,-.5 355.5,-19.5 411.5,-19.5 411.5,-.5 355.5,-.5"/>
<text text-anchor="middle" x="383.5" y="-7.5" font-family="Helvetica,sans-Serif" font-size="10.00" fill="#000000">unistd.h</text>
</a>
</g>
</g>
<!-- Node12&#45;&gt;Node15 -->
<g id="edge16" class="edge">
<title>Node12&#45;&gt;Node15</title>
<path fill="none" stroke="#191970" d="M379.3709,-56.2455C380.0234,-48.9382 380.938,-38.6944 381.7407,-29.7046"/>
<polygon fill="#191970" stroke="#191970" points="385.2358,-29.9143 382.639,-19.6427 378.2635,-29.2918 385.2358,-29.9143"/>
</g>
<!-- Node16&#45;&gt;Node4 -->
<g id="edge19" class="edge">
<title>Node16&#45;&gt;Node4</title>
<path fill="none" stroke="#191970" d="M350.8232,-168.2455C337.0144,-159.6534 316.6807,-147.0014 300.7708,-137.1018"/>
<polygon fill="#191970" stroke="#191970" points="302.3368,-133.954 291.9972,-131.6427 298.6387,-139.8974 302.3368,-133.954"/>
</g>
<!-- Node16&#45;&gt;Node10 -->
<g id="edge20" class="edge">
<title>Node16&#45;&gt;Node10</title>
<path fill="none" stroke="#191970" d="M367.1967,-168.2455C367.7187,-160.9382 368.4504,-150.6944 369.0925,-141.7046"/>
<polygon fill="#191970" stroke="#191970" points="372.5898,-141.8667 369.8112,-131.6427 365.6076,-141.3679 372.5898,-141.8667"/>
</g>
</g>
</svg>
