<?xml version="1.0" encoding="UTF-8" standalone="no"?>
<!DOCTYPE svg PUBLIC "-//W3C//DTD SVG 1.1//EN"
 "http://www.w3.org/Graphics/SVG/1.1/DTD/svg11.dtd">
<!-- Generated by graphviz version 2.40.1 (20161225.0304)
 -->
<!-- Title: serve Pages: 1 -->
<!--zoomable 481 -->
<svg id="main" version="1.1" xmlns="http://www.w3.org/2000/svg" xmlns:xlink="http://www.w3.org/1999/xlink" xml:space="preserve" onload="init(evt)">
<style type="text/css"><![CDATA[
.edge:hover path { stroke: red; }
.edge:hover polygon { stroke: red; fill: red; }
]]></style>
<script type="text/javascript"><![CDATA[
var edges = document.getElementsByTagName('g');
if (edges && edges.length) {
  for (var i=0;i<edges.length;i++) {
    if (edges[i].id.substr(0,4)=='edge') {
      edges[i].setAttribute('class','edge');
    }
  }
}
]]></script>
        <defs>
                <circle id="rim" cx="0" cy="0" r="7"/>
                <circle id="rim2" cx="0" cy="0" r="3.5"/>
                <g id="zoomPlus">
                        <use xlink:href="#rim" fill="#404040">
                                <set attributeName="fill" to="#808080" begin="zoomplus.mouseover" end="zoomplus.mouseout"/>
                        </use>
                        <path d="M-4,0h8M0,-4v8" fill="none" stroke="white" stroke-width="1.5" pointer-events="none"/>
                </g>
                <g id="zoomMin">
                        <use xlink:href="#rim" fill="#404040">
                                <set attributeName="fill" to="#808080" begin="zoomminus.mouseover" end="zoomminus.mouseout"/>
                        </use>
                        <path d="M-4,0h8" fill="none" stroke="white" stroke-width="1.5" pointer-events="none"/>
                </g>
                <g id="dirArrow">
                        <path fill="none" stroke="white" stroke-width="1.5" d="M0,-3.0v7 M-2.5,-0.5L0,-3.0L2.5,-0.5"/>
                </g>
               <g id="resetDef">
                       <use xlink:href="#rim2" fill="#404040">
                               <set attributeName="fill" to="#808080" begin="reset.mouseover" end="reset.mouseout"/>
                       </use>
               </g>
        </defs>

<script type="text/javascript">
var viewWidth = 371;
var viewHeight = 481;
var sectionId = 'dynsection-2';
</script>
<script xlink:href="svgpan.js"/>
<svg id="graph" class="graph">
<g id="viewport">
<title>serve</title>
<polygon fill="#ffffff" stroke="transparent" points="-4,4 -4,-477.1802 367,-477.1802 367,4 -4,4"/>
<!-- Node16 -->
<g id="node1" class="node">
<title>Node16</title>
<g id="a_node1"><a xlink:title=" ">
<polygon fill="#bfbfbf" stroke="#000000" points="0,-228.5 0,-247.5 44,-247.5 44,-228.5 0,-228.5"/>
<text text-anchor="middle" x="22" y="-235.5" font-family="Helvetica,sans-Serif" font-size="10.00" fill="#000000">serve</text>
</a>
</g>
</g>
<!-- Node17 -->
<g id="node2" class="node">
<title>Node17</title>
<g id="a_node2"><a xlink:href="util_8h.html#afa5226e3fd497fe3c633a50329764239" target="_top" xlink:title=" ">
<polygon fill="#ffffff" stroke="#000000" points="261,-361.5 261,-380.5 293,-380.5 293,-361.5 261,-361.5"/>
<text text-anchor="middle" x="277" y="-368.5" font-family="Helvetica,sans-Serif" font-size="10.00" fill="#000000">die</text>
</a>
</g>
</g>
<!-- Node16&#45;&gt;Node17 -->
<g id="edge1" class="edge">
<title>Node16&#45;&gt;Node17</title>
<path fill="none" stroke="#191970" d="M23.1621,-247.7495C27.8916,-285.5974 47.0261,-421.9306 80,-447 131.3013,-486.0034 167.9988,-477.0658 225,-447 247.5645,-435.0981 262.2027,-408.5054 270.0288,-390.1603"/>
<polygon fill="#191970" stroke="#191970" points="273.338,-391.31 273.7707,-380.724 266.8309,-388.7297 273.338,-391.31"/>
</g>
<!-- Node19 -->
<g id="node4" class="node">
<title>Node19</title>
<g id="a_node4"><a xlink:href="utp_8h.html#a027b9f2243787654336b4039416212aa" target="_top" xlink:title=" ">
<polygon fill="#ffffff" stroke="#000000" points="126,-418.5 126,-437.5 179,-437.5 179,-418.5 126,-418.5"/>
<text text-anchor="middle" x="152.5" y="-425.5" font-family="Helvetica,sans-Serif" font-size="10.00" fill="#000000">utp_init</text>
</a>
</g>
</g>
<!-- Node16&#45;&gt;Node19 -->
<g id="edge3" class="edge">
<title>Node16&#45;&gt;Node19</title>
<path fill="none" stroke="#191970" d="M23.9912,-247.5294C30.9679,-280.0505 55.2286,-385.9208 80,-409 89.6905,-418.0285 103.1369,-422.8812 115.8203,-425.4513"/>
<polygon fill="#191970" stroke="#191970" points="115.3111,-428.9144 125.7422,-427.0593 116.431,-422.0045 115.3111,-428.9144"/>
</g>
<!-- Node20 -->
<g id="node5" class="node">
<title>Node20</title>
<g id="a_node5"><a xlink:href="utp_8h.html#ab7409e5a2aa55a0e09015dc65efcc22d" target="_top" xlink:title=" ">
<polygon fill="#ffffff" stroke="#000000" points="103.5,-380.5 103.5,-399.5 201.5,-399.5 201.5,-380.5 103.5,-380.5"/>
<text text-anchor="middle" x="152.5" y="-387.5" font-family="Helvetica,sans-Serif" font-size="10.00" fill="#000000">utp_set_callback</text>
</a>
</g>
</g>
<!-- Node16&#45;&gt;Node20 -->
<g id="edge4" class="edge">
<title>Node16&#45;&gt;Node20</title>
<path fill="none" stroke="#191970" d="M23.3175,-247.7342C27.1762,-272.3341 40.7687,-337.42 80,-371 84.0359,-374.4545 88.6286,-377.2905 93.4977,-379.6172"/>
<polygon fill="#191970" stroke="#191970" points="92.5449,-383.0065 103.1285,-383.4929 95.1582,-376.5126 92.5449,-383.0065"/>
</g>
<!-- Node21 -->
<g id="node6" class="node">
<title>Node21</title>
<g id="a_node6"><a xlink:href="callbacks_8c.html#a890906eed71e51aa40a1faa350dbde16" target="_top" xlink:title=" ">
<polygon fill="#ffffff" stroke="#000000" points="114,-342.5 114,-361.5 191,-361.5 191,-342.5 114,-342.5"/>
<text text-anchor="middle" x="152.5" y="-349.5" font-family="Helvetica,sans-Serif" font-size="10.00" fill="#000000">callback_log</text>
</a>
</g>
</g>
<!-- Node16&#45;&gt;Node21 -->
<g id="edge5" class="edge">
<title>Node16&#45;&gt;Node21</title>
<path fill="none" stroke="#191970" d="M25.1598,-247.7807C31.9382,-267.1627 49.7642,-310.5121 80,-333 87.1307,-338.3034 95.6168,-342.1294 104.2276,-344.8889"/>
<polygon fill="#191970" stroke="#191970" points="103.3657,-348.2818 113.9368,-347.573 105.2309,-341.5349 103.3657,-348.2818"/>
</g>
<!-- Node22 -->
<g id="node7" class="node">
<title>Node22</title>
<g id="a_node7"><a xlink:href="callbacks_8c.html#ae4b16b07c2a9c5a86f51a6e35a931580" target="_top" xlink:title=" ">
<polygon fill="#ffffff" stroke="#000000" points="105,-304.5 105,-323.5 200,-323.5 200,-304.5 105,-304.5"/>
<text text-anchor="middle" x="152.5" y="-311.5" font-family="Helvetica,sans-Serif" font-size="10.00" fill="#000000">callback_sendto</text>
</a>
</g>
</g>
<!-- Node16&#45;&gt;Node22 -->
<g id="edge6" class="edge">
<title>Node16&#45;&gt;Node22</title>
<path fill="none" stroke="#191970" d="M29.1221,-247.6252C39.0819,-260.3892 58.3935,-282.729 80,-295 84.7379,-297.6908 89.8657,-300.0097 95.129,-302.0063"/>
<polygon fill="#191970" stroke="#191970" points="94.1,-305.3532 104.6944,-305.263 96.3561,-298.7268 94.1,-305.3532"/>
</g>
<!-- Node23 -->
<g id="node8" class="node">
<title>Node23</title>
<g id="a_node8"><a xlink:href="callbacks_8c.html#a57cc1b3fce8d54543faf1812715b78f4" target="_top" xlink:title=" ">
<polygon fill="#ffffff" stroke="#000000" points="101,-266.5 101,-285.5 204,-285.5 204,-266.5 101,-266.5"/>
<text text-anchor="middle" x="152.5" y="-273.5" font-family="Helvetica,sans-Serif" font-size="10.00" fill="#000000">callback_on_error</text>
</a>
</g>
</g>
<!-- Node16&#45;&gt;Node23 -->
<g id="edge7" class="edge">
<title>Node16&#45;&gt;Node23</title>
<path fill="none" stroke="#191970" d="M44.2111,-245.6237C54.9709,-249.2276 68.1078,-253.4973 80,-257 87.8976,-259.3261 96.3202,-261.6631 104.5258,-263.8634"/>
<polygon fill="#191970" stroke="#191970" points="103.8147,-267.2957 114.3773,-266.4697 105.6051,-260.5285 103.8147,-267.2957"/>
</g>
<!-- Node24 -->
<g id="node9" class="node">
<title>Node24</title>
<g id="a_node9"><a xlink:href="callbacks_8c.html#ad4c2c6e3561da4f54f86f83427be0b21" target="_top" xlink:title=" ">
<polygon fill="#ffffff" stroke="#000000" points="80,-228.5 80,-247.5 225,-247.5 225,-228.5 80,-228.5"/>
<text text-anchor="middle" x="152.5" y="-235.5" font-family="Helvetica,sans-Serif" font-size="10.00" fill="#000000">callback_on_state_change</text>
</a>
</g>
</g>
<!-- Node16&#45;&gt;Node24 -->
<g id="edge9" class="edge">
<title>Node16&#45;&gt;Node24</title>
<path fill="none" stroke="#191970" d="M44.1375,-238C51.5606,-238 60.331,-238 69.6166,-238"/>
<polygon fill="#191970" stroke="#191970" points="69.8552,-241.5001 79.8551,-238 69.8551,-234.5001 69.8552,-241.5001"/>
</g>
<!-- Node25 -->
<g id="node10" class="node">
<title>Node25</title>
<g id="a_node10"><a xlink:href="callbacks_8c.html#a10859c109db4d340f6b499b3d30b3088" target="_top" xlink:title=" ">
<polygon fill="#ffffff" stroke="#000000" points="102,-190.5 102,-209.5 203,-209.5 203,-190.5 102,-190.5"/>
<text text-anchor="middle" x="152.5" y="-197.5" font-family="Helvetica,sans-Serif" font-size="10.00" fill="#000000">callback_on_read</text>
</a>
</g>
</g>
<!-- Node16&#45;&gt;Node25 -->
<g id="edge10" class="edge">
<title>Node16&#45;&gt;Node25</title>
<path fill="none" stroke="#191970" d="M44.2111,-230.3763C54.9709,-226.7724 68.1078,-222.5027 80,-219 87.8976,-216.6739 96.3202,-214.3369 104.5258,-212.1366"/>
<polygon fill="#191970" stroke="#191970" points="105.6051,-215.4715 114.3773,-209.5303 103.8147,-208.7043 105.6051,-215.4715"/>
</g>
<!-- Node26 -->
<g id="node11" class="node">
<title>Node26</title>
<g id="a_node11"><a xlink:href="callbacks_8c.html#a754e54ff64fedc7e9590cca318b52fc6" target="_top" xlink:title=" ">
<polygon fill="#ffffff" stroke="#000000" points="94.5,-152.5 94.5,-171.5 210.5,-171.5 210.5,-152.5 94.5,-152.5"/>
<text text-anchor="middle" x="152.5" y="-159.5" font-family="Helvetica,sans-Serif" font-size="10.00" fill="#000000">callback_on_firewall</text>
</a>
</g>
</g>
<!-- Node16&#45;&gt;Node26 -->
<g id="edge11" class="edge">
<title>Node16&#45;&gt;Node26</title>
<path fill="none" stroke="#191970" d="M29.1221,-228.3748C39.0819,-215.6108 58.3935,-193.271 80,-181 83.9247,-178.771 88.1169,-176.7973 92.4321,-175.0505"/>
<polygon fill="#191970" stroke="#191970" points="93.8087,-178.2745 102.019,-171.5781 91.4248,-171.6929 93.8087,-178.2745"/>
</g>
<!-- Node27 -->
<g id="node12" class="node">
<title>Node27</title>
<g id="a_node12"><a xlink:href="callbacks_8c.html#ae6171d0c404098ebeb40647daa0e7fba" target="_top" xlink:title=" ">
<polygon fill="#ffffff" stroke="#000000" points="96.5,-114.5 96.5,-133.5 208.5,-133.5 208.5,-114.5 96.5,-114.5"/>
<text text-anchor="middle" x="152.5" y="-121.5" font-family="Helvetica,sans-Serif" font-size="10.00" fill="#000000">callback_on_accept</text>
</a>
</g>
</g>
<!-- Node16&#45;&gt;Node27 -->
<g id="edge12" class="edge">
<title>Node16&#45;&gt;Node27</title>
<path fill="none" stroke="#191970" d="M25.1598,-228.2193C31.9382,-208.8373 49.7642,-165.4879 80,-143 82.5286,-141.1193 85.2277,-139.4245 88.0423,-137.8971"/>
<polygon fill="#191970" stroke="#191970" points="89.765,-140.956 97.3575,-133.5665 86.814,-134.6084 89.765,-140.956"/>
</g>
<!-- Node28 -->
<g id="node13" class="node">
<title>Node28</title>
<g id="a_node13"><a xlink:href="utp_8h.html#a47b22eb8eca4573721ee0d0fc8d22385" target="_top" xlink:title=" ">
<polygon fill="#ffffff" stroke="#000000" points="87,-76.5 87,-95.5 218,-95.5 218,-76.5 87,-76.5"/>
<text text-anchor="middle" x="152.5" y="-83.5" font-family="Helvetica,sans-Serif" font-size="10.00" fill="#000000">utp_context_set_option</text>
</a>
</g>
</g>
<!-- Node16&#45;&gt;Node28 -->
<g id="edge13" class="edge">
<title>Node16&#45;&gt;Node28</title>
<path fill="none" stroke="#191970" d="M23.3175,-228.2658C27.1762,-203.6659 40.7687,-138.58 80,-105 81.9894,-103.2972 84.1141,-101.7447 86.3404,-100.3294"/>
<polygon fill="#191970" stroke="#191970" points="88.1815,-103.3143 95.3609,-95.5228 84.8896,-97.1366 88.1815,-103.3143"/>
</g>
<!-- Node29 -->
<g id="node14" class="node">
<title>Node29</title>
<g id="a_node14"><a xlink:href="utp_8h.html#a1029c8a4166d73567ce8a1d5a9c01d7f" target="_top" xlink:title=" ">
<polygon fill="#ffffff" stroke="#000000" points="99.5,-38.5 99.5,-57.5 205.5,-57.5 205.5,-38.5 99.5,-38.5"/>
<text text-anchor="middle" x="152.5" y="-45.5" font-family="Helvetica,sans-Serif" font-size="10.00" fill="#000000">utp_create_socket</text>
</a>
</g>
</g>
<!-- Node16&#45;&gt;Node29 -->
<g id="edge14" class="edge">
<title>Node16&#45;&gt;Node29</title>
<path fill="none" stroke="#191970" d="M23.9912,-228.4706C30.9679,-195.9495 55.2286,-90.0792 80,-67 83.106,-64.1062 86.5978,-61.6414 90.3266,-59.5433"/>
<polygon fill="#191970" stroke="#191970" points="91.8267,-62.7056 99.3875,-55.2837 88.8485,-56.3707 91.8267,-62.7056"/>
</g>
<!-- Node30 -->
<g id="node15" class="node">
<title>Node30</title>
<g id="a_node15"><a xlink:href="utp_8h.html#af38147cc1843b27686270f78860d0790" target="_top" xlink:title=" ">
<polygon fill="#ffffff" stroke="#000000" points="114.5,-.5 114.5,-19.5 190.5,-19.5 190.5,-.5 114.5,-.5"/>
<text text-anchor="middle" x="152.5" y="-7.5" font-family="Helvetica,sans-Serif" font-size="10.00" fill="#000000">utp_connect</text>
</a>
</g>
</g>
<!-- Node16&#45;&gt;Node30 -->
<g id="edge15" class="edge">
<title>Node16&#45;&gt;Node30</title>
<path fill="none" stroke="#191970" d="M23.3682,-228.4883C28.8688,-191.53 50.5005,-58.0779 80,-29 86.7372,-22.3591 95.4952,-17.9577 104.5827,-15.0595"/>
<polygon fill="#191970" stroke="#191970" points="105.7028,-18.3844 114.493,-12.4697 103.9329,-11.6118 105.7028,-18.3844"/>
</g>
<!-- Node18 -->
<g id="node3" class="node">
<title>Node18</title>
<g id="a_node3"><a xlink:href="utp__packedsockaddr_8h.html#a67423ac652e0a466cb0ce0dba17ee261" target="_top" xlink:title=" ">
<polygon fill="#ffffff" stroke="#000000" points="329,-361.5 329,-380.5 363,-380.5 363,-361.5 329,-361.5"/>
<text text-anchor="middle" x="346" y="-368.5" font-family="Helvetica,sans-Serif" font-size="10.00" fill="#000000">fmt</text>
</a>
</g>
</g>
<!-- Node17&#45;&gt;Node18 -->
<g id="edge2" class="edge">
<title>Node17&#45;&gt;Node18</title>
<path fill="none" stroke="#191970" d="M293.0034,-371C300.5887,-371 309.8676,-371 318.5292,-371"/>
<polygon fill="#191970" stroke="#191970" points="318.633,-374.5001 328.6329,-371 318.6329,-367.5001 318.633,-374.5001"/>
</g>
<!-- Node23&#45;&gt;Node17 -->
<g id="edge8" class="edge">
<title>Node23&#45;&gt;Node17</title>
<path fill="none" stroke="#191970" d="M204.0712,-284.5852C211.4886,-287.1881 218.7231,-290.5799 225,-295 245.5428,-309.4658 260.4604,-334.8123 268.9175,-352.2288"/>
<polygon fill="#191970" stroke="#191970" points="265.7876,-353.8001 273.144,-361.4247 272.148,-350.8768 265.7876,-353.8001"/>
</g>
</g>
</svg>
        <g id="navigator" transform="translate(0 0)" fill="#404254">
                <rect fill="#f2f5e9" fill-opacity="0.5" stroke="#606060" stroke-width=".5" x="0" y="0" width="60" height="60"/>
                <use id="zoomplus" xlink:href="#zoomPlus" x="17" y="9" onmousedown="handleZoom(evt,'in')"/>
                <use id="zoomminus" xlink:href="#zoomMin" x="42" y="9" onmousedown="handleZoom(evt,'out')"/>
                <use id="reset" xlink:href="#resetDef" x="30" y="36" onmousedown="handleReset()"/>
                <g id="arrowUp" xlink:href="#dirArrow" transform="translate(30 24)" onmousedown="handlePan(0,-1)">
                  <use xlink:href="#rim" fill="#404040">
                        <set attributeName="fill" to="#808080" begin="arrowUp.mouseover" end="arrowUp.mouseout"/>
                  </use>
                  <path fill="none" stroke="white" stroke-width="1.5" d="M0,-3.0v7 M-2.5,-0.5L0,-3.0L2.5,-0.5"/>
                </g>
                <g id="arrowRight" xlink:href="#dirArrow" transform="rotate(90) translate(36 -43)" onmousedown="handlePan(1,0)">
                  <use xlink:href="#rim" fill="#404040">
                        <set attributeName="fill" to="#808080" begin="arrowRight.mouseover" end="arrowRight.mouseout"/>
                  </use>
                  <path fill="none" stroke="white" stroke-width="1.5" d="M0,-3.0v7 M-2.5,-0.5L0,-3.0L2.5,-0.5"/>
                </g>
                <g id="arrowDown" xlink:href="#dirArrow" transform="rotate(180) translate(-30 -48)" onmousedown="handlePan(0,1)">
                  <use xlink:href="#rim" fill="#404040">
                        <set attributeName="fill" to="#808080" begin="arrowDown.mouseover" end="arrowDown.mouseout"/>
                  </use>
                  <path fill="none" stroke="white" stroke-width="1.5" d="M0,-3.0v7 M-2.5,-0.5L0,-3.0L2.5,-0.5"/>
                </g>
                <g id="arrowLeft" xlink:href="#dirArrow" transform="rotate(270) translate(-36 17)" onmousedown="handlePan(-1,0)">
                  <use xlink:href="#rim" fill="#404040">
                        <set attributeName="fill" to="#808080" begin="arrowLeft.mouseover" end="arrowLeft.mouseout"/>
                  </use>
                  <path fill="none" stroke="white" stroke-width="1.5" d="M0,-3.0v7 M-2.5,-0.5L0,-3.0L2.5,-0.5"/>
                </g>
        </g>
        <svg viewBox="0 0 15 15" width="100%" height="30px" preserveAspectRatio="xMaxYMin meet">
         <g id="arrow_out" transform="scale(0.3 0.3)">
          <a xlink:href="main_8c_a09a9d9145624e027a1ad3cbe85580acc_cgraph_org.svg" target="_base">
           <rect id="button" ry="5" rx="5" y="6" x="6" height="38" width="38"
                fill="#f2f5e9" fill-opacity="0.5" stroke="#606060" stroke-width="1.0"/>
           <path id="arrow"
             d="M 11.500037,31.436501 C 11.940474,20.09759 22.043105,11.32322 32.158766,21.979434 L 37.068811,17.246167 C 37.068811,17.246167 37.088388,32 37.088388,32 L 22.160133,31.978069 C 22.160133,31.978069 26.997745,27.140456 26.997745,27.140456 C 18.528582,18.264221 13.291696,25.230495 11.500037,31.436501 z"
             style="fill:#404040;"/>
          </a>
         </g>
        </svg>
</svg>
