<?xml version="1.0" encoding="UTF-8" standalone="no"?>
<!DOCTYPE svg PUBLIC "-//W3C//DTD SVG 1.1//EN"
 "http://www.w3.org/Graphics/SVG/1.1/DTD/svg11.dtd">
<!-- Generated by graphviz version 2.40.1 (20161225.0304)
 -->
<!-- Title: client Pages: 1 -->
<svg width="371pt" height="405pt"
 viewBox="0.00 0.00 371.00 404.59" xmlns="http://www.w3.org/2000/svg" xmlns:xlink="http://www.w3.org/1999/xlink">
<g id="graph0" class="graph" transform="scale(1 1) rotate(0) translate(4 400.5873)">
<title>client</title>
<polygon fill="#ffffff" stroke="transparent" points="-4,4 -4,-400.5873 367,-400.5873 367,4 -4,4"/>
<!-- Node0 -->
<g id="node1" class="node">
<title>Node0</title>
<g id="a_node1"><a xlink:title=" ">
<polygon fill="#bfbfbf" stroke="#000000" points="0,-190.5 0,-209.5 44,-209.5 44,-190.5 0,-190.5"/>
<text text-anchor="middle" x="22" y="-197.5" font-family="Helvetica,sans-Serif" font-size="10.00" fill="#000000">client</text>
</a>
</g>
</g>
<!-- Node1 -->
<g id="node2" class="node">
<title>Node1</title>
<g id="a_node2"><a xlink:href="util_8h.html#afa5226e3fd497fe3c633a50329764239" target="_top" xlink:title=" ">
<polygon fill="#ffffff" stroke="#000000" points="261,-285.5 261,-304.5 293,-304.5 293,-285.5 261,-285.5"/>
<text text-anchor="middle" x="277" y="-292.5" font-family="Helvetica,sans-Serif" font-size="10.00" fill="#000000">die</text>
</a>
</g>
</g>
<!-- Node0&#45;&gt;Node1 -->
<g id="edge1" class="edge">
<title>Node0&#45;&gt;Node1</title>
<path fill="none" stroke="#191970" d="M23.7901,-209.7752C30.1097,-243.0989 52.4822,-351.2759 80,-371 132.3789,-408.5439 167.9988,-401.0658 225,-371 247.5645,-359.0981 262.2027,-332.5054 270.0288,-314.1603"/>
<polygon fill="#191970" stroke="#191970" points="273.338,-315.31 273.7707,-304.724 266.8309,-312.7297 273.338,-315.31"/>
</g>
<!-- Node3 -->
<g id="node4" class="node">
<title>Node3</title>
<g id="a_node4"><a xlink:href="utp_8h.html#a027b9f2243787654336b4039416212aa" target="_top" xlink:title=" ">
<polygon fill="#ffffff" stroke="#000000" points="126,-342.5 126,-361.5 179,-361.5 179,-342.5 126,-342.5"/>
<text text-anchor="middle" x="152.5" y="-349.5" font-family="Helvetica,sans-Serif" font-size="10.00" fill="#000000">utp_init</text>
</a>
</g>
</g>
<!-- Node0&#45;&gt;Node3 -->
<g id="edge3" class="edge">
<title>Node0&#45;&gt;Node3</title>
<path fill="none" stroke="#191970" d="M23.3175,-209.7342C27.1762,-234.3341 40.7687,-299.42 80,-333 89.8852,-341.4612 103.1102,-346.2113 115.5574,-348.8584"/>
<polygon fill="#191970" stroke="#191970" points="115.289,-352.364 125.7398,-350.6228 116.4842,-345.4668 115.289,-352.364"/>
</g>
<!-- Node4 -->
<g id="node5" class="node">
<title>Node4</title>
<g id="a_node5"><a xlink:href="utp_8h.html#ab7409e5a2aa55a0e09015dc65efcc22d" target="_top" xlink:title=" ">
<polygon fill="#ffffff" stroke="#000000" points="103.5,-304.5 103.5,-323.5 201.5,-323.5 201.5,-304.5 103.5,-304.5"/>
<text text-anchor="middle" x="152.5" y="-311.5" font-family="Helvetica,sans-Serif" font-size="10.00" fill="#000000">utp_set_callback</text>
</a>
</g>
</g>
<!-- Node0&#45;&gt;Node4 -->
<g id="edge4" class="edge">
<title>Node0&#45;&gt;Node4</title>
<path fill="none" stroke="#191970" d="M25.1598,-209.7807C31.9382,-229.1627 49.7642,-272.5121 80,-295 84.1991,-298.1231 88.8683,-300.7339 93.7561,-302.9162"/>
<polygon fill="#191970" stroke="#191970" points="92.7693,-306.2864 103.3593,-306.6068 95.2805,-299.7523 92.7693,-306.2864"/>
</g>
<!-- Node5 -->
<g id="node6" class="node">
<title>Node5</title>
<g id="a_node6"><a xlink:href="callbacks_8c.html#a890906eed71e51aa40a1faa350dbde16" target="_top" xlink:title=" ">
<polygon fill="#ffffff" stroke="#000000" points="114,-266.5 114,-285.5 191,-285.5 191,-266.5 114,-266.5"/>
<text text-anchor="middle" x="152.5" y="-273.5" font-family="Helvetica,sans-Serif" font-size="10.00" fill="#000000">callback_log</text>
</a>
</g>
</g>
<!-- Node0&#45;&gt;Node5 -->
<g id="edge5" class="edge">
<title>Node0&#45;&gt;Node5</title>
<path fill="none" stroke="#191970" d="M29.1221,-209.6252C39.0819,-222.3892 58.3935,-244.729 80,-257 87.4004,-261.2029 95.7518,-264.4984 104.0853,-267.0759"/>
<polygon fill="#191970" stroke="#191970" points="103.2292,-270.4706 113.8017,-269.7831 105.1081,-263.7275 103.2292,-270.4706"/>
</g>
<!-- Node6 -->
<g id="node7" class="node">
<title>Node6</title>
<g id="a_node7"><a xlink:href="callbacks_8c.html#ae4b16b07c2a9c5a86f51a6e35a931580" target="_top" xlink:title=" ">
<polygon fill="#ffffff" stroke="#000000" points="105,-228.5 105,-247.5 200,-247.5 200,-228.5 105,-228.5"/>
<text text-anchor="middle" x="152.5" y="-235.5" font-family="Helvetica,sans-Serif" font-size="10.00" fill="#000000">callback_sendto</text>
</a>
</g>
</g>
<!-- Node0&#45;&gt;Node6 -->
<g id="edge6" class="edge">
<title>Node0&#45;&gt;Node6</title>
<path fill="none" stroke="#191970" d="M44.2111,-207.6237C54.9709,-211.2276 68.1078,-215.4973 80,-219 87.8976,-221.3261 96.3202,-223.6631 104.5258,-225.8634"/>
<polygon fill="#191970" stroke="#191970" points="103.8147,-229.2957 114.3773,-228.4697 105.6051,-222.5285 103.8147,-229.2957"/>
</g>
<!-- Node7 -->
<g id="node8" class="node">
<title>Node7</title>
<g id="a_node8"><a xlink:href="callbacks_8c.html#a57cc1b3fce8d54543faf1812715b78f4" target="_top" xlink:title=" ">
<polygon fill="#ffffff" stroke="#000000" points="101,-190.5 101,-209.5 204,-209.5 204,-190.5 101,-190.5"/>
<text text-anchor="middle" x="152.5" y="-197.5" font-family="Helvetica,sans-Serif" font-size="10.00" fill="#000000">callback_on_error</text>
</a>
</g>
</g>
<!-- Node0&#45;&gt;Node7 -->
<g id="edge7" class="edge">
<title>Node0&#45;&gt;Node7</title>
<path fill="none" stroke="#191970" d="M44.1375,-200C57.0248,-200 73.9731,-200 90.6274,-200"/>
<polygon fill="#191970" stroke="#191970" points="90.9201,-203.5001 100.92,-200 90.92,-196.5001 90.9201,-203.5001"/>
</g>
<!-- Node8 -->
<g id="node9" class="node">
<title>Node8</title>
<g id="a_node9"><a xlink:href="callbacks_8c.html#ad4c2c6e3561da4f54f86f83427be0b21" target="_top" xlink:title=" ">
<polygon fill="#ffffff" stroke="#000000" points="80,-152.5 80,-171.5 225,-171.5 225,-152.5 80,-152.5"/>
<text text-anchor="middle" x="152.5" y="-159.5" font-family="Helvetica,sans-Serif" font-size="10.00" fill="#000000">callback_on_state_change</text>
</a>
</g>
</g>
<!-- Node0&#45;&gt;Node8 -->
<g id="edge9" class="edge">
<title>Node0&#45;&gt;Node8</title>
<path fill="none" stroke="#191970" d="M44.2111,-192.3763C54.9709,-188.7724 68.1078,-184.5027 80,-181 87.8976,-178.6739 96.3202,-176.3369 104.5258,-174.1366"/>
<polygon fill="#191970" stroke="#191970" points="105.6051,-177.4715 114.3773,-171.5303 103.8147,-170.7043 105.6051,-177.4715"/>
</g>
<!-- Node9 -->
<g id="node10" class="node">
<title>Node9</title>
<g id="a_node10"><a xlink:href="callbacks_8c.html#a10859c109db4d340f6b499b3d30b3088" target="_top" xlink:title=" ">
<polygon fill="#ffffff" stroke="#000000" points="102,-114.5 102,-133.5 203,-133.5 203,-114.5 102,-114.5"/>
<text text-anchor="middle" x="152.5" y="-121.5" font-family="Helvetica,sans-Serif" font-size="10.00" fill="#000000">callback_on_read</text>
</a>
</g>
</g>
<!-- Node0&#45;&gt;Node9 -->
<g id="edge10" class="edge">
<title>Node0&#45;&gt;Node9</title>
<path fill="none" stroke="#191970" d="M29.1221,-190.3748C39.0819,-177.6108 58.3935,-155.271 80,-143 83.9247,-140.771 88.1169,-138.7973 92.4321,-137.0505"/>
<polygon fill="#191970" stroke="#191970" points="93.8087,-140.2745 102.019,-133.5781 91.4248,-133.6929 93.8087,-140.2745"/>
</g>
<!-- Node10 -->
<g id="node11" class="node">
<title>Node10</title>
<g id="a_node11"><a xlink:href="callbacks_8c.html#a754e54ff64fedc7e9590cca318b52fc6" target="_top" xlink:title=" ">
<polygon fill="#ffffff" stroke="#000000" points="94.5,-76.5 94.5,-95.5 210.5,-95.5 210.5,-76.5 94.5,-76.5"/>
<text text-anchor="middle" x="152.5" y="-83.5" font-family="Helvetica,sans-Serif" font-size="10.00" fill="#000000">callback_on_firewall</text>
</a>
</g>
</g>
<!-- Node0&#45;&gt;Node10 -->
<g id="edge11" class="edge">
<title>Node0&#45;&gt;Node10</title>
<path fill="none" stroke="#191970" d="M25.1598,-190.2193C31.9382,-170.8373 49.7642,-127.4879 80,-105 82.5286,-103.1193 85.2277,-101.4245 88.0423,-99.8971"/>
<polygon fill="#191970" stroke="#191970" points="89.765,-102.956 97.3575,-95.5665 86.814,-96.6084 89.765,-102.956"/>
</g>
<!-- Node11 -->
<g id="node12" class="node">
<title>Node11</title>
<g id="a_node12"><a xlink:href="callbacks_8c.html#ae6171d0c404098ebeb40647daa0e7fba" target="_top" xlink:title=" ">
<polygon fill="#ffffff" stroke="#000000" points="96.5,-38.5 96.5,-57.5 208.5,-57.5 208.5,-38.5 96.5,-38.5"/>
<text text-anchor="middle" x="152.5" y="-45.5" font-family="Helvetica,sans-Serif" font-size="10.00" fill="#000000">callback_on_accept</text>
</a>
</g>
</g>
<!-- Node0&#45;&gt;Node11 -->
<g id="edge12" class="edge">
<title>Node0&#45;&gt;Node11</title>
<path fill="none" stroke="#191970" d="M23.3175,-190.2658C27.1762,-165.6659 40.7687,-100.58 80,-67 82.2705,-65.0566 84.7172,-63.3089 87.2902,-61.7376"/>
<polygon fill="#191970" stroke="#191970" points="89.1468,-64.7191 96.4525,-57.046 85.9563,-58.4885 89.1468,-64.7191"/>
</g>
<!-- Node12 -->
<g id="node13" class="node">
<title>Node12</title>
<g id="a_node13"><a xlink:href="utp_8h.html#a47b22eb8eca4573721ee0d0fc8d22385" target="_top" xlink:title=" ">
<polygon fill="#ffffff" stroke="#000000" points="87,-.5 87,-19.5 218,-19.5 218,-.5 87,-.5"/>
<text text-anchor="middle" x="152.5" y="-7.5" font-family="Helvetica,sans-Serif" font-size="10.00" fill="#000000">utp_context_set_option</text>
</a>
</g>
</g>
<!-- Node0&#45;&gt;Node12 -->
<g id="edge13" class="edge">
<title>Node0&#45;&gt;Node12</title>
<path fill="none" stroke="#191970" d="M23.9912,-190.4706C30.9679,-157.9495 55.2286,-52.0792 80,-29 81.6631,-27.4505 83.4367,-26.0241 85.2982,-24.711"/>
<polygon fill="#191970" stroke="#191970" points="87.0857,-27.7203 93.9512,-19.6508 83.552,-21.6777 87.0857,-27.7203"/>
</g>
<!-- Node2 -->
<g id="node3" class="node">
<title>Node2</title>
<g id="a_node3"><a xlink:href="utp__packedsockaddr_8h.html#a67423ac652e0a466cb0ce0dba17ee261" target="_top" xlink:title=" ">
<polygon fill="#ffffff" stroke="#000000" points="329,-285.5 329,-304.5 363,-304.5 363,-285.5 329,-285.5"/>
<text text-anchor="middle" x="346" y="-292.5" font-family="Helvetica,sans-Serif" font-size="10.00" fill="#000000">fmt</text>
</a>
</g>
</g>
<!-- Node1&#45;&gt;Node2 -->
<g id="edge2" class="edge">
<title>Node1&#45;&gt;Node2</title>
<path fill="none" stroke="#191970" d="M293.0034,-295C300.5887,-295 309.8676,-295 318.5292,-295"/>
<polygon fill="#191970" stroke="#191970" points="318.633,-298.5001 328.6329,-295 318.6329,-291.5001 318.633,-298.5001"/>
</g>
<!-- Node7&#45;&gt;Node1 -->
<g id="edge8" class="edge">
<title>Node7&#45;&gt;Node1</title>
<path fill="none" stroke="#191970" d="M204.0712,-208.5852C211.4886,-211.1881 218.7231,-214.5799 225,-219 245.5428,-233.4658 260.4604,-258.8123 268.9175,-276.2288"/>
<polygon fill="#191970" stroke="#191970" points="265.7876,-277.8001 273.144,-285.4247 272.148,-274.8768 265.7876,-277.8001"/>
</g>
</g>
</svg>
