<?xml version="1.0" encoding="UTF-8" standalone="no"?>
<!DOCTYPE svg PUBLIC "-//W3C//DTD SVG 1.1//EN"
 "http://www.w3.org/Graphics/SVG/1.1/DTD/svg11.dtd">
<!-- Generated by graphviz version 2.40.1 (20161225.0304)
 -->
<!-- Title: include/sys/socket.h Pages: 1 -->
<svg width="872pt" height="252pt"
 viewBox="0.00 0.00 872.00 252.00" xmlns="http://www.w3.org/2000/svg" xmlns:xlink="http://www.w3.org/1999/xlink">
<g id="graph0" class="graph" transform="scale(1 1) rotate(0) translate(4 248)">
<title>include/sys/socket.h</title>
<polygon fill="#ffffff" stroke="transparent" points="-4,4 -4,-248 868,-248 868,4 -4,4"/>
<!-- Node1 -->
<g id="node1" class="node">
<title>Node1</title>
<g id="a_node1"><a xlink:title=" ">
<polygon fill="#bfbfbf" stroke="#000000" points="0,-224.5 0,-243.5 116,-243.5 116,-224.5 0,-224.5"/>
<text text-anchor="middle" x="58" y="-231.5" font-family="Helvetica,sans-Serif" font-size="10.00" fill="#000000">include/sys/socket.h</text>
</a>
</g>
</g>
<!-- Node2 -->
<g id="node2" class="node">
<title>Node2</title>
<g id="a_node2"><a xlink:href="utp__types_8h.html" target="_top" xlink:title=" ">
<polygon fill="#ffffff" stroke="#000000" points="464,-168.5 464,-187.5 576,-187.5 576,-168.5 464,-168.5"/>
<text text-anchor="middle" x="520" y="-175.5" font-family="Helvetica,sans-Serif" font-size="10.00" fill="#000000">include/utp_types.h</text>
</a>
</g>
</g>
<!-- Node1&#45;&gt;Node2 -->
<g id="edge1" class="edge">
<title>Node1&#45;&gt;Node2</title>
<path fill="none" stroke="#191970" d="M126.0479,-225.7518C217.6752,-214.6454 379.0041,-195.0904 463.9961,-184.7883"/>
<polygon fill="#191970" stroke="#191970" points="125.551,-222.2863 116.0448,-226.9643 126.3933,-229.2354 125.551,-222.2863"/>
</g>
<!-- Node6 -->
<g id="node6" class="node">
<title>Node6</title>
<g id="a_node6"><a xlink:href="callbacks_8c.html" target="_top" xlink:title=" ">
<polygon fill="#ffffff" stroke="#000000" points="109,-.5 109,-19.5 207,-19.5 207,-.5 109,-.5"/>
<text text-anchor="middle" x="158" y="-7.5" font-family="Helvetica,sans-Serif" font-size="10.00" fill="#000000">main/callbacks.c</text>
</a>
</g>
</g>
<!-- Node1&#45;&gt;Node6 -->
<g id="edge20" class="edge">
<title>Node1&#45;&gt;Node6</title>
<path fill="none" stroke="#191970" d="M41.7631,-216.8324C35.2058,-208.7408 28.3946,-198.5555 25,-188 7.0389,-132.1504 -9.0351,-103.7848 25,-56 35.5953,-41.1244 79.1736,-27.9353 113.5984,-19.5361"/>
<polygon fill="#191970" stroke="#191970" points="39.1569,-219.1693 48.3508,-224.4346 44.447,-214.5851 39.1569,-219.1693"/>
</g>
<!-- Node8 -->
<g id="node8" class="node">
<title>Node8</title>
<g id="a_node8"><a xlink:href="main_8c.html" target="_top" xlink:title=" ">
<polygon fill="#ffffff" stroke="#000000" points="225.5,-.5 225.5,-19.5 302.5,-19.5 302.5,-.5 225.5,-.5"/>
<text text-anchor="middle" x="264" y="-7.5" font-family="Helvetica,sans-Serif" font-size="10.00" fill="#000000">main/main.c</text>
</a>
</g>
</g>
<!-- Node1&#45;&gt;Node8 -->
<g id="edge21" class="edge">
<title>Node1&#45;&gt;Node8</title>
<path fill="none" stroke="#191970" d="M50.9014,-214.4325C39.2986,-178.6499 21.0483,-102.1132 58,-56 59.3212,-54.3513 165.7371,-31.186 225.0773,-18.3747"/>
<polygon fill="#191970" stroke="#191970" points="47.6761,-215.8182 54.2203,-224.1503 54.3004,-213.5557 47.6761,-215.8182"/>
</g>
<!-- Node9 -->
<g id="node9" class="node">
<title>Node9</title>
<g id="a_node9"><a xlink:href="util_8c.html" target="_top" xlink:title=" ">
<polygon fill="#ffffff" stroke="#000000" points="67,-56.5 67,-75.5 135,-75.5 135,-56.5 67,-56.5"/>
<text text-anchor="middle" x="101" y="-63.5" font-family="Helvetica,sans-Serif" font-size="10.00" fill="#000000">main/util.c</text>
</a>
</g>
</g>
<!-- Node1&#45;&gt;Node9 -->
<g id="edge22" class="edge">
<title>Node1&#45;&gt;Node9</title>
<path fill="none" stroke="#191970" d="M62.9331,-214.7267C72.1233,-178.8207 91.5599,-102.8822 98.4845,-75.8279"/>
<polygon fill="#191970" stroke="#191970" points="59.524,-213.9306 60.4351,-224.4862 66.3054,-215.6664 59.524,-213.9306"/>
</g>
<!-- Node3 -->
<g id="node3" class="node">
<title>Node3</title>
<g id="a_node3"><a xlink:href="utp_8h.html" target="_top" xlink:title=" ">
<polygon fill="#ffffff" stroke="#000000" points="317,-112.5 317,-131.5 397,-131.5 397,-112.5 317,-112.5"/>
<text text-anchor="middle" x="357" y="-119.5" font-family="Helvetica,sans-Serif" font-size="10.00" fill="#000000">include/utp.h</text>
</a>
</g>
</g>
<!-- Node2&#45;&gt;Node3 -->
<g id="edge2" class="edge">
<title>Node2&#45;&gt;Node3</title>
<path fill="none" stroke="#191970" d="M482.3267,-165.057C452.4958,-154.8084 411.5148,-140.729 384.6551,-131.5011"/>
<polygon fill="#191970" stroke="#191970" points="481.3846,-168.4341 491.9793,-168.3733 483.6591,-161.8139 481.3846,-168.4341"/>
</g>
<!-- Node10 -->
<g id="node10" class="node">
<title>Node10</title>
<g id="a_node10"><a xlink:href="utp__templates_8h.html" target="_top" xlink:title=" ">
<polygon fill="#ffffff" stroke="#000000" points="548,-112.5 548,-131.5 682,-131.5 682,-112.5 548,-112.5"/>
<text text-anchor="middle" x="615" y="-119.5" font-family="Helvetica,sans-Serif" font-size="10.00" fill="#000000">include/utp_templates.h</text>
</a>
</g>
</g>
<!-- Node2&#45;&gt;Node10 -->
<g id="edge13" class="edge">
<title>Node2&#45;&gt;Node10</title>
<path fill="none" stroke="#191970" d="M545.3676,-163.0465C562.271,-153.0824 583.9904,-140.2794 598.6419,-131.6427"/>
<polygon fill="#191970" stroke="#191970" points="543.3851,-160.1522 536.5477,-168.2455 546.9398,-166.1825 543.3851,-160.1522"/>
</g>
<!-- Node11 -->
<g id="node11" class="node">
<title>Node11</title>
<g id="a_node11"><a xlink:href="utp__hash_8h.html" target="_top" xlink:title=" ">
<polygon fill="#ffffff" stroke="#000000" points="573,-56.5 573,-75.5 681,-75.5 681,-56.5 573,-56.5"/>
<text text-anchor="middle" x="627" y="-63.5" font-family="Helvetica,sans-Serif" font-size="10.00" fill="#000000">include/utp_hash.h</text>
</a>
</g>
</g>
<!-- Node2&#45;&gt;Node11 -->
<g id="edge17" class="edge">
<title>Node2&#45;&gt;Node11</title>
<path fill="none" stroke="#191970" d="M521.5757,-158.2042C523.6148,-143.9958 528.2892,-125.1181 539,-112 553.3919,-94.3735 576.3386,-82.6943 595.1917,-75.5157"/>
<polygon fill="#191970" stroke="#191970" points="518.0688,-158.0728 520.4404,-168.3988 525.0258,-158.8477 518.0688,-158.0728"/>
</g>
<!-- Node12 -->
<g id="node12" class="node">
<title>Node12</title>
<g id="a_node12"><a xlink:href="utp__packedsockaddr_8h.html" target="_top" xlink:title=" ">
<polygon fill="#ffffff" stroke="#000000" points="700,-112.5 700,-131.5 864,-131.5 864,-112.5 700,-112.5"/>
<text text-anchor="middle" x="782" y="-119.5" font-family="Helvetica,sans-Serif" font-size="10.00" fill="#000000">include/utp_packedsockaddr.h</text>
</a>
</g>
</g>
<!-- Node2&#45;&gt;Node12 -->
<g id="edge18" class="edge">
<title>Node2&#45;&gt;Node12</title>
<path fill="none" stroke="#191970" d="M574.7052,-166.3073C622.9832,-155.9883 692.4822,-141.1336 737.4428,-131.5237"/>
<polygon fill="#191970" stroke="#191970" points="573.7892,-162.9239 564.7417,-168.4369 575.2524,-169.7693 573.7892,-162.9239"/>
</g>
<!-- Node4 -->
<g id="node4" class="node">
<title>Node4</title>
<g id="a_node4"><a xlink:href="utp__callbacks_8h.html" target="_top" xlink:title=" ">
<polygon fill="#ffffff" stroke="#000000" points="423.5,-56.5 423.5,-75.5 554.5,-75.5 554.5,-56.5 423.5,-56.5"/>
<text text-anchor="middle" x="489" y="-63.5" font-family="Helvetica,sans-Serif" font-size="10.00" fill="#000000">include/utp_callbacks.h</text>
</a>
</g>
</g>
<!-- Node3&#45;&gt;Node4 -->
<g id="edge3" class="edge">
<title>Node3&#45;&gt;Node4</title>
<path fill="none" stroke="#191970" d="M389.0965,-108.3833C413.1035,-98.1985 445.3259,-84.5284 466.6045,-75.5011"/>
<polygon fill="#191970" stroke="#191970" points="387.5305,-105.2457 379.6916,-112.3733 390.2644,-111.6897 387.5305,-105.2457"/>
</g>
<!-- Node5 -->
<g id="node5" class="node">
<title>Node5</title>
<g id="a_node5"><a xlink:href="utp__internal_8h.html" target="_top" xlink:title=" ">
<polygon fill="#ffffff" stroke="#000000" points="497,-.5 497,-19.5 619,-19.5 619,-.5 497,-.5"/>
<text text-anchor="middle" x="558" y="-7.5" font-family="Helvetica,sans-Serif" font-size="10.00" fill="#000000">include/utp_internal.h</text>
</a>
</g>
</g>
<!-- Node3&#45;&gt;Node5 -->
<g id="edge6" class="edge">
<title>Node3&#45;&gt;Node5</title>
<path fill="none" stroke="#191970" d="M368.606,-104.0915C379.0838,-89.2485 395.7757,-68.6096 415,-56 442.5856,-37.9061 477.8259,-26.462 506.4202,-19.5139"/>
<polygon fill="#191970" stroke="#191970" points="365.6443,-102.2227 362.918,-112.4608 371.4338,-106.1574 365.6443,-102.2227"/>
</g>
<!-- Node3&#45;&gt;Node6 -->
<g id="edge7" class="edge">
<title>Node3&#45;&gt;Node6</title>
<path fill="none" stroke="#191970" d="M306.6556,-113.9463C262.0073,-105.8859 201.1406,-92.3517 183,-76 166.4359,-61.0693 160.7881,-34.0097 158.907,-19.6134"/>
<polygon fill="#191970" stroke="#191970" points="306.3103,-117.4393 316.7662,-115.729 307.5258,-110.5457 306.3103,-117.4393"/>
</g>
<!-- Node7 -->
<g id="node7" class="node">
<title>Node7</title>
<g id="a_node7"><a xlink:href="callbacks_8h.html" target="_top" xlink:title=" ">
<polygon fill="#ffffff" stroke="#000000" points="191.5,-56.5 191.5,-75.5 328.5,-75.5 328.5,-56.5 191.5,-56.5"/>
<text text-anchor="middle" x="260" y="-63.5" font-family="Helvetica,sans-Serif" font-size="10.00" fill="#000000">main/include/callbacks.h</text>
</a>
</g>
</g>
<!-- Node3&#45;&gt;Node7 -->
<g id="edge8" class="edge">
<title>Node3&#45;&gt;Node7</title>
<path fill="none" stroke="#191970" d="M331.0984,-107.0465C313.8391,-97.0824 291.6624,-84.2794 276.7025,-75.6427"/>
<polygon fill="#191970" stroke="#191970" points="329.6936,-110.2768 340.1039,-112.2455 333.1935,-104.2146 329.6936,-110.2768"/>
</g>
<!-- Node3&#45;&gt;Node8 -->
<g id="edge11" class="edge">
<title>Node3&#45;&gt;Node8</title>
<path fill="none" stroke="#191970" d="M355.0556,-101.9645C352.8378,-87.925 348.1013,-69.3578 338,-56 325.3174,-39.2288 304.591,-27.1086 288.2949,-19.5331"/>
<polygon fill="#191970" stroke="#191970" points="351.6073,-102.5924 356.3486,-112.0672 358.5507,-101.7037 351.6073,-102.5924"/>
</g>
<!-- Node3&#45;&gt;Node9 -->
<g id="edge12" class="edge">
<title>Node3&#45;&gt;Node9</title>
<path fill="none" stroke="#191970" d="M306.6437,-110.9846C256.0105,-99.9085 179.3244,-83.1335 135.311,-73.5055"/>
<polygon fill="#191970" stroke="#191970" points="306.2014,-114.4705 316.7184,-113.1884 307.6973,-107.6322 306.2014,-114.4705"/>
</g>
<!-- Node4&#45;&gt;Node5 -->
<g id="edge4" class="edge">
<title>Node4&#45;&gt;Node5</title>
<path fill="none" stroke="#191970" d="M503.2722,-49.3607C514.2726,-39.6727 529.2302,-27.7995 540.8737,-19.6427"/>
<polygon fill="#191970" stroke="#191970" points="500.7644,-46.9114 495.752,-56.2455 505.4913,-52.0744 500.7644,-46.9114"/>
</g>
<!-- Node5&#45;&gt;Node4 -->
<g id="edge5" class="edge">
<title>Node5&#45;&gt;Node4</title>
<path fill="none" stroke="#191970" d="M543.878,-26.5069C532.9139,-36.1749 517.9593,-48.0549 506.2857,-56.2455"/>
<polygon fill="#191970" stroke="#191970" points="546.3589,-28.9807 551.364,-19.6427 541.628,-23.8214 546.3589,-28.9807"/>
</g>
<!-- Node7&#45;&gt;Node6 -->
<g id="edge9" class="edge">
<title>Node7&#45;&gt;Node6</title>
<path fill="none" stroke="#191970" d="M233.266,-51.3225C215.0468,-41.3198 191.4402,-28.3593 175.5634,-19.6427"/>
<polygon fill="#191970" stroke="#191970" points="231.7827,-54.5009 242.233,-56.2455 235.1516,-48.3649 231.7827,-54.5009"/>
</g>
<!-- Node7&#45;&gt;Node8 -->
<g id="edge10" class="edge">
<title>Node7&#45;&gt;Node8</title>
<path fill="none" stroke="#191970" d="M261.4173,-46.1575C262.0604,-37.155 262.7914,-26.9199 263.3112,-19.6427"/>
<polygon fill="#191970" stroke="#191970" points="257.9182,-46.0216 260.6967,-56.2455 264.9004,-46.5204 257.9182,-46.0216"/>
</g>
<!-- Node10&#45;&gt;Node5 -->
<g id="edge14" class="edge">
<title>Node10&#45;&gt;Node5</title>
<path fill="none" stroke="#191970" d="M650.8732,-108.2417C676.871,-96.1277 705.0311,-77.1558 690,-56 679.4931,-41.212 636.241,-28.0081 602.0722,-19.5815"/>
<polygon fill="#191970" stroke="#191970" points="649.2142,-105.148 641.4768,-112.3858 652.0389,-111.5528 649.2142,-105.148"/>
</g>
<!-- Node10&#45;&gt;Node11 -->
<g id="edge15" class="edge">
<title>Node10&#45;&gt;Node11</title>
<path fill="none" stroke="#191970" d="M619.1885,-102.4538C621.1328,-93.3803 623.3572,-82.9998 624.9337,-75.6427"/>
<polygon fill="#191970" stroke="#191970" points="615.7633,-101.7341 617.0902,-112.2455 622.6079,-103.2009 615.7633,-101.7341"/>
</g>
<!-- Node11&#45;&gt;Node5 -->
<g id="edge16" class="edge">
<title>Node11&#45;&gt;Node5</title>
<path fill="none" stroke="#191970" d="M607.197,-49.928C595.1364,-40.1397 580.1286,-27.9595 569.8812,-19.6427"/>
<polygon fill="#191970" stroke="#191970" points="605.0109,-52.6614 614.9811,-56.2455 609.4221,-47.2262 605.0109,-52.6614"/>
</g>
<!-- Node12&#45;&gt;Node5 -->
<g id="edge19" class="edge">
<title>Node12&#45;&gt;Node5</title>
<path fill="none" stroke="#191970" d="M766.0161,-104.5358C751.6104,-89.7356 729.1862,-68.9153 706,-56 674.6192,-38.5202 635.7196,-26.7618 605.6769,-19.5111"/>
<polygon fill="#191970" stroke="#191970" points="763.7254,-107.2065 773.1482,-112.0503 768.8027,-102.3876 763.7254,-107.2065"/>
</g>
</g>
</svg>
