<?xml version="1.0" encoding="UTF-8" standalone="no"?>
<!DOCTYPE svg PUBLIC "-//W3C//DTD SVG 1.1//EN"
 "http://www.w3.org/Graphics/SVG/1.1/DTD/svg11.dtd">
<!-- Generated by graphviz version 2.40.1 (20161225.0304)
 -->
<!-- Title: UTPSocketHT Pages: 1 -->
<svg width="175pt" height="163pt"
 viewBox="0.00 0.00 175.00 163.00" xmlns="http://www.w3.org/2000/svg" xmlns:xlink="http://www.w3.org/1999/xlink">
<g id="graph0" class="graph" transform="scale(1 1) rotate(0) translate(4 159)">
<title>UTPSocketHT</title>
<polygon fill="#ffffff" stroke="transparent" points="-4,4 -4,-159 171,-159 171,4 -4,4"/>
<!-- Node2 -->
<g id="node1" class="node">
<title>Node2</title>
<g id="a_node1"><a xlink:title=" ">
<polygon fill="#bfbfbf" stroke="#000000" points="42,-.5 42,-19.5 125,-19.5 125,-.5 42,-.5"/>
<text text-anchor="middle" x="83.5" y="-7.5" font-family="Helvetica,sans-Serif" font-size="10.00" fill="#000000">UTPSocketHT</text>
</a>
</g>
</g>
<!-- Node3 -->
<g id="node2" class="node">
<title>Node3</title>
<g id="a_node2"><a xlink:href="classutpHashTable.html" target="_top" xlink:title=" ">
<polygon fill="#ffffff" stroke="#000000" points="0,-57.5 0,-87.5 167,-87.5 167,-57.5 0,-57.5"/>
<text text-anchor="start" x="8" y="-75.5" font-family="Helvetica,sans-Serif" font-size="10.00" fill="#000000">utpHashTable&lt; UTPSocketKey,</text>
<text text-anchor="middle" x="83.5" y="-64.5" font-family="Helvetica,sans-Serif" font-size="10.00" fill="#000000"> UTPSocketKeyData &gt;</text>
</a>
</g>
</g>
<!-- Node3&#45;&gt;Node2 -->
<g id="edge1" class="edge">
<title>Node3&#45;&gt;Node2</title>
<path fill="none" stroke="#191970" d="M83.5,-47.3498C83.5,-37.6481 83.5,-27.1303 83.5,-19.7356"/>
<polygon fill="#191970" stroke="#191970" points="80.0001,-47.3705 83.5,-57.3705 87.0001,-47.3705 80.0001,-47.3705"/>
</g>
<!-- Node4 -->
<g id="node3" class="node">
<title>Node4</title>
<g id="a_node3"><a xlink:href="structutp__hash__t.html" target="_top" xlink:title=" ">
<polygon fill="#ffffff" stroke="#000000" points="48.5,-135.5 48.5,-154.5 118.5,-154.5 118.5,-135.5 48.5,-135.5"/>
<text text-anchor="middle" x="83.5" y="-142.5" font-family="Helvetica,sans-Serif" font-size="10.00" fill="#000000">utp_hash_t</text>
</a>
</g>
</g>
<!-- Node4&#45;&gt;Node3 -->
<g id="edge2" class="edge">
<title>Node4&#45;&gt;Node3</title>
<path fill="none" stroke="#9a32cd" stroke-dasharray="5,2" d="M83.5,-125.0177C83.5,-113.2164 83.5,-98.513 83.5,-87.668"/>
<polygon fill="#9a32cd" stroke="#9a32cd" points="80.0001,-125.2223 83.5,-135.2223 87.0001,-125.2224 80.0001,-125.2223"/>
<text text-anchor="middle" x="97" y="-109" font-family="Helvetica,sans-Serif" font-size="10.00" fill="#000000"> hash</text>
</g>
</g>
</svg>
