<?xml version="1.0" encoding="UTF-8" standalone="no"?>
<!DOCTYPE svg PUBLIC "-//W3C//DTD SVG 1.1//EN"
 "http://www.w3.org/Graphics/SVG/1.1/DTD/svg11.dtd">
<!-- Generated by graphviz version 2.40.1 (20161225.0304)
 -->
<!-- Title: UTPSocketHT::~UTPSocketHT Pages: 1 -->
<svg width="373pt" height="78pt"
 viewBox="0.00 0.00 373.00 77.50" xmlns="http://www.w3.org/2000/svg" xmlns:xlink="http://www.w3.org/1999/xlink">
<g id="graph0" class="graph" transform="scale(1 1) rotate(0) translate(4 73.5)">
<title>UTPSocketHT::~UTPSocketHT</title>
<polygon fill="#ffffff" stroke="transparent" points="-4,4 -4,-73.5 369,-73.5 369,4 -4,4"/>
<!-- Node3 -->
<g id="node1" class="node">
<title>Node3</title>
<g id="a_node1"><a xlink:title=" ">
<polygon fill="#bfbfbf" stroke="#000000" points="0,-28 0,-47 162,-47 162,-28 0,-28"/>
<text text-anchor="middle" x="81" y="-35" font-family="Helvetica,sans-Serif" font-size="10.00" fill="#000000">UTPSocketHT::~UTPSocketHT</text>
</a>
</g>
</g>
<!-- Node4 -->
<g id="node2" class="node">
<title>Node4</title>
<g id="a_node2"><a xlink:href="utp__internal_8h.html#a70d793c4b034f15f5f1cc6d936adde8d" target="_top" xlink:title=" ">
<polygon fill="#ffffff" stroke="#000000" points="244.5,-50 244.5,-69 318.5,-69 318.5,-50 244.5,-50"/>
<text text-anchor="middle" x="281.5" y="-57" font-family="Helvetica,sans-Serif" font-size="10.00" fill="#000000">UTP_FreeAll</text>
</a>
</g>
</g>
<!-- Node3&#45;&gt;Node4 -->
<g id="edge1" class="edge">
<title>Node3&#45;&gt;Node4</title>
<path fill="none" stroke="#191970" d="M162.262,-46.4165C186.7029,-49.0983 212.7068,-51.9516 234.1724,-54.3069"/>
<polygon fill="#191970" stroke="#191970" points="233.9966,-57.8086 244.3187,-55.4203 234.7602,-50.8503 233.9966,-57.8086"/>
</g>
<!-- Node5 -->
<g id="node3" class="node">
<title>Node5</title>
<g id="a_node3"><a xlink:href="classutpHashTable.html#a714f6ef7d99a949785d1eb58f8b54ccd" target="_top" xlink:title=" ">
<polygon fill="#ffffff" stroke="#000000" points="198,-.5 198,-30.5 365,-30.5 365,-.5 198,-.5"/>
<text text-anchor="start" x="206" y="-18.5" font-family="Helvetica,sans-Serif" font-size="10.00" fill="#000000">utpHashTable&lt; UTPSocketKey,</text>
<text text-anchor="middle" x="281.5" y="-7.5" font-family="Helvetica,sans-Serif" font-size="10.00" fill="#000000"> UTPSocketKeyData &gt;::Free</text>
</a>
</g>
</g>
<!-- Node3&#45;&gt;Node5 -->
<g id="edge2" class="edge">
<title>Node3&#45;&gt;Node5</title>
<path fill="none" stroke="#191970" d="M162.262,-28.5835C170.6883,-27.6589 179.3003,-26.7139 187.8481,-25.776"/>
<polygon fill="#191970" stroke="#191970" points="188.2794,-29.2498 197.838,-24.6799 187.5158,-22.2916 188.2794,-29.2498"/>
</g>
</g>
</svg>
