<?xml version="1.0" encoding="UTF-8" standalone="no"?>
<!DOCTYPE svg PUBLIC "-//W3C//DTD SVG 1.1//EN"
 "http://www.w3.org/Graphics/SVG/1.1/DTD/svg11.dtd">
<!-- Generated by graphviz version 2.40.1 (20161225.0304)
 -->
<!-- Title: utp_context Pages: 1 -->
<svg width="484pt" height="240pt"
 viewBox="0.00 0.00 484.00 240.00" xmlns="http://www.w3.org/2000/svg" xmlns:xlink="http://www.w3.org/1999/xlink">
<g id="graph0" class="graph" transform="scale(1 1) rotate(0) translate(4 236)">
<title>utp_context</title>
<polygon fill="#ffffff" stroke="transparent" points="-4,4 -4,-236 480,-236 480,4 -4,4"/>
<!-- Node1 -->
<g id="node1" class="node">
<title>Node1</title>
<g id="a_node1"><a xlink:title=" ">
<polygon fill="#bfbfbf" stroke="#000000" points="206,-.5 206,-19.5 280,-19.5 280,-.5 206,-.5"/>
<text text-anchor="middle" x="243" y="-7.5" font-family="Helvetica,sans-Serif" font-size="10.00" fill="#000000">utp_context</text>
</a>
</g>
</g>
<!-- Node2 -->
<g id="node2" class="node">
<title>Node2</title>
<g id="a_node2"><a xlink:href="classArray.html" target="_top" xlink:title=" ">
<polygon fill="#ffffff" stroke="#000000" points="0,-67.5 0,-86.5 126,-86.5 126,-67.5 0,-67.5"/>
<text text-anchor="middle" x="63" y="-74.5" font-family="Helvetica,sans-Serif" font-size="10.00" fill="#000000">Array&lt; UTPSocket * &gt;</text>
</a>
</g>
</g>
<!-- Node2&#45;&gt;Node1 -->
<g id="edge1" class="edge">
<title>Node2&#45;&gt;Node1</title>
<path fill="none" stroke="#9a32cd" stroke-dasharray="5,2" d="M84.5164,-61.5638C96.5303,-53.5548 112.0523,-44.1805 127,-38 152.3675,-27.5112 182.5506,-20.3791 205.7687,-15.9388"/>
<polygon fill="#9a32cd" stroke="#9a32cd" points="82.3498,-58.8056 76.0808,-67.3467 86.3078,-64.5792 82.3498,-58.8056"/>
<text text-anchor="middle" x="159" y="-41" font-family="Helvetica,sans-Serif" font-size="10.00" fill="#000000"> ack_sockets</text>
</g>
<!-- Node3 -->
<g id="node3" class="node">
<title>Node3</title>
<g id="a_node3"><a xlink:href="structUTPSocketHT.html" target="_top" xlink:title=" ">
<polygon fill="#ffffff" stroke="#000000" points="144.5,-67.5 144.5,-86.5 227.5,-86.5 227.5,-67.5 144.5,-67.5"/>
<text text-anchor="middle" x="186" y="-74.5" font-family="Helvetica,sans-Serif" font-size="10.00" fill="#000000">UTPSocketHT</text>
</a>
</g>
</g>
<!-- Node3&#45;&gt;Node1 -->
<g id="edge2" class="edge">
<title>Node3&#45;&gt;Node1</title>
<path fill="none" stroke="#9a32cd" stroke-dasharray="5,2" d="M191.4724,-57.4907C193.9641,-50.8478 197.407,-43.6743 202,-38 207.9654,-30.6302 216.3741,-24.4242 224.0251,-19.7424"/>
<polygon fill="#9a32cd" stroke="#9a32cd" points="188.0787,-56.6089 188.3111,-67.2011 194.7349,-58.7758 188.0787,-56.6089"/>
<text text-anchor="middle" x="233" y="-41" font-family="Helvetica,sans-Serif" font-size="10.00" fill="#000000"> utp_sockets</text>
</g>
<!-- Node4 -->
<g id="node4" class="node">
<title>Node4</title>
<g id="a_node4"><a xlink:href="classutpHashTable.html" target="_top" xlink:title=" ">
<polygon fill="#ffffff" stroke="#000000" points="92.5,-134.5 92.5,-164.5 259.5,-164.5 259.5,-134.5 92.5,-134.5"/>
<text text-anchor="start" x="100.5" y="-152.5" font-family="Helvetica,sans-Serif" font-size="10.00" fill="#000000">utpHashTable&lt; UTPSocketKey,</text>
<text text-anchor="middle" x="176" y="-141.5" font-family="Helvetica,sans-Serif" font-size="10.00" fill="#000000"> UTPSocketKeyData &gt;</text>
</a>
</g>
</g>
<!-- Node4&#45;&gt;Node3 -->
<g id="edge3" class="edge">
<title>Node4&#45;&gt;Node3</title>
<path fill="none" stroke="#191970" d="M179.4752,-124.305C181.2519,-111.424 183.3126,-96.4836 184.6351,-86.8957"/>
<polygon fill="#191970" stroke="#191970" points="175.9713,-124.0935 178.072,-134.478 182.9056,-125.05 175.9713,-124.0935"/>
</g>
<!-- Node5 -->
<g id="node5" class="node">
<title>Node5</title>
<g id="a_node5"><a xlink:href="structutp__hash__t.html" target="_top" xlink:title=" ">
<polygon fill="#ffffff" stroke="#000000" points="141,-212.5 141,-231.5 211,-231.5 211,-212.5 141,-212.5"/>
<text text-anchor="middle" x="176" y="-219.5" font-family="Helvetica,sans-Serif" font-size="10.00" fill="#000000">utp_hash_t</text>
</a>
</g>
</g>
<!-- Node5&#45;&gt;Node4 -->
<g id="edge4" class="edge">
<title>Node5&#45;&gt;Node4</title>
<path fill="none" stroke="#9a32cd" stroke-dasharray="5,2" d="M176,-202.0177C176,-190.2164 176,-175.513 176,-164.668"/>
<polygon fill="#9a32cd" stroke="#9a32cd" points="172.5001,-202.2223 176,-212.2223 179.5001,-202.2224 172.5001,-202.2223"/>
<text text-anchor="middle" x="189.5" y="-186" font-family="Helvetica,sans-Serif" font-size="10.00" fill="#000000"> hash</text>
</g>
<!-- Node6 -->
<g id="node6" class="node">
<title>Node6</title>
<g id="a_node6"><a xlink:href="classArray.html" target="_top" xlink:title=" ">
<polygon fill="#ffffff" stroke="#000000" points="246,-67.5 246,-86.5 354,-86.5 354,-67.5 246,-67.5"/>
<text text-anchor="middle" x="300" y="-74.5" font-family="Helvetica,sans-Serif" font-size="10.00" fill="#000000">Array&lt; RST_Info &gt;</text>
</a>
</g>
</g>
<!-- Node6&#45;&gt;Node1 -->
<g id="edge5" class="edge">
<title>Node6&#45;&gt;Node1</title>
<path fill="none" stroke="#9a32cd" stroke-dasharray="5,2" d="M285.2946,-59.7147C274.4274,-46.941 260.034,-30.0224 251.1516,-19.5817"/>
<polygon fill="#9a32cd" stroke="#9a32cd" points="282.6877,-62.0519 291.8333,-67.4005 288.0193,-57.516 282.6877,-62.0519"/>
<text text-anchor="middle" x="294" y="-41" font-family="Helvetica,sans-Serif" font-size="10.00" fill="#000000"> rst_info</text>
</g>
<!-- Node7 -->
<g id="node7" class="node">
<title>Node7</title>
<g id="a_node7"><a xlink:href="structRST__Info.html" target="_top" xlink:title=" ">
<polygon fill="#ffffff" stroke="#000000" points="277.5,-140 277.5,-159 336.5,-159 336.5,-140 277.5,-140"/>
<text text-anchor="middle" x="307" y="-147" font-family="Helvetica,sans-Serif" font-size="10.00" fill="#000000">RST_Info</text>
</a>
</g>
</g>
<!-- Node7&#45;&gt;Node6 -->
<g id="edge6" class="edge">
<title>Node7&#45;&gt;Node6</title>
<path fill="none" stroke="#9a32cd" stroke-dasharray="5,2" d="M305.0791,-129.6054C303.7292,-115.6237 301.9827,-97.5346 300.9291,-86.6228"/>
<polygon fill="#9a32cd" stroke="#9a32cd" points="301.611,-130.105 306.0559,-139.7223 308.5786,-129.4322 301.611,-130.105"/>
<text text-anchor="middle" x="317.5" y="-108" font-family="Helvetica,sans-Serif" font-size="10.00" fill="#000000"> mem</text>
</g>
<!-- Node8 -->
<g id="node8" class="node">
<title>Node8</title>
<g id="a_node8"><a xlink:href="structPackedSockAddr.html" target="_top" xlink:title=" ">
<polygon fill="#ffffff" stroke="#000000" points="258.5,-212.5 258.5,-231.5 355.5,-231.5 355.5,-212.5 258.5,-212.5"/>
<text text-anchor="middle" x="307" y="-219.5" font-family="Helvetica,sans-Serif" font-size="10.00" fill="#000000">PackedSockAddr</text>
</a>
</g>
</g>
<!-- Node8&#45;&gt;Node7 -->
<g id="edge7" class="edge">
<title>Node8&#45;&gt;Node7</title>
<path fill="none" stroke="#9a32cd" stroke-dasharray="5,2" d="M307,-202.1054C307,-188.1237 307,-170.0346 307,-159.1228"/>
<polygon fill="#9a32cd" stroke="#9a32cd" points="303.5001,-202.2223 307,-212.2223 310.5001,-202.2224 303.5001,-202.2223"/>
<text text-anchor="middle" x="319.5" y="-186" font-family="Helvetica,sans-Serif" font-size="10.00" fill="#000000"> addr</text>
</g>
<!-- Node9 -->
<g id="node9" class="node">
<title>Node9</title>
<g id="a_node9"><a xlink:href="structutp__context__stats.html" target="_top" xlink:title=" ">
<polygon fill="#ffffff" stroke="#000000" points="372,-67.5 372,-86.5 476,-86.5 476,-67.5 372,-67.5"/>
<text text-anchor="middle" x="424" y="-74.5" font-family="Helvetica,sans-Serif" font-size="10.00" fill="#000000">utp_context_stats</text>
</a>
</g>
</g>
<!-- Node9&#45;&gt;Node1 -->
<g id="edge8" class="edge">
<title>Node9&#45;&gt;Node1</title>
<path fill="none" stroke="#9a32cd" stroke-dasharray="5,2" d="M388.6536,-63.916C353.4715,-50.8928 300.3138,-31.2156 268.8848,-19.5817"/>
<polygon fill="#9a32cd" stroke="#9a32cd" points="387.474,-67.2114 398.0671,-67.4005 389.904,-60.6467 387.474,-67.2114"/>
<text text-anchor="middle" x="379" y="-41" font-family="Helvetica,sans-Serif" font-size="10.00" fill="#000000"> context_stats</text>
</g>
</g>
</svg>
