<?xml version="1.0" encoding="UTF-8" standalone="no"?>
<!DOCTYPE svg PUBLIC "-//W3C//DTD SVG 1.1//EN"
 "http://www.w3.org/Graphics/SVG/1.1/DTD/svg11.dtd">
<!-- Generated by graphviz version 2.40.1 (20161225.0304)
 -->
<!-- Title: include/sys/types.h Pages: 1 -->
<svg width="288pt" height="84pt"
 viewBox="0.00 0.00 288.00 84.00" xmlns="http://www.w3.org/2000/svg" xmlns:xlink="http://www.w3.org/1999/xlink">
<g id="graph0" class="graph" transform="scale(1 1) rotate(0) translate(4 80)">
<title>include/sys/types.h</title>
<polygon fill="#ffffff" stroke="transparent" points="-4,4 -4,-80 284,-80 284,4 -4,4"/>
<!-- Node2 -->
<g id="node1" class="node">
<title>Node2</title>
<g id="a_node1"><a xlink:title=" ">
<polygon fill="#bfbfbf" stroke="#000000" points="100,-56.5 100,-75.5 210,-75.5 210,-56.5 100,-56.5"/>
<text text-anchor="middle" x="155" y="-63.5" font-family="Helvetica,sans-Serif" font-size="10.00" fill="#000000">include/sys/types.h</text>
</a>
</g>
</g>
<!-- Node3 -->
<g id="node2" class="node">
<title>Node3</title>
<g id="a_node2"><a xlink:href="callbacks_8c.html" target="_top" xlink:title=" ">
<polygon fill="#ffffff" stroke="#000000" points="0,-.5 0,-19.5 98,-19.5 98,-.5 0,-.5"/>
<text text-anchor="middle" x="49" y="-7.5" font-family="Helvetica,sans-Serif" font-size="10.00" fill="#000000">main/callbacks.c</text>
</a>
</g>
</g>
<!-- Node2&#45;&gt;Node3 -->
<g id="edge1" class="edge">
<title>Node2&#45;&gt;Node3</title>
<path fill="none" stroke="#191970" d="M127.4778,-51.46C108.5092,-41.4388 83.8273,-28.3993 67.2522,-19.6427"/>
<polygon fill="#191970" stroke="#191970" points="126.0593,-54.669 136.5362,-56.2455 129.3292,-48.4796 126.0593,-54.669"/>
</g>
<!-- Node4 -->
<g id="node3" class="node">
<title>Node4</title>
<g id="a_node3"><a xlink:href="main_8c.html" target="_top" xlink:title=" ">
<polygon fill="#ffffff" stroke="#000000" points="116.5,-.5 116.5,-19.5 193.5,-19.5 193.5,-.5 116.5,-.5"/>
<text text-anchor="middle" x="155" y="-7.5" font-family="Helvetica,sans-Serif" font-size="10.00" fill="#000000">main/main.c</text>
</a>
</g>
</g>
<!-- Node2&#45;&gt;Node4 -->
<g id="edge2" class="edge">
<title>Node2&#45;&gt;Node4</title>
<path fill="none" stroke="#191970" d="M155,-46.1575C155,-37.155 155,-26.9199 155,-19.6427"/>
<polygon fill="#191970" stroke="#191970" points="151.5001,-46.2455 155,-56.2455 158.5001,-46.2456 151.5001,-46.2455"/>
</g>
<!-- Node5 -->
<g id="node4" class="node">
<title>Node5</title>
<g id="a_node4"><a xlink:href="util_8c.html" target="_top" xlink:title=" ">
<polygon fill="#ffffff" stroke="#000000" points="212,-.5 212,-19.5 280,-19.5 280,-.5 212,-.5"/>
<text text-anchor="middle" x="246" y="-7.5" font-family="Helvetica,sans-Serif" font-size="10.00" fill="#000000">main/util.c</text>
</a>
</g>
</g>
<!-- Node2&#45;&gt;Node5 -->
<g id="edge3" class="edge">
<title>Node2&#45;&gt;Node5</title>
<path fill="none" stroke="#191970" d="M179.7504,-50.769C195.8758,-40.8456 216.426,-28.1994 230.3307,-19.6427"/>
<polygon fill="#191970" stroke="#191970" points="177.5332,-48.0237 170.851,-56.2455 181.2019,-53.9853 177.5332,-48.0237"/>
</g>
</g>
</svg>
