<?xml version="1.0" encoding="UTF-8" standalone="no"?>
<!DOCTYPE svg PUBLIC "-//W3C//DTD SVG 1.1//EN"
 "http://www.w3.org/Graphics/SVG/1.1/DTD/svg11.dtd">
<!-- Generated by graphviz version 2.40.1 (20161225.0304)
 -->
<!-- Title: main/util.c Pages: 1 -->
<svg width="507pt" height="196pt"
 viewBox="0.00 0.00 506.50 196.00" xmlns="http://www.w3.org/2000/svg" xmlns:xlink="http://www.w3.org/1999/xlink">
<g id="graph0" class="graph" transform="scale(1 1) rotate(0) translate(4 192)">
<title>main/util.c</title>
<polygon fill="#ffffff" stroke="transparent" points="-4,4 -4,-192 502.5,-192 502.5,4 -4,4"/>
<!-- Node0 -->
<g id="node1" class="node">
<title>Node0</title>
<g id="a_node1"><a xlink:title=" ">
<polygon fill="#bfbfbf" stroke="#000000" points="210,-168.5 210,-187.5 278,-187.5 278,-168.5 210,-168.5"/>
<text text-anchor="middle" x="244" y="-175.5" font-family="Helvetica,sans-Serif" font-size="10.00" fill="#000000">main/util.c</text>
</a>
</g>
</g>
<!-- Node1 -->
<g id="node2" class="node">
<title>Node1</title>
<g id="a_node2"><a xlink:title=" ">
<polygon fill="#ffffff" stroke="#bfbfbf" points="0,-112.5 0,-131.5 50,-131.5 50,-112.5 0,-112.5"/>
<text text-anchor="middle" x="25" y="-119.5" font-family="Helvetica,sans-Serif" font-size="10.00" fill="#000000">stdio.h</text>
</a>
</g>
</g>
<!-- Node0&#45;&gt;Node1 -->
<g id="edge1" class="edge">
<title>Node0&#45;&gt;Node1</title>
<path fill="none" stroke="#191970" d="M209.8256,-169.2752C173.6172,-160.0291 114.776,-144.9978 64,-132 62.743,-131.6782 61.4633,-131.3506 60.1707,-131.0195"/>
<polygon fill="#191970" stroke="#191970" points="60.7303,-127.5499 50.1745,-128.4581 58.9927,-134.3308 60.7303,-127.5499"/>
</g>
<!-- Node2 -->
<g id="node3" class="node">
<title>Node2</title>
<g id="a_node3"><a xlink:title=" ">
<polygon fill="#ffffff" stroke="#bfbfbf" points="114.5,-56.5 114.5,-75.5 167.5,-75.5 167.5,-56.5 114.5,-56.5"/>
<text text-anchor="middle" x="141" y="-63.5" font-family="Helvetica,sans-Serif" font-size="10.00" fill="#000000">stdint.h</text>
</a>
</g>
</g>
<!-- Node0&#45;&gt;Node2 -->
<g id="edge2" class="edge">
<title>Node0&#45;&gt;Node2</title>
<path fill="none" stroke="#191970" d="M209.9346,-172.1151C170.8675,-164.5911 110.4603,-150.316 97,-132 84.7776,-115.3685 101.9475,-95.5893 118.2834,-82.0484"/>
<polygon fill="#191970" stroke="#191970" points="120.8466,-84.4888 126.59,-75.5858 116.5481,-78.964 120.8466,-84.4888"/>
</g>
<!-- Node3 -->
<g id="node4" class="node">
<title>Node3</title>
<g id="a_node4"><a xlink:title=" ">
<polygon fill="#ffffff" stroke="#bfbfbf" points="106.5,-112.5 106.5,-131.5 159.5,-131.5 159.5,-112.5 106.5,-112.5"/>
<text text-anchor="middle" x="133" y="-119.5" font-family="Helvetica,sans-Serif" font-size="10.00" fill="#000000">string.h</text>
</a>
</g>
</g>
<!-- Node0&#45;&gt;Node3 -->
<g id="edge3" class="edge">
<title>Node0&#45;&gt;Node3</title>
<path fill="none" stroke="#191970" d="M224.9184,-168.3733C207.2598,-159.4644 180.7947,-146.1127 160.7902,-136.0203"/>
<polygon fill="#191970" stroke="#191970" points="162.3372,-132.8806 151.8326,-131.5011 159.1842,-139.1303 162.3372,-132.8806"/>
</g>
<!-- Node4 -->
<g id="node5" class="node">
<title>Node4</title>
<g id="a_node5"><a xlink:title=" ">
<polygon fill="#ffffff" stroke="#bfbfbf" points="177.5,-112.5 177.5,-131.5 230.5,-131.5 230.5,-112.5 177.5,-112.5"/>
<text text-anchor="middle" x="204" y="-119.5" font-family="Helvetica,sans-Serif" font-size="10.00" fill="#000000">stdlib.h</text>
</a>
</g>
</g>
<!-- Node0&#45;&gt;Node4 -->
<g id="edge4" class="edge">
<title>Node0&#45;&gt;Node4</title>
<path fill="none" stroke="#191970" d="M237.0325,-168.2455C231.4689,-160.4564 223.522,-149.3308 216.8171,-139.9439"/>
<polygon fill="#191970" stroke="#191970" points="219.5481,-137.7457 210.8876,-131.6427 213.852,-141.8144 219.5481,-137.7457"/>
</g>
<!-- Node5 -->
<g id="node6" class="node">
<title>Node5</title>
<g id="a_node6"><a xlink:href="utp_8h.html" target="_top" xlink:title=" ">
<polygon fill="#ffffff" stroke="#000000" points="339.5,-112.5 339.5,-131.5 380.5,-131.5 380.5,-112.5 339.5,-112.5"/>
<text text-anchor="middle" x="360" y="-119.5" font-family="Helvetica,sans-Serif" font-size="10.00" fill="#000000">utp.h</text>
</a>
</g>
</g>
<!-- Node0&#45;&gt;Node5 -->
<g id="edge5" class="edge">
<title>Node0&#45;&gt;Node5</title>
<path fill="none" stroke="#191970" d="M263.9411,-168.3733C282.4786,-159.4241 310.3028,-145.9917 331.2413,-135.8835"/>
<polygon fill="#191970" stroke="#191970" points="332.8352,-139.0006 340.3191,-131.5011 329.7919,-132.6967 332.8352,-139.0006"/>
</g>
<!-- Node11 -->
<g id="node12" class="node">
<title>Node11</title>
<g id="a_node12"><a xlink:href="socket_8h.html" target="_top" xlink:title=" ">
<polygon fill="#ffffff" stroke="#000000" points="398.5,-.5 398.5,-19.5 475.5,-19.5 475.5,-.5 398.5,-.5"/>
<text text-anchor="middle" x="437" y="-7.5" font-family="Helvetica,sans-Serif" font-size="10.00" fill="#000000">sys/socket.h</text>
</a>
</g>
</g>
<!-- Node0&#45;&gt;Node11 -->
<g id="edge12" class="edge">
<title>Node0&#45;&gt;Node11</title>
<path fill="none" stroke="#191970" d="M278.2119,-170.7232C315.7518,-162.1346 372.84,-147.1023 389,-132 418.3925,-104.5313 430.0794,-56.8365 434.4984,-29.9391"/>
<polygon fill="#191970" stroke="#191970" points="437.9965,-30.2052 435.9777,-19.8045 431.0699,-29.1941 437.9965,-30.2052"/>
</g>
<!-- Node12 -->
<g id="node13" class="node">
<title>Node12</title>
<g id="a_node13"><a xlink:href="types_8h.html" target="_top" xlink:title=" ">
<polygon fill="#ffffff" stroke="#000000" points="249,-112.5 249,-131.5 321,-131.5 321,-112.5 249,-112.5"/>
<text text-anchor="middle" x="285" y="-119.5" font-family="Helvetica,sans-Serif" font-size="10.00" fill="#000000">sys/types.h</text>
</a>
</g>
</g>
<!-- Node0&#45;&gt;Node12 -->
<g id="edge13" class="edge">
<title>Node0&#45;&gt;Node12</title>
<path fill="none" stroke="#191970" d="M251.1417,-168.2455C256.8444,-160.4564 264.99,-149.3308 271.8625,-139.9439"/>
<polygon fill="#191970" stroke="#191970" points="274.8568,-141.7789 277.9402,-131.6427 269.2087,-137.6437 274.8568,-141.7789"/>
</g>
<!-- Node13 -->
<g id="node14" class="node">
<title>Node13</title>
<g id="a_node14"><a xlink:href="netdb_8h.html" target="_top" xlink:title=" ">
<polygon fill="#ffffff" stroke="#000000" points="445.5,-112.5 445.5,-131.5 498.5,-131.5 498.5,-112.5 445.5,-112.5"/>
<text text-anchor="middle" x="472" y="-119.5" font-family="Helvetica,sans-Serif" font-size="10.00" fill="#000000">netdb.h</text>
</a>
</g>
</g>
<!-- Node0&#45;&gt;Node13 -->
<g id="edge15" class="edge">
<title>Node0&#45;&gt;Node13</title>
<path fill="none" stroke="#191970" d="M278.1339,-169.6162C320.4566,-159.2212 392.2928,-141.5772 435.6266,-130.9338"/>
<polygon fill="#191970" stroke="#191970" points="436.5927,-134.3006 445.4692,-128.5163 434.923,-127.5027 436.5927,-134.3006"/>
</g>
<!-- Node6 -->
<g id="node7" class="node">
<title>Node6</title>
<g id="a_node7"><a xlink:title=" ">
<polygon fill="#ffffff" stroke="#bfbfbf" points="241,-56.5 241,-75.5 297,-75.5 297,-56.5 241,-56.5"/>
<text text-anchor="middle" x="269" y="-63.5" font-family="Helvetica,sans-Serif" font-size="10.00" fill="#000000">stdarg.h</text>
</a>
</g>
</g>
<!-- Node5&#45;&gt;Node6 -->
<g id="edge6" class="edge">
<title>Node5&#45;&gt;Node6</title>
<path fill="none" stroke="#191970" d="M344.149,-112.2455C330.1868,-103.6534 309.6272,-91.0014 293.5404,-81.1018"/>
<polygon fill="#191970" stroke="#191970" points="295.0203,-77.9029 284.6693,-75.6427 291.3516,-83.8645 295.0203,-77.9029"/>
</g>
<!-- Node7 -->
<g id="node8" class="node">
<title>Node7</title>
<g id="a_node8"><a xlink:href="utp__types_8h.html" target="_top" xlink:title=" ">
<polygon fill="#ffffff" stroke="#000000" points="315,-56.5 315,-75.5 389,-75.5 389,-56.5 315,-56.5"/>
<text text-anchor="middle" x="352" y="-63.5" font-family="Helvetica,sans-Serif" font-size="10.00" fill="#000000">utp_types.h</text>
</a>
</g>
</g>
<!-- Node5&#45;&gt;Node7 -->
<g id="edge7" class="edge">
<title>Node5&#45;&gt;Node7</title>
<path fill="none" stroke="#191970" d="M358.6065,-112.2455C357.5626,-104.9382 356.0992,-94.6944 354.8149,-85.7046"/>
<polygon fill="#191970" stroke="#191970" points="358.2566,-85.0472 353.3775,-75.6427 351.327,-86.0372 358.2566,-85.0472"/>
</g>
<!-- Node8 -->
<g id="node9" class="node">
<title>Node8</title>
<g id="a_node9"><a xlink:href="in_8h.html" target="_top" xlink:title=" ">
<polygon fill="#ffffff" stroke="#000000" points="146,-.5 146,-19.5 218,-19.5 218,-.5 146,-.5"/>
<text text-anchor="middle" x="182" y="-7.5" font-family="Helvetica,sans-Serif" font-size="10.00" fill="#000000">netinet/in.h</text>
</a>
</g>
</g>
<!-- Node7&#45;&gt;Node8 -->
<g id="edge8" class="edge">
<title>Node7&#45;&gt;Node8</title>
<path fill="none" stroke="#191970" d="M322.776,-56.3733C294.5075,-47.0613 251.5035,-32.8953 220.4656,-22.671"/>
<polygon fill="#191970" stroke="#191970" points="221.4357,-19.3056 210.8427,-19.5011 219.2456,-25.9542 221.4357,-19.3056"/>
</g>
<!-- Node9 -->
<g id="node10" class="node">
<title>Node9</title>
<g id="a_node10"><a xlink:title=" ">
<polygon fill="#ffffff" stroke="#bfbfbf" points="236.5,-.5 236.5,-19.5 305.5,-19.5 305.5,-.5 236.5,-.5"/>
<text text-anchor="middle" x="271" y="-7.5" font-family="Helvetica,sans-Serif" font-size="10.00" fill="#000000">arpa/inet.h</text>
</a>
</g>
</g>
<!-- Node7&#45;&gt;Node9 -->
<g id="edge9" class="edge">
<title>Node7&#45;&gt;Node9</title>
<path fill="none" stroke="#191970" d="M337.8909,-56.2455C325.5791,-47.7337 307.5042,-35.2375 293.2462,-25.3801"/>
<polygon fill="#191970" stroke="#191970" points="295.1634,-22.4506 284.9474,-19.6427 291.1826,-28.2085 295.1634,-22.4506"/>
</g>
<!-- Node10 -->
<g id="node11" class="node">
<title>Node10</title>
<g id="a_node11"><a xlink:title=" ">
<polygon fill="#ffffff" stroke="#bfbfbf" points="324,-.5 324,-19.5 380,-19.5 380,-.5 324,-.5"/>
<text text-anchor="middle" x="352" y="-7.5" font-family="Helvetica,sans-Serif" font-size="10.00" fill="#000000">unistd.h</text>
</a>
</g>
</g>
<!-- Node7&#45;&gt;Node10 -->
<g id="edge10" class="edge">
<title>Node7&#45;&gt;Node10</title>
<path fill="none" stroke="#191970" d="M352,-56.2455C352,-48.9382 352,-38.6944 352,-29.7046"/>
<polygon fill="#191970" stroke="#191970" points="355.5001,-29.6426 352,-19.6427 348.5001,-29.6427 355.5001,-29.6426"/>
</g>
<!-- Node7&#45;&gt;Node11 -->
<g id="edge11" class="edge">
<title>Node7&#45;&gt;Node11</title>
<path fill="none" stroke="#191970" d="M366.8059,-56.2455C379.7256,-47.7337 398.6931,-35.2375 413.6552,-25.3801"/>
<polygon fill="#191970" stroke="#191970" points="415.9387,-28.067 422.3638,-19.6427 412.0876,-22.2216 415.9387,-28.067"/>
</g>
<!-- Node12&#45;&gt;Node2 -->
<g id="edge14" class="edge">
<title>Node12&#45;&gt;Node2</title>
<path fill="none" stroke="#191970" d="M260.2455,-112.3733C236.7151,-103.2226 201.1313,-89.3844 174.9574,-79.2057"/>
<polygon fill="#191970" stroke="#191970" points="176.0201,-75.8636 165.4315,-75.5011 173.4829,-82.3877 176.0201,-75.8636"/>
</g>
</g>
</svg>
