<?xml version="1.0" encoding="UTF-8" standalone="no"?>
<!DOCTYPE svg PUBLIC "-//W3C//DTD SVG 1.1//EN"
 "http://www.w3.org/Graphics/SVG/1.1/DTD/svg11.dtd">
<!-- Generated by graphviz version 2.40.1 (20161225.0304)
 -->
<!-- Title: include/utp.h Pages: 1 -->
<svg width="496pt" height="140pt"
 viewBox="0.00 0.00 495.50 140.00" xmlns="http://www.w3.org/2000/svg" xmlns:xlink="http://www.w3.org/1999/xlink">
<g id="graph0" class="graph" transform="scale(1 1) rotate(0) translate(4 136)">
<title>include/utp.h</title>
<polygon fill="#ffffff" stroke="transparent" points="-4,4 -4,-136 491.5,-136 491.5,4 -4,4"/>
<!-- Node7 -->
<g id="node1" class="node">
<title>Node7</title>
<g id="a_node1"><a xlink:title=" ">
<polygon fill="#bfbfbf" stroke="#000000" points="205.5,-112.5 205.5,-131.5 285.5,-131.5 285.5,-112.5 205.5,-112.5"/>
<text text-anchor="middle" x="245.5" y="-119.5" font-family="Helvetica,sans-Serif" font-size="10.00" fill="#000000">include/utp.h</text>
</a>
</g>
</g>
<!-- Node8 -->
<g id="node2" class="node">
<title>Node8</title>
<g id="a_node2"><a xlink:href="utp__callbacks_8h.html" target="_top" xlink:title=" ">
<polygon fill="#ffffff" stroke="#000000" points="0,-56.5 0,-75.5 131,-75.5 131,-56.5 0,-56.5"/>
<text text-anchor="middle" x="65.5" y="-63.5" font-family="Helvetica,sans-Serif" font-size="10.00" fill="#000000">include/utp_callbacks.h</text>
</a>
</g>
</g>
<!-- Node7&#45;&gt;Node8 -->
<g id="edge1" class="edge">
<title>Node7&#45;&gt;Node8</title>
<path fill="none" stroke="#191970" d="M204.7541,-109.3235C171.7437,-99.0536 125.9583,-84.8093 96.0393,-75.5011"/>
<polygon fill="#191970" stroke="#191970" points="203.9686,-112.7445 214.5569,-112.3733 206.0481,-106.0605 203.9686,-112.7445"/>
</g>
<!-- Node9 -->
<g id="node3" class="node">
<title>Node9</title>
<g id="a_node3"><a xlink:href="utp__internal_8h.html" target="_top" xlink:title=" ">
<polygon fill="#ffffff" stroke="#000000" points="4.5,-.5 4.5,-19.5 126.5,-19.5 126.5,-.5 4.5,-.5"/>
<text text-anchor="middle" x="65.5" y="-7.5" font-family="Helvetica,sans-Serif" font-size="10.00" fill="#000000">include/utp_internal.h</text>
</a>
</g>
</g>
<!-- Node7&#45;&gt;Node9 -->
<g id="edge4" class="edge">
<title>Node7&#45;&gt;Node9</title>
<path fill="none" stroke="#191970" d="M221.5595,-107.0867C200.0775,-93.7065 167.6857,-73.5352 139.5,-56 119.206,-43.3745 95.7743,-28.8112 80.8084,-19.5115"/>
<polygon fill="#191970" stroke="#191970" points="219.7155,-110.0615 230.0541,-112.3778 223.4165,-104.1199 219.7155,-110.0615"/>
</g>
<!-- Node10 -->
<g id="node4" class="node">
<title>Node10</title>
<g id="a_node4"><a xlink:href="callbacks_8c.html" target="_top" xlink:title=" ">
<polygon fill="#ffffff" stroke="#000000" points="170.5,-.5 170.5,-19.5 268.5,-19.5 268.5,-.5 170.5,-.5"/>
<text text-anchor="middle" x="219.5" y="-7.5" font-family="Helvetica,sans-Serif" font-size="10.00" fill="#000000">main/callbacks.c</text>
</a>
</g>
</g>
<!-- Node7&#45;&gt;Node10 -->
<g id="edge5" class="edge">
<title>Node7&#45;&gt;Node10</title>
<path fill="none" stroke="#191970" d="M230.8413,-104.0113C225.1878,-95.9515 219.3938,-86.0164 216.5,-76 210.8968,-56.6057 214.416,-32.6832 217.1627,-19.6257"/>
<polygon fill="#191970" stroke="#191970" points="228.1997,-106.3224 237.0023,-112.2186 233.7979,-102.12 228.1997,-106.3224"/>
</g>
<!-- Node11 -->
<g id="node5" class="node">
<title>Node11</title>
<g id="a_node5"><a xlink:href="callbacks_8h.html" target="_top" xlink:title=" ">
<polygon fill="#ffffff" stroke="#000000" points="226,-56.5 226,-75.5 363,-75.5 363,-56.5 226,-56.5"/>
<text text-anchor="middle" x="294.5" y="-63.5" font-family="Helvetica,sans-Serif" font-size="10.00" fill="#000000">main/include/callbacks.h</text>
</a>
</g>
</g>
<!-- Node7&#45;&gt;Node11 -->
<g id="edge6" class="edge">
<title>Node7&#45;&gt;Node11</title>
<path fill="none" stroke="#191970" d="M260.8122,-104.5004C269.1447,-94.9775 279.1353,-83.5596 286.0627,-75.6427"/>
<polygon fill="#191970" stroke="#191970" points="257.9862,-102.415 254.0351,-112.2455 263.2543,-107.0245 257.9862,-102.415"/>
</g>
<!-- Node12 -->
<g id="node6" class="node">
<title>Node12</title>
<g id="a_node6"><a xlink:href="main_8c.html" target="_top" xlink:title=" ">
<polygon fill="#ffffff" stroke="#000000" points="331,-.5 331,-19.5 408,-19.5 408,-.5 331,-.5"/>
<text text-anchor="middle" x="369.5" y="-7.5" font-family="Helvetica,sans-Serif" font-size="10.00" fill="#000000">main/main.c</text>
</a>
</g>
</g>
<!-- Node7&#45;&gt;Node12 -->
<g id="edge9" class="edge">
<title>Node7&#45;&gt;Node12</title>
<path fill="none" stroke="#191970" d="M295.6116,-110.1444C326.9992,-101.5898 363.2048,-89.2529 372.5,-76 384.3554,-59.0968 378.056,-33.3343 373.2708,-19.5276"/>
<polygon fill="#191970" stroke="#191970" points="294.4024,-106.8438 285.6304,-112.7853 296.193,-113.6109 294.4024,-106.8438"/>
</g>
<!-- Node13 -->
<g id="node7" class="node">
<title>Node13</title>
<g id="a_node7"><a xlink:href="util_8c.html" target="_top" xlink:title=" ">
<polygon fill="#ffffff" stroke="#000000" points="419.5,-56.5 419.5,-75.5 487.5,-75.5 487.5,-56.5 419.5,-56.5"/>
<text text-anchor="middle" x="453.5" y="-63.5" font-family="Helvetica,sans-Serif" font-size="10.00" fill="#000000">main/util.c</text>
</a>
</g>
</g>
<!-- Node7&#45;&gt;Node13 -->
<g id="edge10" class="edge">
<title>Node7&#45;&gt;Node13</title>
<path fill="none" stroke="#191970" d="M291.2051,-109.6948C329.8246,-99.2972 384.2859,-84.6346 419.245,-75.2225"/>
<polygon fill="#191970" stroke="#191970" points="290.0027,-106.3938 281.2565,-112.3733 291.8226,-113.1531 290.0027,-106.3938"/>
</g>
<!-- Node8&#45;&gt;Node9 -->
<g id="edge2" class="edge">
<title>Node8&#45;&gt;Node9</title>
<path fill="none" stroke="#191970" d="M59.0113,-46.1575C58.419,-37.155 58.8335,-26.9199 60.2549,-19.6427"/>
<polygon fill="#191970" stroke="#191970" points="55.5561,-46.739 60.2332,-56.2455 62.5053,-45.8972 55.5561,-46.739"/>
</g>
<!-- Node9&#45;&gt;Node8 -->
<g id="edge3" class="edge">
<title>Node9&#45;&gt;Node8</title>
<path fill="none" stroke="#191970" d="M71.9795,-29.7046C72.5821,-38.6944 72.1779,-48.9382 70.7668,-56.2455"/>
<polygon fill="#191970" stroke="#191970" points="75.4368,-29.1421 70.7451,-19.6427 68.4889,-29.9945 75.4368,-29.1421"/>
</g>
<!-- Node11&#45;&gt;Node10 -->
<g id="edge7" class="edge">
<title>Node11&#45;&gt;Node10</title>
<path fill="none" stroke="#191970" d="M273.3523,-50.2097C260.1799,-40.3743 243.66,-28.0394 232.4143,-19.6427"/>
<polygon fill="#191970" stroke="#191970" points="271.3291,-53.0671 281.436,-56.2455 275.5172,-47.4581 271.3291,-53.0671"/>
</g>
<!-- Node11&#45;&gt;Node12 -->
<g id="edge8" class="edge">
<title>Node11&#45;&gt;Node12</title>
<path fill="none" stroke="#191970" d="M315.6477,-50.2097C328.8201,-40.3743 345.34,-28.0394 356.5857,-19.6427"/>
<polygon fill="#191970" stroke="#191970" points="313.4828,-47.4581 307.564,-56.2455 317.6709,-53.0671 313.4828,-47.4581"/>
</g>
</g>
</svg>
