<?xml version="1.0" encoding="UTF-8" standalone="no"?>
<!DOCTYPE svg PUBLIC "-//W3C//DTD SVG 1.1//EN"
 "http://www.w3.org/Graphics/SVG/1.1/DTD/svg11.dtd">
<!-- Generated by graphviz version 2.40.1 (20161225.0304)
 -->
<!-- Title: include/utp_templates.h Pages: 1 -->
<svg width="170pt" height="196pt"
 viewBox="0.00 0.00 170.00 196.00" xmlns="http://www.w3.org/2000/svg" xmlns:xlink="http://www.w3.org/1999/xlink">
<g id="graph0" class="graph" transform="scale(1 1) rotate(0) translate(4 192)">
<title>include/utp_templates.h</title>
<polygon fill="#ffffff" stroke="transparent" points="-4,4 -4,-192 166,-192 166,4 -4,4"/>
<!-- Node7 -->
<g id="node1" class="node">
<title>Node7</title>
<g id="a_node1"><a xlink:title=" ">
<polygon fill="#bfbfbf" stroke="#000000" points="0,-168.5 0,-187.5 134,-187.5 134,-168.5 0,-168.5"/>
<text text-anchor="middle" x="67" y="-175.5" font-family="Helvetica,sans-Serif" font-size="10.00" fill="#000000">include/utp_templates.h</text>
</a>
</g>
</g>
<!-- Node8 -->
<g id="node2" class="node">
<title>Node8</title>
<g id="a_node2"><a xlink:href="utp__internal_8h.html" target="_top" xlink:title=" ">
<polygon fill="#ffffff" stroke="#000000" points="6,-56.5 6,-75.5 128,-75.5 128,-56.5 6,-56.5"/>
<text text-anchor="middle" x="67" y="-63.5" font-family="Helvetica,sans-Serif" font-size="10.00" fill="#000000">include/utp_internal.h</text>
</a>
</g>
</g>
<!-- Node7&#45;&gt;Node8 -->
<g id="edge1" class="edge">
<title>Node7&#45;&gt;Node8</title>
<path fill="none" stroke="#191970" d="M55.0354,-159.406C48.0577,-146.3342 41.2954,-128.3322 45,-112 48.0157,-98.7049 55.3644,-84.7591 60.7417,-75.7567"/>
<polygon fill="#191970" stroke="#191970" points="52.1807,-161.4584 60.2435,-168.3317 58.2267,-157.9306 52.1807,-161.4584"/>
</g>
<!-- Node10 -->
<g id="node4" class="node">
<title>Node10</title>
<g id="a_node4"><a xlink:href="utp__hash_8h.html" target="_top" xlink:title=" ">
<polygon fill="#ffffff" stroke="#000000" points="54,-112.5 54,-131.5 162,-131.5 162,-112.5 54,-112.5"/>
<text text-anchor="middle" x="108" y="-119.5" font-family="Helvetica,sans-Serif" font-size="10.00" fill="#000000">include/utp_hash.h</text>
</a>
</g>
</g>
<!-- Node7&#45;&gt;Node10 -->
<g id="edge4" class="edge">
<title>Node7&#45;&gt;Node10</title>
<path fill="none" stroke="#191970" d="M80.2364,-159.9209C87.1211,-150.5176 95.2609,-139.3997 100.9402,-131.6427"/>
<polygon fill="#191970" stroke="#191970" points="77.2251,-158.1093 74.1417,-168.2455 82.8731,-162.2445 77.2251,-158.1093"/>
</g>
<!-- Node9 -->
<g id="node3" class="node">
<title>Node9</title>
<g id="a_node3"><a xlink:href="utp__callbacks_8h.html" target="_top" xlink:title=" ">
<polygon fill="#ffffff" stroke="#000000" points="1.5,-.5 1.5,-19.5 132.5,-19.5 132.5,-.5 1.5,-.5"/>
<text text-anchor="middle" x="67" y="-7.5" font-family="Helvetica,sans-Serif" font-size="10.00" fill="#000000">include/utp_callbacks.h</text>
</a>
</g>
</g>
<!-- Node8&#45;&gt;Node9 -->
<g id="edge2" class="edge">
<title>Node8&#45;&gt;Node9</title>
<path fill="none" stroke="#191970" d="M60.5113,-46.1575C59.919,-37.155 60.3335,-26.9199 61.7549,-19.6427"/>
<polygon fill="#191970" stroke="#191970" points="57.0561,-46.739 61.7332,-56.2455 64.0053,-45.8972 57.0561,-46.739"/>
</g>
<!-- Node9&#45;&gt;Node8 -->
<g id="edge3" class="edge">
<title>Node9&#45;&gt;Node8</title>
<path fill="none" stroke="#191970" d="M73.4795,-29.7046C74.0821,-38.6944 73.6779,-48.9382 72.2668,-56.2455"/>
<polygon fill="#191970" stroke="#191970" points="76.9368,-29.1421 72.2451,-19.6427 69.9889,-29.9945 76.9368,-29.1421"/>
</g>
<!-- Node10&#45;&gt;Node8 -->
<g id="edge5" class="edge">
<title>Node10&#45;&gt;Node8</title>
<path fill="none" stroke="#191970" d="M94.7636,-103.9209C87.8789,-94.5176 79.7391,-83.3997 74.0598,-75.6427"/>
<polygon fill="#191970" stroke="#191970" points="92.1269,-106.2445 100.8583,-112.2455 97.7749,-102.1093 92.1269,-106.2445"/>
</g>
</g>
</svg>
