<?xml version="1.0" encoding="UTF-8" standalone="no"?>
<!DOCTYPE svg PUBLIC "-//W3C//DTD SVG 1.1//EN"
 "http://www.w3.org/Graphics/SVG/1.1/DTD/svg11.dtd">
<!-- Generated by graphviz version 2.40.1 (20161225.0304)
 -->
<!-- Title: include/utp_internal.h Pages: 1 -->
<!--zoomable 252 -->
<svg id="main" version="1.1" xmlns="http://www.w3.org/2000/svg" xmlns:xlink="http://www.w3.org/1999/xlink" xml:space="preserve" onload="init(evt)">
<style type="text/css"><![CDATA[
.edge:hover path { stroke: red; }
.edge:hover polygon { stroke: red; fill: red; }
]]></style>
<script type="text/javascript"><![CDATA[
var edges = document.getElementsByTagName('g');
if (edges && edges.length) {
  for (var i=0;i<edges.length;i++) {
    if (edges[i].id.substr(0,4)=='edge') {
      edges[i].setAttribute('class','edge');
    }
  }
}
]]></script>
        <defs>
                <circle id="rim" cx="0" cy="0" r="7"/>
                <circle id="rim2" cx="0" cy="0" r="3.5"/>
                <g id="zoomPlus">
                        <use xlink:href="#rim" fill="#404040">
                                <set attributeName="fill" to="#808080" begin="zoomplus.mouseover" end="zoomplus.mouseout"/>
                        </use>
                        <path d="M-4,0h8M0,-4v8" fill="none" stroke="white" stroke-width="1.5" pointer-events="none"/>
                </g>
                <g id="zoomMin">
                        <use xlink:href="#rim" fill="#404040">
                                <set attributeName="fill" to="#808080" begin="zoomminus.mouseover" end="zoomminus.mouseout"/>
                        </use>
                        <path d="M-4,0h8" fill="none" stroke="white" stroke-width="1.5" pointer-events="none"/>
                </g>
                <g id="dirArrow">
                        <path fill="none" stroke="white" stroke-width="1.5" d="M0,-3.0v7 M-2.5,-0.5L0,-3.0L2.5,-0.5"/>
                </g>
               <g id="resetDef">
                       <use xlink:href="#rim2" fill="#404040">
                               <set attributeName="fill" to="#808080" begin="reset.mouseover" end="reset.mouseout"/>
                       </use>
               </g>
        </defs>

<script type="text/javascript">
var viewWidth = 584;
var viewHeight = 252;
var sectionId = 'dynsection-0';
</script>
<script xlink:href="svgpan.js"/>
<svg id="graph" class="graph">
<g id="viewport">
<title>include/utp_internal.h</title>
<polygon fill="#ffffff" stroke="transparent" points="-4,4 -4,-248 579.6922,-248 579.6922,4 -4,4"/>
<!-- Node0 -->
<g id="node1" class="node">
<title>Node0</title>
<g id="a_node1"><a xlink:title=" ">
<polygon fill="#bfbfbf" stroke="#000000" points="226.6922,-224.5 226.6922,-243.5 348.6922,-243.5 348.6922,-224.5 226.6922,-224.5"/>
<text text-anchor="middle" x="287.6922" y="-231.5" font-family="Helvetica,sans-Serif" font-size="10.00" fill="#000000">include/utp_internal.h</text>
</a>
</g>
</g>
<!-- Node1 -->
<g id="node2" class="node">
<title>Node1</title>
<g id="a_node2"><a xlink:title=" ">
<polygon fill="#ffffff" stroke="#bfbfbf" points="28.6922,-56.5 28.6922,-75.5 84.6922,-75.5 84.6922,-56.5 28.6922,-56.5"/>
<text text-anchor="middle" x="56.6922" y="-63.5" font-family="Helvetica,sans-Serif" font-size="10.00" fill="#000000">stdarg.h</text>
</a>
</g>
</g>
<!-- Node0&#45;&gt;Node1 -->
<g id="edge1" class="edge">
<title>Node0&#45;&gt;Node1</title>
<path fill="none" stroke="#191970" d="M226.6319,-228.0708C149.0763,-219.9135 23.5753,-204.3691 9.6922,-188 -16.9358,-156.6039 17.7585,-108.4576 40.2495,-83.0546"/>
<polygon fill="#191970" stroke="#191970" points="42.8537,-85.3932 47.0298,-75.656 37.6931,-80.6637 42.8537,-85.3932"/>
</g>
<!-- Node2 -->
<g id="node3" class="node">
<title>Node2</title>
<g id="a_node3"><a xlink:title=" ">
<polygon fill="#ffffff" stroke="#bfbfbf" points="416.1922,-112.5 416.1922,-131.5 469.1922,-131.5 469.1922,-112.5 416.1922,-112.5"/>
<text text-anchor="middle" x="442.6922" y="-119.5" font-family="Helvetica,sans-Serif" font-size="10.00" fill="#000000">string.h</text>
</a>
</g>
</g>
<!-- Node0&#45;&gt;Node2 -->
<g id="edge2" class="edge">
<title>Node0&#45;&gt;Node2</title>
<path fill="none" stroke="#191970" d="M331.1672,-224.4358C354.9673,-217.4717 383.7808,-206.0284 404.6922,-188 419.1969,-175.495 429.4529,-156.0123 435.6247,-141.451"/>
<polygon fill="#191970" stroke="#191970" points="438.9834,-142.4747 439.3993,-131.888 432.4722,-139.9047 438.9834,-142.4747"/>
</g>
<!-- Node3 -->
<g id="node4" class="node">
<title>Node3</title>
<g id="a_node4"><a xlink:title=" ">
<polygon fill="#ffffff" stroke="#bfbfbf" points="395.6922,-56.5 395.6922,-75.5 451.6922,-75.5 451.6922,-56.5 395.6922,-56.5"/>
<text text-anchor="middle" x="423.6922" y="-63.5" font-family="Helvetica,sans-Serif" font-size="10.00" fill="#000000">assert.h</text>
</a>
</g>
</g>
<!-- Node0&#45;&gt;Node3 -->
<g id="edge3" class="edge">
<title>Node0&#45;&gt;Node3</title>
<path fill="none" stroke="#191970" d="M342.5438,-224.4547C391.0204,-212.5214 457.257,-186.5855 478.6922,-132 481.9412,-123.7262 482.4553,-120.053 478.6922,-112 472.7459,-99.2749 461.3564,-88.8307 450.4772,-81.129"/>
<polygon fill="#191970" stroke="#191970" points="452.2561,-78.1101 441.9755,-75.5491 448.4152,-83.9622 452.2561,-78.1101"/>
</g>
<!-- Node4 -->
<g id="node5" class="node">
<title>Node4</title>
<g id="a_node5"><a xlink:title=" ">
<polygon fill="#ffffff" stroke="#bfbfbf" points="525.6922,-168.5 525.6922,-187.5 575.6922,-187.5 575.6922,-168.5 525.6922,-168.5"/>
<text text-anchor="middle" x="550.6922" y="-175.5" font-family="Helvetica,sans-Serif" font-size="10.00" fill="#000000">stdio.h</text>
</a>
</g>
</g>
<!-- Node0&#45;&gt;Node4 -->
<g id="edge4" class="edge">
<title>Node0&#45;&gt;Node4</title>
<path fill="none" stroke="#191970" d="M337.6643,-224.4581C383.1591,-215.6002 452.1188,-201.746 511.6922,-188 512.9564,-187.7083 514.2424,-187.4063 515.5403,-187.097"/>
<polygon fill="#191970" stroke="#191970" points="516.6848,-190.42 525.5607,-184.6347 515.0143,-183.6222 516.6848,-190.42"/>
</g>
<!-- Node5 -->
<g id="node6" class="node">
<title>Node5</title>
<g id="a_node6"><a xlink:href="utp_8h.html" target="_top" xlink:title=" ">
<polygon fill="#ffffff" stroke="#000000" points="77.1922,-112.5 77.1922,-131.5 118.1922,-131.5 118.1922,-112.5 77.1922,-112.5"/>
<text text-anchor="middle" x="97.6922" y="-119.5" font-family="Helvetica,sans-Serif" font-size="10.00" fill="#000000">utp.h</text>
</a>
</g>
</g>
<!-- Node0&#45;&gt;Node5 -->
<g id="edge5" class="edge">
<title>Node0&#45;&gt;Node5</title>
<path fill="none" stroke="#191970" d="M245.5422,-224.4974C219.1229,-217.2501 185.18,-205.4922 158.6922,-188 139.2843,-175.1834 121.7962,-154.9154 110.5723,-140.219"/>
<polygon fill="#191970" stroke="#191970" points="113.1883,-137.8697 104.4321,-131.9048 107.5574,-142.0282 113.1883,-137.8697"/>
</g>
<!-- Node11 -->
<g id="node12" class="node">
<title>Node11</title>
<g id="a_node12"><a xlink:href="utp__callbacks_8h.html" target="_top" xlink:title=" ">
<polygon fill="#ffffff" stroke="#000000" points="18.6922,-168.5 18.6922,-187.5 110.6922,-187.5 110.6922,-168.5 18.6922,-168.5"/>
<text text-anchor="middle" x="64.6922" y="-175.5" font-family="Helvetica,sans-Serif" font-size="10.00" fill="#000000">utp_callbacks.h</text>
</a>
</g>
</g>
<!-- Node0&#45;&gt;Node11 -->
<g id="edge12" class="edge">
<title>Node0&#45;&gt;Node11</title>
<path fill="none" stroke="#191970" d="M244.381,-224.4369C204.7498,-214.9536 146.6119,-200.3909 107.2289,-190.1061"/>
<polygon fill="#191970" stroke="#191970" points="107.9561,-186.6785 97.395,-187.5237 106.1781,-193.4489 107.9561,-186.6785"/>
</g>
<!-- Node12 -->
<g id="node13" class="node">
<title>Node12</title>
<g id="a_node13"><a xlink:href="utp__templates_8h.html" target="_top" xlink:title=" ">
<polygon fill="#ffffff" stroke="#000000" points="301.6922,-112.5 301.6922,-131.5 397.6922,-131.5 397.6922,-112.5 301.6922,-112.5"/>
<text text-anchor="middle" x="349.6922" y="-119.5" font-family="Helvetica,sans-Serif" font-size="10.00" fill="#000000">utp_templates.h</text>
</a>
</g>
</g>
<!-- Node0&#45;&gt;Node12 -->
<g id="edge15" class="edge">
<title>Node0&#45;&gt;Node12</title>
<path fill="none" stroke="#191970" d="M335.6684,-224.4988C355.945,-217.8558 377.6227,-206.6832 389.6922,-188 400.4887,-171.2873 385.2999,-151.7556 370.64,-138.299"/>
<polygon fill="#191970" stroke="#191970" points="372.5875,-135.3583 362.7183,-131.5046 368.0302,-140.6717 372.5875,-135.3583"/>
</g>
<!-- Node13 -->
<g id="node14" class="node">
<title>Node13</title>
<g id="a_node14"><a xlink:href="utp__hash_8h.html" target="_top" xlink:title=" ">
<polygon fill="#ffffff" stroke="#000000" points="310.6922,-168.5 310.6922,-187.5 380.6922,-187.5 380.6922,-168.5 310.6922,-168.5"/>
<text text-anchor="middle" x="345.6922" y="-175.5" font-family="Helvetica,sans-Serif" font-size="10.00" fill="#000000">utp_hash.h</text>
</a>
</g>
</g>
<!-- Node0&#45;&gt;Node13 -->
<g id="edge18" class="edge">
<title>Node0&#45;&gt;Node13</title>
<path fill="none" stroke="#191970" d="M297.795,-224.2455C306.195,-216.1352 318.3415,-204.4075 328.3005,-194.7919"/>
<polygon fill="#191970" stroke="#191970" points="330.9422,-197.1066 335.7051,-187.6427 326.08,-192.0707 330.9422,-197.1066"/>
</g>
<!-- Node15 -->
<g id="node16" class="node">
<title>Node15</title>
<g id="a_node16"><a xlink:href="utp__packedsockaddr_8h.html" target="_top" xlink:title=" ">
<polygon fill="#ffffff" stroke="#000000" points="167.1922,-168.5 167.1922,-187.5 292.1922,-187.5 292.1922,-168.5 167.1922,-168.5"/>
<text text-anchor="middle" x="229.6922" y="-175.5" font-family="Helvetica,sans-Serif" font-size="10.00" fill="#000000">utp_packedsockaddr.h</text>
</a>
</g>
</g>
<!-- Node0&#45;&gt;Node15 -->
<g id="edge23" class="edge">
<title>Node0&#45;&gt;Node15</title>
<path fill="none" stroke="#191970" d="M277.5893,-224.2455C269.1894,-216.1352 257.0428,-204.4075 247.0838,-194.7919"/>
<polygon fill="#191970" stroke="#191970" points="249.3044,-192.0707 239.6792,-187.6427 244.4422,-197.1066 249.3044,-192.0707"/>
</g>
<!-- Node5&#45;&gt;Node1 -->
<g id="edge6" class="edge">
<title>Node5&#45;&gt;Node1</title>
<path fill="none" stroke="#191970" d="M90.5505,-112.2455C84.8478,-104.4564 76.7022,-93.3308 69.8297,-83.9439"/>
<polygon fill="#191970" stroke="#191970" points="72.4834,-81.6437 63.752,-75.6427 66.8354,-85.7789 72.4834,-81.6437"/>
</g>
<!-- Node6 -->
<g id="node7" class="node">
<title>Node6</title>
<g id="a_node7"><a xlink:href="utp__types_8h.html" target="_top" xlink:title=" ">
<polygon fill="#ffffff" stroke="#000000" points="145.6922,-56.5 145.6922,-75.5 219.6922,-75.5 219.6922,-56.5 145.6922,-56.5"/>
<text text-anchor="middle" x="182.6922" y="-63.5" font-family="Helvetica,sans-Serif" font-size="10.00" fill="#000000">utp_types.h</text>
</a>
</g>
</g>
<!-- Node5&#45;&gt;Node6 -->
<g id="edge7" class="edge">
<title>Node5&#45;&gt;Node6</title>
<path fill="none" stroke="#191970" d="M112.498,-112.2455C125.4178,-103.7337 144.3853,-91.2375 159.3474,-81.3801"/>
<polygon fill="#191970" stroke="#191970" points="161.6309,-84.067 168.056,-75.6427 157.7798,-78.2216 161.6309,-84.067"/>
</g>
<!-- Node7 -->
<g id="node8" class="node">
<title>Node7</title>
<g id="a_node8"><a xlink:href="in_8h.html" target="_top" xlink:title=" ">
<polygon fill="#ffffff" stroke="#000000" points="17.6922,-.5 17.6922,-19.5 89.6922,-19.5 89.6922,-.5 17.6922,-.5"/>
<text text-anchor="middle" x="53.6922" y="-7.5" font-family="Helvetica,sans-Serif" font-size="10.00" fill="#000000">netinet/in.h</text>
</a>
</g>
</g>
<!-- Node6&#45;&gt;Node7 -->
<g id="edge8" class="edge">
<title>Node6&#45;&gt;Node7</title>
<path fill="none" stroke="#191970" d="M160.5163,-56.3733C139.7156,-47.3435 108.4005,-33.7494 85.0463,-23.6111"/>
<polygon fill="#191970" stroke="#191970" points="86.1454,-20.2727 75.5787,-19.5011 83.3579,-26.6938 86.1454,-20.2727"/>
</g>
<!-- Node8 -->
<g id="node9" class="node">
<title>Node8</title>
<g id="a_node9"><a xlink:title=" ">
<polygon fill="#ffffff" stroke="#bfbfbf" points="108.1922,-.5 108.1922,-19.5 177.1922,-19.5 177.1922,-.5 108.1922,-.5"/>
<text text-anchor="middle" x="142.6922" y="-7.5" font-family="Helvetica,sans-Serif" font-size="10.00" fill="#000000">arpa/inet.h</text>
</a>
</g>
</g>
<!-- Node6&#45;&gt;Node8 -->
<g id="edge9" class="edge">
<title>Node6&#45;&gt;Node8</title>
<path fill="none" stroke="#191970" d="M175.7247,-56.2455C170.161,-48.4564 162.2141,-37.3308 155.5093,-27.9439"/>
<polygon fill="#191970" stroke="#191970" points="158.2403,-25.7457 149.5798,-19.6427 152.5441,-29.8144 158.2403,-25.7457"/>
</g>
<!-- Node9 -->
<g id="node10" class="node">
<title>Node9</title>
<g id="a_node10"><a xlink:title=" ">
<polygon fill="#ffffff" stroke="#bfbfbf" points="195.6922,-.5 195.6922,-19.5 251.6922,-19.5 251.6922,-.5 195.6922,-.5"/>
<text text-anchor="middle" x="223.6922" y="-7.5" font-family="Helvetica,sans-Serif" font-size="10.00" fill="#000000">unistd.h</text>
</a>
</g>
</g>
<!-- Node6&#45;&gt;Node9 -->
<g id="edge10" class="edge">
<title>Node6&#45;&gt;Node9</title>
<path fill="none" stroke="#191970" d="M189.8338,-56.2455C195.5366,-48.4564 203.6821,-37.3308 210.5546,-27.9439"/>
<polygon fill="#191970" stroke="#191970" points="213.549,-29.7789 216.6324,-19.6427 207.9009,-25.6437 213.549,-29.7789"/>
</g>
<!-- Node10 -->
<g id="node11" class="node">
<title>Node10</title>
<g id="a_node11"><a xlink:href="socket_8h.html" target="_top" xlink:title=" ">
<polygon fill="#ffffff" stroke="#000000" points="270.1922,-.5 270.1922,-19.5 347.1922,-19.5 347.1922,-.5 270.1922,-.5"/>
<text text-anchor="middle" x="308.6922" y="-7.5" font-family="Helvetica,sans-Serif" font-size="10.00" fill="#000000">sys/socket.h</text>
</a>
</g>
</g>
<!-- Node6&#45;&gt;Node10 -->
<g id="edge11" class="edge">
<title>Node6&#45;&gt;Node10</title>
<path fill="none" stroke="#191970" d="M204.3523,-56.3733C224.6693,-47.3435 255.2561,-33.7494 278.0672,-23.6111"/>
<polygon fill="#191970" stroke="#191970" points="279.598,-26.7609 287.3146,-19.5011 276.755,-20.3642 279.598,-26.7609"/>
</g>
<!-- Node11&#45;&gt;Node0 -->
<g id="edge14" class="edge">
<title>Node11&#45;&gt;Node0</title>
<path fill="none" stroke="#191970" d="M107.7443,-187.5011C147.2421,-196.9497 205.2788,-211.4845 244.7406,-221.7856"/>
<polygon fill="#191970" stroke="#191970" points="244.0382,-225.2197 254.5991,-224.3733 245.8154,-218.449 244.0382,-225.2197"/>
</g>
<!-- Node11&#45;&gt;Node5 -->
<g id="edge13" class="edge">
<title>Node11&#45;&gt;Node5</title>
<path fill="none" stroke="#191970" d="M70.4403,-168.2455C74.9357,-160.617 81.317,-149.7881 86.7746,-140.5267"/>
<polygon fill="#191970" stroke="#191970" points="89.9483,-142.035 92.0099,-131.6427 83.9175,-138.4811 89.9483,-142.035"/>
</g>
<!-- Node12&#45;&gt;Node3 -->
<g id="edge17" class="edge">
<title>Node12&#45;&gt;Node3</title>
<path fill="none" stroke="#191970" d="M362.582,-112.2455C373.6175,-103.8943 389.7214,-91.7076 402.6275,-81.9408"/>
<polygon fill="#191970" stroke="#191970" points="405.088,-84.4681 410.9501,-75.6427 400.8639,-78.8862 405.088,-84.4681"/>
</g>
<!-- Node12&#45;&gt;Node6 -->
<g id="edge16" class="edge">
<title>Node12&#45;&gt;Node6</title>
<path fill="none" stroke="#191970" d="M320.9838,-112.3733C293.3345,-103.1016 251.3346,-89.0178 220.8756,-78.804"/>
<polygon fill="#191970" stroke="#191970" points="221.6198,-75.3621 211.0259,-75.5011 219.3942,-81.9989 221.6198,-75.3621"/>
</g>
<!-- Node13&#45;&gt;Node2 -->
<g id="edge19" class="edge">
<title>Node13&#45;&gt;Node2</title>
<path fill="none" stroke="#191970" d="M362.5883,-168.2455C377.6102,-159.5731 399.7965,-146.7645 417.0132,-136.825"/>
<polygon fill="#191970" stroke="#191970" points="419.0792,-139.6737 425.9897,-131.6427 415.5794,-133.6114 419.0792,-139.6737"/>
</g>
<!-- Node13&#45;&gt;Node6 -->
<g id="edge21" class="edge">
<title>Node13&#45;&gt;Node6</title>
<path fill="none" stroke="#191970" d="M312.404,-168.4148C280.7008,-158.8035 235.787,-143.7796 221.6922,-132 206.9002,-119.6377 196.3618,-100.1362 189.999,-85.5317"/>
<polygon fill="#191970" stroke="#191970" points="193.1075,-83.8837 186.1027,-75.9349 186.6216,-86.517 193.1075,-83.8837"/>
</g>
<!-- Node13&#45;&gt;Node12 -->
<g id="edge22" class="edge">
<title>Node13&#45;&gt;Node12</title>
<path fill="none" stroke="#191970" d="M346.3889,-168.2455C346.9109,-160.9382 347.6426,-150.6944 348.2847,-141.7046"/>
<polygon fill="#191970" stroke="#191970" points="351.782,-141.8667 349.0034,-131.6427 344.7997,-141.3679 351.782,-141.8667"/>
</g>
<!-- Node14 -->
<g id="node15" class="node">
<title>Node14</title>
<g id="a_node15"><a xlink:title=" ">
<polygon fill="#ffffff" stroke="#bfbfbf" points="230.1922,-112.5 230.1922,-131.5 283.1922,-131.5 283.1922,-112.5 230.1922,-112.5"/>
<text text-anchor="middle" x="256.6922" y="-119.5" font-family="Helvetica,sans-Serif" font-size="10.00" fill="#000000">stdlib.h</text>
</a>
</g>
</g>
<!-- Node13&#45;&gt;Node14 -->
<g id="edge20" class="edge">
<title>Node13&#45;&gt;Node14</title>
<path fill="none" stroke="#191970" d="M330.1896,-168.2455C316.5342,-159.6534 296.4265,-147.0014 280.6933,-137.1018"/>
<polygon fill="#191970" stroke="#191970" points="282.345,-134.006 272.0171,-131.6427 278.6171,-139.9307 282.345,-134.006"/>
</g>
<!-- Node15&#45;&gt;Node6 -->
<g id="edge24" class="edge">
<title>Node15&#45;&gt;Node6</title>
<path fill="none" stroke="#191970" d="M216.9631,-168.1916C207.0853,-159.7713 194.0395,-146.6925 187.6922,-132 181.426,-117.4953 180.4486,-99.5317 180.8864,-86.0093"/>
<polygon fill="#191970" stroke="#191970" points="184.3896,-86.0621 181.502,-75.8684 177.4024,-85.6379 184.3896,-86.0621"/>
</g>
</g>
</svg>
        <g id="navigator" transform="translate(0 0)" fill="#404254">
                <rect fill="#f2f5e9" fill-opacity="0.5" stroke="#606060" stroke-width=".5" x="0" y="0" width="60" height="60"/>
                <use id="zoomplus" xlink:href="#zoomPlus" x="17" y="9" onmousedown="handleZoom(evt,'in')"/>
                <use id="zoomminus" xlink:href="#zoomMin" x="42" y="9" onmousedown="handleZoom(evt,'out')"/>
                <use id="reset" xlink:href="#resetDef" x="30" y="36" onmousedown="handleReset()"/>
                <g id="arrowUp" xlink:href="#dirArrow" transform="translate(30 24)" onmousedown="handlePan(0,-1)">
                  <use xlink:href="#rim" fill="#404040">
                        <set attributeName="fill" to="#808080" begin="arrowUp.mouseover" end="arrowUp.mouseout"/>
                  </use>
                  <path fill="none" stroke="white" stroke-width="1.5" d="M0,-3.0v7 M-2.5,-0.5L0,-3.0L2.5,-0.5"/>
                </g>
                <g id="arrowRight" xlink:href="#dirArrow" transform="rotate(90) translate(36 -43)" onmousedown="handlePan(1,0)">
                  <use xlink:href="#rim" fill="#404040">
                        <set attributeName="fill" to="#808080" begin="arrowRight.mouseover" end="arrowRight.mouseout"/>
                  </use>
                  <path fill="none" stroke="white" stroke-width="1.5" d="M0,-3.0v7 M-2.5,-0.5L0,-3.0L2.5,-0.5"/>
                </g>
                <g id="arrowDown" xlink:href="#dirArrow" transform="rotate(180) translate(-30 -48)" onmousedown="handlePan(0,1)">
                  <use xlink:href="#rim" fill="#404040">
                        <set attributeName="fill" to="#808080" begin="arrowDown.mouseover" end="arrowDown.mouseout"/>
                  </use>
                  <path fill="none" stroke="white" stroke-width="1.5" d="M0,-3.0v7 M-2.5,-0.5L0,-3.0L2.5,-0.5"/>
                </g>
                <g id="arrowLeft" xlink:href="#dirArrow" transform="rotate(270) translate(-36 17)" onmousedown="handlePan(-1,0)">
                  <use xlink:href="#rim" fill="#404040">
                        <set attributeName="fill" to="#808080" begin="arrowLeft.mouseover" end="arrowLeft.mouseout"/>
                  </use>
                  <path fill="none" stroke="white" stroke-width="1.5" d="M0,-3.0v7 M-2.5,-0.5L0,-3.0L2.5,-0.5"/>
                </g>
        </g>
        <svg viewBox="0 0 15 15" width="100%" height="30px" preserveAspectRatio="xMaxYMin meet">
         <g id="arrow_out" transform="scale(0.3 0.3)">
          <a xlink:href="utp__internal_8h__incl_org.svg" target="_base">
           <rect id="button" ry="5" rx="5" y="6" x="6" height="38" width="38"
                fill="#f2f5e9" fill-opacity="0.5" stroke="#606060" stroke-width="1.0"/>
           <path id="arrow"
             d="M 11.500037,31.436501 C 11.940474,20.09759 22.043105,11.32322 32.158766,21.979434 L 37.068811,17.246167 C 37.068811,17.246167 37.088388,32 37.088388,32 L 22.160133,31.978069 C 22.160133,31.978069 26.997745,27.140456 26.997745,27.140456 C 18.528582,18.264221 13.291696,25.230495 11.500037,31.436501 z"
             style="fill:#404040;"/>
          </a>
         </g>
        </svg>
</svg>
