<?xml version="1.0" encoding="UTF-8" standalone="no"?>
<!DOCTYPE svg PUBLIC "-//W3C//DTD SVG 1.1//EN"
 "http://www.w3.org/Graphics/SVG/1.1/DTD/svg11.dtd">
<!-- Generated by graphviz version 2.40.1 (20161225.0304)
 -->
<!-- Title: include/utp_hash.h Pages: 1 -->
<svg width="338pt" height="196pt"
 viewBox="0.00 0.00 337.50 196.00" xmlns="http://www.w3.org/2000/svg" xmlns:xlink="http://www.w3.org/1999/xlink">
<g id="graph0" class="graph" transform="scale(1 1) rotate(0) translate(4 192)">
<title>include/utp_hash.h</title>
<polygon fill="#ffffff" stroke="transparent" points="-4,4 -4,-192 333.5,-192 333.5,4 -4,4"/>
<!-- Node0 -->
<g id="node1" class="node">
<title>Node0</title>
<g id="a_node1"><a xlink:title=" ">
<polygon fill="#bfbfbf" stroke="#000000" points="83,-168.5 83,-187.5 191,-187.5 191,-168.5 83,-168.5"/>
<text text-anchor="middle" x="137" y="-175.5" font-family="Helvetica,sans-Serif" font-size="10.00" fill="#000000">include/utp_hash.h</text>
</a>
</g>
</g>
<!-- Node1 -->
<g id="node2" class="node">
<title>Node1</title>
<g id="a_node2"><a xlink:title=" ">
<polygon fill="#ffffff" stroke="#bfbfbf" points="12.5,-112.5 12.5,-131.5 65.5,-131.5 65.5,-112.5 12.5,-112.5"/>
<text text-anchor="middle" x="39" y="-119.5" font-family="Helvetica,sans-Serif" font-size="10.00" fill="#000000">string.h</text>
</a>
</g>
</g>
<!-- Node0&#45;&gt;Node1 -->
<g id="edge1" class="edge">
<title>Node0&#45;&gt;Node1</title>
<path fill="none" stroke="#191970" d="M119.9297,-168.2455C104.753,-159.5731 82.3379,-146.7645 64.9437,-136.825"/>
<polygon fill="#191970" stroke="#191970" points="66.2936,-133.5653 55.8747,-131.6427 62.8206,-139.643 66.2936,-133.5653"/>
</g>
<!-- Node2 -->
<g id="node3" class="node">
<title>Node2</title>
<g id="a_node3"><a xlink:title=" ">
<polygon fill="#ffffff" stroke="#bfbfbf" points="83.5,-112.5 83.5,-131.5 136.5,-131.5 136.5,-112.5 83.5,-112.5"/>
<text text-anchor="middle" x="110" y="-119.5" font-family="Helvetica,sans-Serif" font-size="10.00" fill="#000000">stdlib.h</text>
</a>
</g>
</g>
<!-- Node0&#45;&gt;Node2 -->
<g id="edge2" class="edge">
<title>Node0&#45;&gt;Node2</title>
<path fill="none" stroke="#191970" d="M132.297,-168.2455C128.6576,-160.6973 123.5076,-150.0158 119.0738,-140.8197"/>
<polygon fill="#191970" stroke="#191970" points="122.1449,-139.1303 114.6491,-131.6427 115.8395,-142.1704 122.1449,-139.1303"/>
</g>
<!-- Node3 -->
<g id="node4" class="node">
<title>Node3</title>
<g id="a_node4"><a xlink:href="utp__types_8h.html" target="_top" xlink:title=" ">
<polygon fill="#ffffff" stroke="#000000" points="128,-56.5 128,-75.5 202,-75.5 202,-56.5 128,-56.5"/>
<text text-anchor="middle" x="165" y="-63.5" font-family="Helvetica,sans-Serif" font-size="10.00" fill="#000000">utp_types.h</text>
</a>
</g>
</g>
<!-- Node0&#45;&gt;Node3 -->
<g id="edge3" class="edge">
<title>Node0&#45;&gt;Node3</title>
<path fill="none" stroke="#191970" d="M139.3873,-168.4509C143.9747,-150.1013 154.1023,-109.5908 160.1577,-85.3693"/>
<polygon fill="#191970" stroke="#191970" points="163.5888,-86.0752 162.6188,-75.5249 156.7978,-84.3774 163.5888,-86.0752"/>
</g>
<!-- Node8 -->
<g id="node9" class="node">
<title>Node8</title>
<g id="a_node9"><a xlink:href="utp__templates_8h.html" target="_top" xlink:title=" ">
<polygon fill="#ffffff" stroke="#000000" points="193,-112.5 193,-131.5 289,-131.5 289,-112.5 193,-112.5"/>
<text text-anchor="middle" x="241" y="-119.5" font-family="Helvetica,sans-Serif" font-size="10.00" fill="#000000">utp_templates.h</text>
</a>
</g>
</g>
<!-- Node0&#45;&gt;Node8 -->
<g id="edge8" class="edge">
<title>Node0&#45;&gt;Node8</title>
<path fill="none" stroke="#191970" d="M155.1154,-168.2455C171.445,-159.4527 195.671,-146.4079 214.2339,-136.4125"/>
<polygon fill="#191970" stroke="#191970" points="215.9468,-139.4654 223.0922,-131.6427 212.6281,-133.3021 215.9468,-139.4654"/>
</g>
<!-- Node4 -->
<g id="node5" class="node">
<title>Node4</title>
<g id="a_node5"><a xlink:title=" ">
<polygon fill="#ffffff" stroke="#bfbfbf" points="0,-.5 0,-19.5 72,-19.5 72,-.5 0,-.5"/>
<text text-anchor="middle" x="36" y="-7.5" font-family="Helvetica,sans-Serif" font-size="10.00" fill="#000000">netinet/in.h</text>
</a>
</g>
</g>
<!-- Node3&#45;&gt;Node4 -->
<g id="edge4" class="edge">
<title>Node3&#45;&gt;Node4</title>
<path fill="none" stroke="#191970" d="M142.8241,-56.3733C122.0234,-47.3435 90.7083,-33.7494 67.3542,-23.6111"/>
<polygon fill="#191970" stroke="#191970" points="68.4532,-20.2727 57.8865,-19.5011 65.6657,-26.6938 68.4532,-20.2727"/>
</g>
<!-- Node5 -->
<g id="node6" class="node">
<title>Node5</title>
<g id="a_node6"><a xlink:title=" ">
<polygon fill="#ffffff" stroke="#bfbfbf" points="90.5,-.5 90.5,-19.5 159.5,-19.5 159.5,-.5 90.5,-.5"/>
<text text-anchor="middle" x="125" y="-7.5" font-family="Helvetica,sans-Serif" font-size="10.00" fill="#000000">arpa/inet.h</text>
</a>
</g>
</g>
<!-- Node3&#45;&gt;Node5 -->
<g id="edge5" class="edge">
<title>Node3&#45;&gt;Node5</title>
<path fill="none" stroke="#191970" d="M158.0325,-56.2455C152.4689,-48.4564 144.522,-37.3308 137.8171,-27.9439"/>
<polygon fill="#191970" stroke="#191970" points="140.5481,-25.7457 131.8876,-19.6427 134.852,-29.8144 140.5481,-25.7457"/>
</g>
<!-- Node6 -->
<g id="node7" class="node">
<title>Node6</title>
<g id="a_node7"><a xlink:title=" ">
<polygon fill="#ffffff" stroke="#bfbfbf" points="178,-.5 178,-19.5 234,-19.5 234,-.5 178,-.5"/>
<text text-anchor="middle" x="206" y="-7.5" font-family="Helvetica,sans-Serif" font-size="10.00" fill="#000000">unistd.h</text>
</a>
</g>
</g>
<!-- Node3&#45;&gt;Node6 -->
<g id="edge6" class="edge">
<title>Node3&#45;&gt;Node6</title>
<path fill="none" stroke="#191970" d="M172.1417,-56.2455C177.8444,-48.4564 185.99,-37.3308 192.8625,-27.9439"/>
<polygon fill="#191970" stroke="#191970" points="195.8568,-29.7789 198.9402,-19.6427 190.2087,-25.6437 195.8568,-29.7789"/>
</g>
<!-- Node7 -->
<g id="node8" class="node">
<title>Node7</title>
<g id="a_node8"><a xlink:title=" ">
<polygon fill="#ffffff" stroke="#bfbfbf" points="252.5,-.5 252.5,-19.5 329.5,-19.5 329.5,-.5 252.5,-.5"/>
<text text-anchor="middle" x="291" y="-7.5" font-family="Helvetica,sans-Serif" font-size="10.00" fill="#000000">sys/socket.h</text>
</a>
</g>
</g>
<!-- Node3&#45;&gt;Node7 -->
<g id="edge7" class="edge">
<title>Node3&#45;&gt;Node7</title>
<path fill="none" stroke="#191970" d="M186.6602,-56.3733C206.9772,-47.3435 237.564,-33.7494 260.375,-23.6111"/>
<polygon fill="#191970" stroke="#191970" points="261.9059,-26.7609 269.6225,-19.5011 259.0628,-20.3642 261.9059,-26.7609"/>
</g>
<!-- Node8&#45;&gt;Node3 -->
<g id="edge9" class="edge">
<title>Node8&#45;&gt;Node3</title>
<path fill="none" stroke="#191970" d="M227.7618,-112.2455C216.319,-103.814 199.5704,-91.4729 186.2525,-81.6598"/>
<polygon fill="#191970" stroke="#191970" points="188.2133,-78.757 178.0865,-75.6427 184.0609,-84.3924 188.2133,-78.757"/>
</g>
<!-- Node9 -->
<g id="node10" class="node">
<title>Node9</title>
<g id="a_node10"><a xlink:title=" ">
<polygon fill="#ffffff" stroke="#bfbfbf" points="220,-56.5 220,-75.5 276,-75.5 276,-56.5 220,-56.5"/>
<text text-anchor="middle" x="248" y="-63.5" font-family="Helvetica,sans-Serif" font-size="10.00" fill="#000000">assert.h</text>
</a>
</g>
</g>
<!-- Node8&#45;&gt;Node9 -->
<g id="edge10" class="edge">
<title>Node8&#45;&gt;Node9</title>
<path fill="none" stroke="#191970" d="M242.2193,-112.2455C243.1327,-104.9382 244.4132,-94.6944 245.5369,-85.7046"/>
<polygon fill="#191970" stroke="#191970" points="249.0272,-85.9996 246.7947,-75.6427 242.0813,-85.1313 249.0272,-85.9996"/>
</g>
</g>
</svg>
