<?xml version="1.0" encoding="UTF-8" standalone="no"?>
<!DOCTYPE svg PUBLIC "-//W3C//DTD SVG 1.1//EN"
 "http://www.w3.org/Graphics/SVG/1.1/DTD/svg11.dtd">
<!-- Generated by graphviz version 2.40.1 (20161225.0304)
 -->
<!-- Title: include/utp_packedsockaddr.h Pages: 1 -->
<svg width="172pt" height="140pt"
 viewBox="0.00 0.00 172.00 140.00" xmlns="http://www.w3.org/2000/svg" xmlns:xlink="http://www.w3.org/1999/xlink">
<g id="graph0" class="graph" transform="scale(1 1) rotate(0) translate(4 136)">
<title>include/utp_packedsockaddr.h</title>
<polygon fill="#ffffff" stroke="transparent" points="-4,4 -4,-136 168,-136 168,4 -4,4"/>
<!-- Node6 -->
<g id="node1" class="node">
<title>Node6</title>
<g id="a_node1"><a xlink:title=" ">
<polygon fill="#bfbfbf" stroke="#000000" points="0,-112.5 0,-131.5 164,-131.5 164,-112.5 0,-112.5"/>
<text text-anchor="middle" x="82" y="-119.5" font-family="Helvetica,sans-Serif" font-size="10.00" fill="#000000">include/utp_packedsockaddr.h</text>
</a>
</g>
</g>
<!-- Node7 -->
<g id="node2" class="node">
<title>Node7</title>
<g id="a_node2"><a xlink:href="utp__internal_8h.html" target="_top" xlink:title=" ">
<polygon fill="#ffffff" stroke="#000000" points="21,-56.5 21,-75.5 143,-75.5 143,-56.5 21,-56.5"/>
<text text-anchor="middle" x="82" y="-63.5" font-family="Helvetica,sans-Serif" font-size="10.00" fill="#000000">include/utp_internal.h</text>
</a>
</g>
</g>
<!-- Node6&#45;&gt;Node7 -->
<g id="edge1" class="edge">
<title>Node6&#45;&gt;Node7</title>
<path fill="none" stroke="#191970" d="M82,-102.1575C82,-93.155 82,-82.9199 82,-75.6427"/>
<polygon fill="#191970" stroke="#191970" points="78.5001,-102.2455 82,-112.2455 85.5001,-102.2456 78.5001,-102.2455"/>
</g>
<!-- Node8 -->
<g id="node3" class="node">
<title>Node8</title>
<g id="a_node3"><a xlink:href="utp__callbacks_8h.html" target="_top" xlink:title=" ">
<polygon fill="#ffffff" stroke="#000000" points="16.5,-.5 16.5,-19.5 147.5,-19.5 147.5,-.5 16.5,-.5"/>
<text text-anchor="middle" x="82" y="-7.5" font-family="Helvetica,sans-Serif" font-size="10.00" fill="#000000">include/utp_callbacks.h</text>
</a>
</g>
</g>
<!-- Node7&#45;&gt;Node8 -->
<g id="edge2" class="edge">
<title>Node7&#45;&gt;Node8</title>
<path fill="none" stroke="#191970" d="M75.5113,-46.1575C74.919,-37.155 75.3335,-26.9199 76.7549,-19.6427"/>
<polygon fill="#191970" stroke="#191970" points="72.0561,-46.739 76.7332,-56.2455 79.0053,-45.8972 72.0561,-46.739"/>
</g>
<!-- Node8&#45;&gt;Node7 -->
<g id="edge3" class="edge">
<title>Node8&#45;&gt;Node7</title>
<path fill="none" stroke="#191970" d="M88.4795,-29.7046C89.0821,-38.6944 88.6779,-48.9382 87.2668,-56.2455"/>
<polygon fill="#191970" stroke="#191970" points="91.9368,-29.1421 87.2451,-19.6427 84.9889,-29.9945 91.9368,-29.1421"/>
</g>
</g>
</svg>
