<?xml version="1.0" encoding="UTF-8" standalone="no"?>
<!DOCTYPE svg PUBLIC "-//W3C//DTD SVG 1.1//EN"
 "http://www.w3.org/Graphics/SVG/1.1/DTD/svg11.dtd">
<!-- Generated by graphviz version 2.40.1 (20161225.0304)
 -->
<!-- Title: include/utp_callbacks.h Pages: 1 -->
<svg width="492pt" height="308pt"
 viewBox="0.00 0.00 491.50 308.00" xmlns="http://www.w3.org/2000/svg" xmlns:xlink="http://www.w3.org/1999/xlink">
<g id="graph0" class="graph" transform="scale(1 1) rotate(0) translate(4 304)">
<title>include/utp_callbacks.h</title>
<polygon fill="#ffffff" stroke="transparent" points="-4,4 -4,-304 487.5,-304 487.5,4 -4,4"/>
<!-- Node0 -->
<g id="node1" class="node">
<title>Node0</title>
<g id="a_node1"><a xlink:title=" ">
<polygon fill="#bfbfbf" stroke="#000000" points="186,-280.5 186,-299.5 317,-299.5 317,-280.5 186,-280.5"/>
<text text-anchor="middle" x="251.5" y="-287.5" font-family="Helvetica,sans-Serif" font-size="10.00" fill="#000000">include/utp_callbacks.h</text>
</a>
</g>
</g>
<!-- Node1 -->
<g id="node2" class="node">
<title>Node1</title>
<g id="a_node2"><a xlink:href="utp_8h.html" target="_top" xlink:title=" ">
<polygon fill="#ffffff" stroke="#000000" points="0,-168.5 0,-187.5 41,-187.5 41,-168.5 0,-168.5"/>
<text text-anchor="middle" x="20.5" y="-175.5" font-family="Helvetica,sans-Serif" font-size="10.00" fill="#000000">utp.h</text>
</a>
</g>
</g>
<!-- Node0&#45;&gt;Node1 -->
<g id="edge1" class="edge">
<title>Node0&#45;&gt;Node1</title>
<path fill="none" stroke="#191970" d="M231.8051,-280.4509C190.9756,-260.6548 96.9492,-215.0663 49.3003,-191.9638"/>
<polygon fill="#191970" stroke="#191970" points="50.6702,-188.7383 40.1451,-187.5249 47.6163,-195.037 50.6702,-188.7383"/>
</g>
<!-- Node8 -->
<g id="node9" class="node">
<title>Node8</title>
<g id="a_node9"><a xlink:href="utp__internal_8h.html" target="_top" xlink:title=" ">
<polygon fill="#ffffff" stroke="#000000" points="209.5,-224.5 209.5,-243.5 293.5,-243.5 293.5,-224.5 209.5,-224.5"/>
<text text-anchor="middle" x="251.5" y="-231.5" font-family="Helvetica,sans-Serif" font-size="10.00" fill="#000000">utp_internal.h</text>
</a>
</g>
</g>
<!-- Node0&#45;&gt;Node8 -->
<g id="edge8" class="edge">
<title>Node0&#45;&gt;Node8</title>
<path fill="none" stroke="#191970" d="M246.2332,-280.2455C244.8221,-272.9382 244.4179,-262.6944 245.0205,-253.7046"/>
<polygon fill="#191970" stroke="#191970" points="248.5111,-253.9945 246.2549,-243.6427 241.5632,-253.1421 248.5111,-253.9945"/>
</g>
<!-- Node2 -->
<g id="node3" class="node">
<title>Node2</title>
<g id="a_node3"><a xlink:title=" ">
<polygon fill="#ffffff" stroke="#bfbfbf" points="45.5,-112.5 45.5,-131.5 101.5,-131.5 101.5,-112.5 45.5,-112.5"/>
<text text-anchor="middle" x="73.5" y="-119.5" font-family="Helvetica,sans-Serif" font-size="10.00" fill="#000000">stdarg.h</text>
</a>
</g>
</g>
<!-- Node1&#45;&gt;Node2 -->
<g id="edge2" class="edge">
<title>Node1&#45;&gt;Node2</title>
<path fill="none" stroke="#191970" d="M29.7319,-168.2455C37.3317,-160.2155 48.2877,-148.6394 57.3368,-139.0781"/>
<polygon fill="#191970" stroke="#191970" points="60.0421,-141.3115 64.3739,-131.6427 54.958,-136.4998 60.0421,-141.3115"/>
</g>
<!-- Node3 -->
<g id="node4" class="node">
<title>Node3</title>
<g id="a_node4"><a xlink:href="utp__types_8h.html" target="_top" xlink:title=" ">
<polygon fill="#ffffff" stroke="#000000" points="248.5,-56.5 248.5,-75.5 322.5,-75.5 322.5,-56.5 248.5,-56.5"/>
<text text-anchor="middle" x="285.5" y="-63.5" font-family="Helvetica,sans-Serif" font-size="10.00" fill="#000000">utp_types.h</text>
</a>
</g>
</g>
<!-- Node1&#45;&gt;Node3 -->
<g id="edge3" class="edge">
<title>Node1&#45;&gt;Node3</title>
<path fill="none" stroke="#191970" d="M19.8309,-168.3411C19.4025,-153.8853 20.9141,-126.7491 36.5,-112 64.9316,-85.0949 174.3041,-73.3621 238.2459,-68.7126"/>
<polygon fill="#191970" stroke="#191970" points="238.7477,-72.1862 248.4807,-68.0005 238.2618,-65.2031 238.7477,-72.1862"/>
</g>
<!-- Node4 -->
<g id="node5" class="node">
<title>Node4</title>
<g id="a_node5"><a xlink:href="in_8h.html" target="_top" xlink:title=" ">
<polygon fill="#ffffff" stroke="#000000" points="120.5,-.5 120.5,-19.5 192.5,-19.5 192.5,-.5 120.5,-.5"/>
<text text-anchor="middle" x="156.5" y="-7.5" font-family="Helvetica,sans-Serif" font-size="10.00" fill="#000000">netinet/in.h</text>
</a>
</g>
</g>
<!-- Node3&#45;&gt;Node4 -->
<g id="edge4" class="edge">
<title>Node3&#45;&gt;Node4</title>
<path fill="none" stroke="#191970" d="M263.3241,-56.3733C242.5234,-47.3435 211.2083,-33.7494 187.8542,-23.6111"/>
<polygon fill="#191970" stroke="#191970" points="188.9532,-20.2727 178.3865,-19.5011 186.1657,-26.6938 188.9532,-20.2727"/>
</g>
<!-- Node5 -->
<g id="node6" class="node">
<title>Node5</title>
<g id="a_node6"><a xlink:title=" ">
<polygon fill="#ffffff" stroke="#bfbfbf" points="211,-.5 211,-19.5 280,-19.5 280,-.5 211,-.5"/>
<text text-anchor="middle" x="245.5" y="-7.5" font-family="Helvetica,sans-Serif" font-size="10.00" fill="#000000">arpa/inet.h</text>
</a>
</g>
</g>
<!-- Node3&#45;&gt;Node5 -->
<g id="edge5" class="edge">
<title>Node3&#45;&gt;Node5</title>
<path fill="none" stroke="#191970" d="M278.5325,-56.2455C272.9689,-48.4564 265.022,-37.3308 258.3171,-27.9439"/>
<polygon fill="#191970" stroke="#191970" points="261.0481,-25.7457 252.3876,-19.6427 255.352,-29.8144 261.0481,-25.7457"/>
</g>
<!-- Node6 -->
<g id="node7" class="node">
<title>Node6</title>
<g id="a_node7"><a xlink:title=" ">
<polygon fill="#ffffff" stroke="#bfbfbf" points="298.5,-.5 298.5,-19.5 354.5,-19.5 354.5,-.5 298.5,-.5"/>
<text text-anchor="middle" x="326.5" y="-7.5" font-family="Helvetica,sans-Serif" font-size="10.00" fill="#000000">unistd.h</text>
</a>
</g>
</g>
<!-- Node3&#45;&gt;Node6 -->
<g id="edge6" class="edge">
<title>Node3&#45;&gt;Node6</title>
<path fill="none" stroke="#191970" d="M292.6417,-56.2455C298.3444,-48.4564 306.49,-37.3308 313.3625,-27.9439"/>
<polygon fill="#191970" stroke="#191970" points="316.3568,-29.7789 319.4402,-19.6427 310.7087,-25.6437 316.3568,-29.7789"/>
</g>
<!-- Node7 -->
<g id="node8" class="node">
<title>Node7</title>
<g id="a_node8"><a xlink:href="socket_8h.html" target="_top" xlink:title=" ">
<polygon fill="#ffffff" stroke="#000000" points="373,-.5 373,-19.5 450,-19.5 450,-.5 373,-.5"/>
<text text-anchor="middle" x="411.5" y="-7.5" font-family="Helvetica,sans-Serif" font-size="10.00" fill="#000000">sys/socket.h</text>
</a>
</g>
</g>
<!-- Node3&#45;&gt;Node7 -->
<g id="edge7" class="edge">
<title>Node3&#45;&gt;Node7</title>
<path fill="none" stroke="#191970" d="M307.1602,-56.3733C327.4772,-47.3435 358.064,-33.7494 380.875,-23.6111"/>
<polygon fill="#191970" stroke="#191970" points="382.4059,-26.7609 390.1225,-19.5011 379.5628,-20.3642 382.4059,-26.7609"/>
</g>
<!-- Node8&#45;&gt;Node0 -->
<g id="edge14" class="edge">
<title>Node8&#45;&gt;Node0</title>
<path fill="none" stroke="#191970" d="M256.7451,-243.6427C258.1665,-250.9199 258.581,-261.155 257.9887,-270.1575"/>
<polygon fill="#191970" stroke="#191970" points="254.4947,-269.8972 256.7668,-280.2455 261.4439,-270.739 254.4947,-269.8972"/>
</g>
<!-- Node8&#45;&gt;Node1 -->
<g id="edge13" class="edge">
<title>Node8&#45;&gt;Node1</title>
<path fill="none" stroke="#191970" d="M209.2998,-224.7083C169.5093,-215.8025 108.2706,-201.7228 55.5,-188 54.0474,-187.6223 52.5631,-187.2285 51.0655,-186.8251"/>
<polygon fill="#191970" stroke="#191970" points="51.7549,-183.3843 41.1833,-184.0865 49.8854,-190.13 51.7549,-183.3843"/>
</g>
<!-- Node8&#45;&gt;Node2 -->
<g id="edge9" class="edge">
<title>Node8&#45;&gt;Node2</title>
<path fill="none" stroke="#191970" d="M209.4347,-226.9976C167.1784,-219.1261 106.0187,-205.1729 89.5,-188 77.7761,-175.8118 74.1671,-156.5618 73.2599,-141.9898"/>
<polygon fill="#191970" stroke="#191970" points="76.7578,-141.86 73.0032,-131.9528 69.7601,-142.0391 76.7578,-141.86"/>
</g>
<!-- Node9 -->
<g id="node10" class="node">
<title>Node9</title>
<g id="a_node10"><a xlink:title=" ">
<polygon fill="#ffffff" stroke="#bfbfbf" points="189,-112.5 189,-131.5 242,-131.5 242,-112.5 189,-112.5"/>
<text text-anchor="middle" x="215.5" y="-119.5" font-family="Helvetica,sans-Serif" font-size="10.00" fill="#000000">string.h</text>
</a>
</g>
</g>
<!-- Node8&#45;&gt;Node9 -->
<g id="edge10" class="edge">
<title>Node8&#45;&gt;Node9</title>
<path fill="none" stroke="#191970" d="M248.8922,-224.0908C245.4225,-211.1187 238.9702,-187.7125 232.5,-168 229.5876,-159.1269 226.05,-149.4126 222.9577,-141.2069"/>
<polygon fill="#191970" stroke="#191970" points="226.2002,-139.8871 219.3593,-131.7968 219.6619,-142.3873 226.2002,-139.8871"/>
</g>
<!-- Node10 -->
<g id="node11" class="node">
<title>Node10</title>
<g id="a_node11"><a xlink:title=" ">
<polygon fill="#ffffff" stroke="#bfbfbf" points="427.5,-56.5 427.5,-75.5 483.5,-75.5 483.5,-56.5 427.5,-56.5"/>
<text text-anchor="middle" x="455.5" y="-63.5" font-family="Helvetica,sans-Serif" font-size="10.00" fill="#000000">assert.h</text>
</a>
</g>
</g>
<!-- Node8&#45;&gt;Node10 -->
<g id="edge11" class="edge">
<title>Node8&#45;&gt;Node10</title>
<path fill="none" stroke="#191970" d="M293.6612,-227.9533C342.797,-220.2198 420.241,-205.6883 443.5,-188 472.5368,-165.9177 481.599,-147.7823 474.5,-112 472.6352,-102.6003 468.8201,-92.7115 465.0946,-84.5215"/>
<polygon fill="#191970" stroke="#191970" points="468.2433,-82.993 460.7318,-75.5212 461.9443,-86.0464 468.2433,-82.993"/>
</g>
<!-- Node11 -->
<g id="node12" class="node">
<title>Node11</title>
<g id="a_node12"><a xlink:title=" ">
<polygon fill="#ffffff" stroke="#bfbfbf" points="367.5,-168.5 367.5,-187.5 417.5,-187.5 417.5,-168.5 367.5,-168.5"/>
<text text-anchor="middle" x="392.5" y="-175.5" font-family="Helvetica,sans-Serif" font-size="10.00" fill="#000000">stdio.h</text>
</a>
</g>
</g>
<!-- Node8&#45;&gt;Node11 -->
<g id="edge12" class="edge">
<title>Node8&#45;&gt;Node11</title>
<path fill="none" stroke="#191970" d="M275.7388,-224.3733C298.7789,-215.2226 333.6214,-201.3844 359.2501,-191.2057"/>
<polygon fill="#191970" stroke="#191970" points="360.5756,-194.4452 368.5775,-187.5011 357.9918,-187.9395 360.5756,-194.4452"/>
</g>
<!-- Node12 -->
<g id="node13" class="node">
<title>Node12</title>
<g id="a_node13"><a xlink:href="utp__templates_8h.html" target="_top" xlink:title=" ">
<polygon fill="#ffffff" stroke="#000000" points="369.5,-112.5 369.5,-131.5 465.5,-131.5 465.5,-112.5 369.5,-112.5"/>
<text text-anchor="middle" x="417.5" y="-119.5" font-family="Helvetica,sans-Serif" font-size="10.00" fill="#000000">utp_templates.h</text>
</a>
</g>
</g>
<!-- Node8&#45;&gt;Node12 -->
<g id="edge15" class="edge">
<title>Node8&#45;&gt;Node12</title>
<path fill="none" stroke="#191970" d="M293.6074,-228.838C340.0557,-222.1769 410.3864,-208.8966 426.5,-188 436.7285,-174.7354 432.5014,-155.3527 426.9021,-141.0214"/>
<polygon fill="#191970" stroke="#191970" points="430.0034,-139.3793 422.7696,-131.6384 423.5972,-142.2009 430.0034,-139.3793"/>
</g>
<!-- Node13 -->
<g id="node14" class="node">
<title>Node13</title>
<g id="a_node14"><a xlink:href="utp__hash_8h.html" target="_top" xlink:title=" ">
<polygon fill="#ffffff" stroke="#000000" points="279.5,-168.5 279.5,-187.5 349.5,-187.5 349.5,-168.5 279.5,-168.5"/>
<text text-anchor="middle" x="314.5" y="-175.5" font-family="Helvetica,sans-Serif" font-size="10.00" fill="#000000">utp_hash.h</text>
</a>
</g>
</g>
<!-- Node8&#45;&gt;Node13 -->
<g id="edge18" class="edge">
<title>Node8&#45;&gt;Node13</title>
<path fill="none" stroke="#191970" d="M262.4738,-224.2455C271.6882,-216.0549 285.0532,-204.1749 295.9297,-194.5069"/>
<polygon fill="#191970" stroke="#191970" points="298.5032,-196.9023 303.652,-187.6427 293.8526,-191.6704 298.5032,-196.9023"/>
</g>
<!-- Node15 -->
<g id="node16" class="node">
<title>Node15</title>
<g id="a_node16"><a xlink:href="utp__packedsockaddr_8h.html" target="_top" xlink:title=" ">
<polygon fill="#ffffff" stroke="#000000" points="98,-168.5 98,-187.5 223,-187.5 223,-168.5 98,-168.5"/>
<text text-anchor="middle" x="160.5" y="-175.5" font-family="Helvetica,sans-Serif" font-size="10.00" fill="#000000">utp_packedsockaddr.h</text>
</a>
</g>
</g>
<!-- Node8&#45;&gt;Node15 -->
<g id="edge23" class="edge">
<title>Node8&#45;&gt;Node15</title>
<path fill="none" stroke="#191970" d="M235.649,-224.2455C221.6868,-215.6534 201.1272,-203.0014 185.0404,-193.1018"/>
<polygon fill="#191970" stroke="#191970" points="186.5203,-189.9029 176.1693,-187.6427 182.8516,-195.8645 186.5203,-189.9029"/>
</g>
<!-- Node12&#45;&gt;Node3 -->
<g id="edge16" class="edge">
<title>Node12&#45;&gt;Node3</title>
<path fill="none" stroke="#191970" d="M394.8084,-112.3733C373.4289,-103.3032 341.1943,-89.6279 317.2638,-79.4755"/>
<polygon fill="#191970" stroke="#191970" points="318.4683,-76.1846 307.8955,-75.5011 315.7344,-82.6287 318.4683,-76.1846"/>
</g>
<!-- Node12&#45;&gt;Node10 -->
<g id="edge17" class="edge">
<title>Node12&#45;&gt;Node10</title>
<path fill="none" stroke="#191970" d="M424.1191,-112.2455C429.4046,-104.4564 436.9541,-93.3308 443.3238,-83.9439"/>
<polygon fill="#191970" stroke="#191970" points="446.2379,-85.8827 448.9568,-75.6427 440.4455,-81.9522 446.2379,-85.8827"/>
</g>
<!-- Node13&#45;&gt;Node3 -->
<g id="edge21" class="edge">
<title>Node13&#45;&gt;Node3</title>
<path fill="none" stroke="#191970" d="M318.3329,-168.3057C322.9372,-155.1704 329.2495,-131.1602 322.5,-112 318.6691,-101.125 311.0598,-90.9246 303.7328,-82.9061"/>
<polygon fill="#191970" stroke="#191970" points="306.1466,-80.3686 296.6502,-75.6707 301.1443,-85.2652 306.1466,-80.3686"/>
</g>
<!-- Node13&#45;&gt;Node9 -->
<g id="edge19" class="edge">
<title>Node13&#45;&gt;Node9</title>
<path fill="none" stroke="#191970" d="M297.2555,-168.2455C281.9239,-159.5731 259.2801,-146.7645 241.7084,-136.825"/>
<polygon fill="#191970" stroke="#191970" points="242.9741,-133.5198 232.5469,-131.6427 239.5276,-139.6126 242.9741,-133.5198"/>
</g>
<!-- Node13&#45;&gt;Node12 -->
<g id="edge22" class="edge">
<title>Node13&#45;&gt;Node12</title>
<path fill="none" stroke="#191970" d="M332.4412,-168.2455C348.54,-159.4928 372.3879,-146.527 390.7391,-136.5496"/>
<polygon fill="#191970" stroke="#191970" points="392.6507,-139.4942 399.7644,-131.6427 389.3071,-133.3444 392.6507,-139.4942"/>
</g>
<!-- Node14 -->
<g id="node15" class="node">
<title>Node14</title>
<g id="a_node15"><a xlink:title=" ">
<polygon fill="#ffffff" stroke="#bfbfbf" points="260,-112.5 260,-131.5 313,-131.5 313,-112.5 260,-112.5"/>
<text text-anchor="middle" x="286.5" y="-119.5" font-family="Helvetica,sans-Serif" font-size="10.00" fill="#000000">stdlib.h</text>
</a>
</g>
</g>
<!-- Node13&#45;&gt;Node14 -->
<g id="edge20" class="edge">
<title>Node13&#45;&gt;Node14</title>
<path fill="none" stroke="#191970" d="M309.6228,-168.2455C305.8487,-160.6973 300.5079,-150.0158 295.9099,-140.8197"/>
<polygon fill="#191970" stroke="#191970" points="298.924,-139.0217 291.3213,-131.6427 292.663,-142.1522 298.924,-139.0217"/>
</g>
<!-- Node15&#45;&gt;Node3 -->
<g id="edge24" class="edge">
<title>Node15&#45;&gt;Node3</title>
<path fill="none" stroke="#191970" d="M160.9583,-168.2642C162.1167,-154.1982 166.1916,-128.1159 180.5,-112 195.6592,-94.9259 218.3193,-83.9167 238.7127,-76.9656"/>
<polygon fill="#191970" stroke="#191970" points="240.02,-80.2231 248.4991,-73.8705 237.9091,-73.549 240.02,-80.2231"/>
</g>
</g>
</svg>
