<?xml version="1.0" encoding="UTF-8" standalone="no"?>
<!DOCTYPE svg PUBLIC "-//W3C//DTD SVG 1.1//EN"
 "http://www.w3.org/Graphics/SVG/1.1/DTD/svg11.dtd">
<!-- Generated by graphviz version 2.40.1 (20161225.0304)
 -->
<!-- Title: include/utp_hash.h Pages: 1 -->
<svg width="139pt" height="140pt"
 viewBox="0.00 0.00 139.00 140.00" xmlns="http://www.w3.org/2000/svg" xmlns:xlink="http://www.w3.org/1999/xlink">
<g id="graph0" class="graph" transform="scale(1 1) rotate(0) translate(4 136)">
<title>include/utp_hash.h</title>
<polygon fill="#ffffff" stroke="transparent" points="-4,4 -4,-136 135,-136 135,4 -4,4"/>
<!-- Node10 -->
<g id="node1" class="node">
<title>Node10</title>
<g id="a_node1"><a xlink:title=" ">
<polygon fill="#bfbfbf" stroke="#000000" points="11.5,-112.5 11.5,-131.5 119.5,-131.5 119.5,-112.5 11.5,-112.5"/>
<text text-anchor="middle" x="65.5" y="-119.5" font-family="Helvetica,sans-Serif" font-size="10.00" fill="#000000">include/utp_hash.h</text>
</a>
</g>
</g>
<!-- Node11 -->
<g id="node2" class="node">
<title>Node11</title>
<g id="a_node2"><a xlink:href="utp__internal_8h.html" target="_top" xlink:title=" ">
<polygon fill="#ffffff" stroke="#000000" points="4.5,-56.5 4.5,-75.5 126.5,-75.5 126.5,-56.5 4.5,-56.5"/>
<text text-anchor="middle" x="65.5" y="-63.5" font-family="Helvetica,sans-Serif" font-size="10.00" fill="#000000">include/utp_internal.h</text>
</a>
</g>
</g>
<!-- Node10&#45;&gt;Node11 -->
<g id="edge1" class="edge">
<title>Node10&#45;&gt;Node11</title>
<path fill="none" stroke="#191970" d="M65.5,-102.1575C65.5,-93.155 65.5,-82.9199 65.5,-75.6427"/>
<polygon fill="#191970" stroke="#191970" points="62.0001,-102.2455 65.5,-112.2455 69.0001,-102.2456 62.0001,-102.2455"/>
</g>
<!-- Node12 -->
<g id="node3" class="node">
<title>Node12</title>
<g id="a_node3"><a xlink:href="utp__callbacks_8h.html" target="_top" xlink:title=" ">
<polygon fill="#ffffff" stroke="#000000" points="0,-.5 0,-19.5 131,-19.5 131,-.5 0,-.5"/>
<text text-anchor="middle" x="65.5" y="-7.5" font-family="Helvetica,sans-Serif" font-size="10.00" fill="#000000">include/utp_callbacks.h</text>
</a>
</g>
</g>
<!-- Node11&#45;&gt;Node12 -->
<g id="edge2" class="edge">
<title>Node11&#45;&gt;Node12</title>
<path fill="none" stroke="#191970" d="M59.0113,-46.1575C58.419,-37.155 58.8335,-26.9199 60.2549,-19.6427"/>
<polygon fill="#191970" stroke="#191970" points="55.5561,-46.739 60.2332,-56.2455 62.5053,-45.8972 55.5561,-46.739"/>
</g>
<!-- Node12&#45;&gt;Node11 -->
<g id="edge3" class="edge">
<title>Node12&#45;&gt;Node11</title>
<path fill="none" stroke="#191970" d="M71.9795,-29.7046C72.5821,-38.6944 72.1779,-48.9382 70.7668,-56.2455"/>
<polygon fill="#191970" stroke="#191970" points="75.4368,-29.1421 70.7451,-19.6427 68.4889,-29.9945 75.4368,-29.1421"/>
</g>
</g>
</svg>
