<?xml version="1.0" encoding="UTF-8" standalone="no"?>
<!DOCTYPE svg PUBLIC "-//W3C//DTD SVG 1.1//EN"
 "http://www.w3.org/Graphics/SVG/1.1/DTD/svg11.dtd">
<!-- Generated by graphviz version 2.40.1 (20161225.0304)
 -->
<!-- Title: utp_init Pages: 1 -->
<svg width="141pt" height="66pt"
 viewBox="0.00 0.00 141.00 66.00" xmlns="http://www.w3.org/2000/svg" xmlns:xlink="http://www.w3.org/1999/xlink">
<g id="graph0" class="graph" transform="scale(1 1) rotate(0) translate(4 62)">
<title>utp_init</title>
<polygon fill="#ffffff" stroke="transparent" points="-4,4 -4,-62 137,-62 137,4 -4,4"/>
<!-- Node37 -->
<g id="node1" class="node">
<title>Node37</title>
<g id="a_node1"><a xlink:title=" ">
<polygon fill="#bfbfbf" stroke="#000000" points="80,-19.5 80,-38.5 133,-38.5 133,-19.5 80,-19.5"/>
<text text-anchor="middle" x="106.5" y="-26.5" font-family="Helvetica,sans-Serif" font-size="10.00" fill="#000000">utp_init</text>
</a>
</g>
</g>
<!-- Node38 -->
<g id="node2" class="node">
<title>Node38</title>
<g id="a_node2"><a xlink:href="main_8c.html#a09a9d9145624e027a1ad3cbe85580acc" target="_top" xlink:title=" ">
<polygon fill="#ffffff" stroke="#000000" points="0,-38.5 0,-57.5 44,-57.5 44,-38.5 0,-38.5"/>
<text text-anchor="middle" x="22" y="-45.5" font-family="Helvetica,sans-Serif" font-size="10.00" fill="#000000">serve</text>
</a>
</g>
</g>
<!-- Node37&#45;&gt;Node38 -->
<g id="edge1" class="edge">
<title>Node37&#45;&gt;Node38</title>
<path fill="none" stroke="#191970" d="M69.7232,-37.2693C60.9668,-39.2382 51.8915,-41.2788 44.0359,-43.0452"/>
<polygon fill="#191970" stroke="#191970" points="70.7751,-40.6203 79.7637,-35.0117 69.2394,-33.7908 70.7751,-40.6203"/>
</g>
<!-- Node39 -->
<g id="node3" class="node">
<title>Node39</title>
<g id="a_node3"><a xlink:href="main_8c.html#a7d0f00f54686b7ecfb1c73edca3ee4f4" target="_top" xlink:title=" ">
<polygon fill="#ffffff" stroke="#000000" points="0,-.5 0,-19.5 44,-19.5 44,-.5 0,-.5"/>
<text text-anchor="middle" x="22" y="-7.5" font-family="Helvetica,sans-Serif" font-size="10.00" fill="#000000">client</text>
</a>
</g>
</g>
<!-- Node37&#45;&gt;Node39 -->
<g id="edge2" class="edge">
<title>Node37&#45;&gt;Node39</title>
<path fill="none" stroke="#191970" d="M69.7232,-20.7307C60.9668,-18.7618 51.8915,-16.7212 44.0359,-14.9548"/>
<polygon fill="#191970" stroke="#191970" points="69.2394,-24.2092 79.7637,-22.9883 70.7751,-17.3797 69.2394,-24.2092"/>
</g>
</g>
</svg>
