<?xml version="1.0" encoding="UTF-8" standalone="no"?>
<!DOCTYPE svg PUBLIC "-//W3C//DTD SVG 1.1//EN"
 "http://www.w3.org/Graphics/SVG/1.1/DTD/svg11.dtd">
<!-- Generated by graphviz version 2.40.1 (20161225.0304)
 -->
<!-- Title: include/utp_types.h Pages: 1 -->
<svg width="580pt" height="196pt"
 viewBox="0.00 0.00 579.50 196.00" xmlns="http://www.w3.org/2000/svg" xmlns:xlink="http://www.w3.org/1999/xlink">
<g id="graph0" class="graph" transform="scale(1 1) rotate(0) translate(4 192)">
<title>include/utp_types.h</title>
<polygon fill="#ffffff" stroke="transparent" points="-4,4 -4,-192 575.5,-192 575.5,4 -4,4"/>
<!-- Node5 -->
<g id="node1" class="node">
<title>Node5</title>
<g id="a_node1"><a xlink:title=" ">
<polygon fill="#bfbfbf" stroke="#000000" points="275.5,-168.5 275.5,-187.5 387.5,-187.5 387.5,-168.5 275.5,-168.5"/>
<text text-anchor="middle" x="331.5" y="-175.5" font-family="Helvetica,sans-Serif" font-size="10.00" fill="#000000">include/utp_types.h</text>
</a>
</g>
</g>
<!-- Node6 -->
<g id="node2" class="node">
<title>Node6</title>
<g id="a_node2"><a xlink:href="utp_8h.html" target="_top" xlink:title=" ">
<polygon fill="#ffffff" stroke="#000000" points="119.5,-112.5 119.5,-131.5 199.5,-131.5 199.5,-112.5 119.5,-112.5"/>
<text text-anchor="middle" x="159.5" y="-119.5" font-family="Helvetica,sans-Serif" font-size="10.00" fill="#000000">include/utp.h</text>
</a>
</g>
</g>
<!-- Node5&#45;&gt;Node6 -->
<g id="edge1" class="edge">
<title>Node5&#45;&gt;Node6</title>
<path fill="none" stroke="#191970" d="M292.1565,-165.1905C260.6449,-154.9309 217.1481,-140.7691 188.682,-131.5011"/>
<polygon fill="#191970" stroke="#191970" points="291.3399,-168.6054 301.9321,-168.3733 293.507,-161.9493 291.3399,-168.6054"/>
</g>
<!-- Node10 -->
<g id="node6" class="node">
<title>Node10</title>
<g id="a_node6"><a xlink:href="utp__templates_8h.html" target="_top" xlink:title=" ">
<polygon fill="#ffffff" stroke="#000000" points="217.5,-112.5 217.5,-131.5 351.5,-131.5 351.5,-112.5 217.5,-112.5"/>
<text text-anchor="middle" x="284.5" y="-119.5" font-family="Helvetica,sans-Serif" font-size="10.00" fill="#000000">include/utp_templates.h</text>
</a>
</g>
</g>
<!-- Node5&#45;&gt;Node10 -->
<g id="edge7" class="edge">
<title>Node5&#45;&gt;Node10</title>
<path fill="none" stroke="#191970" d="M316.8128,-160.5004C308.8204,-150.9775 299.2375,-139.5596 292.593,-131.6427"/>
<polygon fill="#191970" stroke="#191970" points="314.2036,-162.8358 323.3132,-168.2455 319.5654,-158.3357 314.2036,-162.8358"/>
</g>
<!-- Node11 -->
<g id="node7" class="node">
<title>Node11</title>
<g id="a_node7"><a xlink:href="utp__hash_8h.html" target="_top" xlink:title=" ">
<polygon fill="#ffffff" stroke="#000000" points="323.5,-56.5 323.5,-75.5 431.5,-75.5 431.5,-56.5 323.5,-56.5"/>
<text text-anchor="middle" x="377.5" y="-63.5" font-family="Helvetica,sans-Serif" font-size="10.00" fill="#000000">include/utp_hash.h</text>
</a>
</g>
</g>
<!-- Node5&#45;&gt;Node11 -->
<g id="edge11" class="edge">
<title>Node5&#45;&gt;Node11</title>
<path fill="none" stroke="#191970" d="M344.7449,-159.9015C350.249,-151.7073 356.3156,-141.6991 360.5,-132 368.7493,-112.8787 373.691,-88.8539 375.9739,-75.7057"/>
<polygon fill="#191970" stroke="#191970" points="341.7572,-158.0668 338.8999,-168.2691 347.4958,-162.0754 341.7572,-158.0668"/>
</g>
<!-- Node12 -->
<g id="node8" class="node">
<title>Node12</title>
<g id="a_node8"><a xlink:href="utp__packedsockaddr_8h.html" target="_top" xlink:title=" ">
<polygon fill="#ffffff" stroke="#000000" points="407.5,-112.5 407.5,-131.5 571.5,-131.5 571.5,-112.5 407.5,-112.5"/>
<text text-anchor="middle" x="489.5" y="-119.5" font-family="Helvetica,sans-Serif" font-size="10.00" fill="#000000">include/utp_packedsockaddr.h</text>
</a>
</g>
</g>
<!-- Node5&#45;&gt;Node12 -->
<g id="edge12" class="edge">
<title>Node5&#45;&gt;Node12</title>
<path fill="none" stroke="#191970" d="M368.3955,-164.9231C397.2787,-154.686 436.7706,-140.6889 462.6933,-131.5011"/>
<polygon fill="#191970" stroke="#191970" points="366.9174,-161.7336 358.6612,-168.3733 369.2559,-168.3314 366.9174,-161.7336"/>
</g>
<!-- Node7 -->
<g id="node3" class="node">
<title>Node7</title>
<g id="a_node3"><a xlink:href="utp__callbacks_8h.html" target="_top" xlink:title=" ">
<polygon fill="#ffffff" stroke="#000000" points="0,-56.5 0,-75.5 131,-75.5 131,-56.5 0,-56.5"/>
<text text-anchor="middle" x="65.5" y="-63.5" font-family="Helvetica,sans-Serif" font-size="10.00" fill="#000000">include/utp_callbacks.h</text>
</a>
</g>
</g>
<!-- Node6&#45;&gt;Node7 -->
<g id="edge2" class="edge">
<title>Node6&#45;&gt;Node7</title>
<path fill="none" stroke="#191970" d="M134.3995,-107.0465C117.674,-97.0824 96.1832,-84.2794 81.6859,-75.6427"/>
<polygon fill="#191970" stroke="#191970" points="132.7441,-110.1343 143.1264,-112.2455 136.3268,-104.1206 132.7441,-110.1343"/>
</g>
<!-- Node8 -->
<g id="node4" class="node">
<title>Node8</title>
<g id="a_node4"><a xlink:href="utp__internal_8h.html" target="_top" xlink:title=" ">
<polygon fill="#ffffff" stroke="#000000" points="166.5,-.5 166.5,-19.5 288.5,-19.5 288.5,-.5 166.5,-.5"/>
<text text-anchor="middle" x="227.5" y="-7.5" font-family="Helvetica,sans-Serif" font-size="10.00" fill="#000000">include/utp_internal.h</text>
</a>
</g>
</g>
<!-- Node6&#45;&gt;Node8 -->
<g id="edge5" class="edge">
<title>Node6&#45;&gt;Node8</title>
<path fill="none" stroke="#191970" d="M162.3585,-102.1235C164.9933,-88.4004 169.8525,-70.1479 178.5,-56 187.5061,-41.2655 202.4761,-28.1933 213.5041,-19.786"/>
<polygon fill="#191970" stroke="#191970" points="158.8379,-101.9545 160.634,-112.396 165.7413,-103.1134 158.8379,-101.9545"/>
</g>
<!-- Node9 -->
<g id="node5" class="node">
<title>Node9</title>
<g id="a_node5"><a xlink:href="utpwrapper_8c.html" target="_top" xlink:title=" ">
<polygon fill="#ffffff" stroke="#000000" points="187.5,-56.5 187.5,-75.5 267.5,-75.5 267.5,-56.5 187.5,-56.5"/>
<text text-anchor="middle" x="227.5" y="-63.5" font-family="Helvetica,sans-Serif" font-size="10.00" fill="#000000">utpwrapper.c</text>
</a>
</g>
</g>
<!-- Node6&#45;&gt;Node9 -->
<g id="edge6" class="edge">
<title>Node6&#45;&gt;Node9</title>
<path fill="none" stroke="#191970" d="M179.3596,-105.645C191.1858,-95.9058 205.7892,-83.8795 215.791,-75.6427"/>
<polygon fill="#191970" stroke="#191970" points="176.839,-103.1867 171.3447,-112.2455 181.289,-108.5902 176.839,-103.1867"/>
</g>
<!-- Node7&#45;&gt;Node8 -->
<g id="edge3" class="edge">
<title>Node7&#45;&gt;Node8</title>
<path fill="none" stroke="#191970" d="M97.5164,-52.9231C125.7074,-42.686 166.3977,-28.6889 194.7973,-19.5011"/>
<polygon fill="#191970" stroke="#191970" points="96.2907,-49.6446 88.1068,-56.3733 98.7005,-56.2168 96.2907,-49.6446"/>
</g>
<!-- Node8&#45;&gt;Node7 -->
<g id="edge4" class="edge">
<title>Node8&#45;&gt;Node7</title>
<path fill="none" stroke="#191970" d="M195.4988,-23.0713C167.4354,-33.2624 126.9771,-47.1822 98.5908,-56.3733"/>
<polygon fill="#191970" stroke="#191970" points="197.0489,-26.2309 205.2319,-19.5011 194.6382,-19.659 197.0489,-26.2309"/>
</g>
<!-- Node10&#45;&gt;Node8 -->
<g id="edge8" class="edge">
<title>Node10&#45;&gt;Node8</title>
<path fill="none" stroke="#191970" d="M285.5567,-102.2307C285.4859,-88.5569 283.752,-70.3192 276.5,-56 268.8032,-40.8024 253.948,-27.9778 242.6029,-19.7625"/>
<polygon fill="#191970" stroke="#191970" points="282.0523,-102.3754 285.3098,-112.457 289.0503,-102.5445 282.0523,-102.3754"/>
</g>
<!-- Node10&#45;&gt;Node11 -->
<g id="edge9" class="edge">
<title>Node10&#45;&gt;Node11</title>
<path fill="none" stroke="#191970" d="M309.3335,-107.0465C325.8811,-97.0824 347.1432,-84.2794 361.4863,-75.6427"/>
<polygon fill="#191970" stroke="#191970" points="307.4607,-104.0886 300.6994,-112.2455 311.0717,-110.0854 307.4607,-104.0886"/>
</g>
<!-- Node11&#45;&gt;Node8 -->
<g id="edge10" class="edge">
<title>Node11&#45;&gt;Node8</title>
<path fill="none" stroke="#191970" d="M342.1129,-52.7888C314.7247,-42.5639 277.4521,-28.6488 252.9494,-19.5011"/>
<polygon fill="#191970" stroke="#191970" points="341.1215,-56.1546 351.7141,-56.3733 343.5698,-49.5967 341.1215,-56.1546"/>
</g>
<!-- Node12&#45;&gt;Node8 -->
<g id="edge13" class="edge">
<title>Node12&#45;&gt;Node8</title>
<path fill="none" stroke="#191970" d="M480.3925,-103.175C472.0953,-88.0682 458.4097,-67.541 440.5,-56 415.7351,-40.0415 342.2624,-26.4744 288.5161,-18.2959"/>
<polygon fill="#191970" stroke="#191970" points="477.3465,-104.9043 485.057,-112.1706 483.5608,-101.682 477.3465,-104.9043"/>
</g>
</g>
</svg>
