<?xml version="1.0" encoding="UTF-8" standalone="no"?>
<!DOCTYPE svg PUBLIC "-//W3C//DTD SVG 1.1//EN"
 "http://www.w3.org/Graphics/SVG/1.1/DTD/svg11.dtd">
<!-- Generated by graphviz version 2.40.1 (20161225.0304)
 -->
<!-- Title: include/utp.h Pages: 1 -->
<svg width="276pt" height="140pt"
 viewBox="0.00 0.00 275.50 140.00" xmlns="http://www.w3.org/2000/svg" xmlns:xlink="http://www.w3.org/1999/xlink">
<g id="graph0" class="graph" transform="scale(1 1) rotate(0) translate(4 136)">
<title>include/utp.h</title>
<polygon fill="#ffffff" stroke="transparent" points="-4,4 -4,-136 271.5,-136 271.5,4 -4,4"/>
<!-- Node7 -->
<g id="node1" class="node">
<title>Node7</title>
<g id="a_node1"><a xlink:title=" ">
<polygon fill="#bfbfbf" stroke="#000000" points="119.5,-112.5 119.5,-131.5 199.5,-131.5 199.5,-112.5 119.5,-112.5"/>
<text text-anchor="middle" x="159.5" y="-119.5" font-family="Helvetica,sans-Serif" font-size="10.00" fill="#000000">include/utp.h</text>
</a>
</g>
</g>
<!-- Node8 -->
<g id="node2" class="node">
<title>Node8</title>
<g id="a_node2"><a xlink:href="utp__callbacks_8h.html" target="_top" xlink:title=" ">
<polygon fill="#ffffff" stroke="#000000" points="0,-56.5 0,-75.5 131,-75.5 131,-56.5 0,-56.5"/>
<text text-anchor="middle" x="65.5" y="-63.5" font-family="Helvetica,sans-Serif" font-size="10.00" fill="#000000">include/utp_callbacks.h</text>
</a>
</g>
</g>
<!-- Node7&#45;&gt;Node8 -->
<g id="edge1" class="edge">
<title>Node7&#45;&gt;Node8</title>
<path fill="none" stroke="#191970" d="M134.3995,-107.0465C117.674,-97.0824 96.1832,-84.2794 81.6859,-75.6427"/>
<polygon fill="#191970" stroke="#191970" points="132.7441,-110.1343 143.1264,-112.2455 136.3268,-104.1206 132.7441,-110.1343"/>
</g>
<!-- Node9 -->
<g id="node3" class="node">
<title>Node9</title>
<g id="a_node3"><a xlink:href="utp__internal_8h.html" target="_top" xlink:title=" ">
<polygon fill="#ffffff" stroke="#000000" points="4.5,-.5 4.5,-19.5 126.5,-19.5 126.5,-.5 4.5,-.5"/>
<text text-anchor="middle" x="65.5" y="-7.5" font-family="Helvetica,sans-Serif" font-size="10.00" fill="#000000">include/utp_internal.h</text>
</a>
</g>
</g>
<!-- Node7&#45;&gt;Node9 -->
<g id="edge4" class="edge">
<title>Node7&#45;&gt;Node9</title>
<path fill="none" stroke="#191970" d="M157.58,-101.9459C155.3739,-87.8976 150.6414,-69.3274 140.5,-56 127.7353,-39.2251 106.9384,-27.1686 90.4783,-19.618"/>
<polygon fill="#191970" stroke="#191970" points="154.1319,-102.5765 158.8627,-112.0564 161.0762,-101.6954 154.1319,-102.5765"/>
</g>
<!-- Node10 -->
<g id="node4" class="node">
<title>Node10</title>
<g id="a_node4"><a xlink:href="utpwrapper_8c.html" target="_top" xlink:title=" ">
<polygon fill="#ffffff" stroke="#000000" points="187.5,-56.5 187.5,-75.5 267.5,-75.5 267.5,-56.5 187.5,-56.5"/>
<text text-anchor="middle" x="227.5" y="-63.5" font-family="Helvetica,sans-Serif" font-size="10.00" fill="#000000">utpwrapper.c</text>
</a>
</g>
</g>
<!-- Node7&#45;&gt;Node10 -->
<g id="edge5" class="edge">
<title>Node7&#45;&gt;Node10</title>
<path fill="none" stroke="#191970" d="M179.3596,-105.645C191.1858,-95.9058 205.7892,-83.8795 215.791,-75.6427"/>
<polygon fill="#191970" stroke="#191970" points="176.839,-103.1867 171.3447,-112.2455 181.289,-108.5902 176.839,-103.1867"/>
</g>
<!-- Node8&#45;&gt;Node9 -->
<g id="edge2" class="edge">
<title>Node8&#45;&gt;Node9</title>
<path fill="none" stroke="#191970" d="M59.0113,-46.1575C58.419,-37.155 58.8335,-26.9199 60.2549,-19.6427"/>
<polygon fill="#191970" stroke="#191970" points="55.5561,-46.739 60.2332,-56.2455 62.5053,-45.8972 55.5561,-46.739"/>
</g>
<!-- Node9&#45;&gt;Node8 -->
<g id="edge3" class="edge">
<title>Node9&#45;&gt;Node8</title>
<path fill="none" stroke="#191970" d="M71.9795,-29.7046C72.5821,-38.6944 72.1779,-48.9382 70.7668,-56.2455"/>
<polygon fill="#191970" stroke="#191970" points="75.4368,-29.1421 70.7451,-19.6427 68.4889,-29.9945 75.4368,-29.1421"/>
</g>
</g>
</svg>
